<?xml version="1.0" encoding="iso-8859-1"?>
<!-- Generator: Adobe Illustrator 16.0.0, SVG Export Plug-In . SVG Version: 6.00 Build 0)  -->
<!DOCTYPE svg PUBLIC "-//W3C//DTD SVG 1.1//EN" "http://www.w3.org/Graphics/SVG/1.1/DTD/svg11.dtd">
<svg version="1.1" id="Capa_1" xmlns="http://www.w3.org/2000/svg" xmlns:xlink="http://www.w3.org/1999/xlink" x="0px" y="0px"
	 width="30.723px" height="24.578px" viewBox="0 0 30.723 24.578" style="enable-background:new 0 0 30.723 24.578;"
	 xml:space="preserve">
<path style="fill:#000000;" d="M30.716,23.402l0.007-19.877c-0.002-0.613-0.498-1.107-1.107-1.107H15.598
	c-0.437-0.012-0.773-0.807-0.773-1.111V1.18c0-0.65-0.527-1.18-1.178-1.18H6.188C5.535,0,5.009,0.529,5.009,1.18v0.127
	c0,0.309-0.342,1.113-0.786,1.113h0.014C3.631,2.432,3.144,2.924,3.144,3.527l0.004,5.754H0.764c0,0-1.056-0.055-0.685,1.199
	l2.517,12.922c0,0.65,0.452,1.176,1.104,1.176h26.472C30.823,24.578,30.716,23.402,30.716,23.402z M19.976,21.842L18.38,23.4
	c-0.675,0.654-1.767,0.654-2.437-0.008l-1.52-1.5c-0.67-0.664-0.666-1.736,0.008-2.393l1.596-1.557
	c0.674-0.66,1.768-0.656,2.438,0.006l-0.949,0.939c-0.3-0.1-0.646,0.02-0.883,0.252L15.648,20.1
	c-0.338,0.328-0.34,0.865-0.002,1.197l0.91,0.898c0.336,0.332,0.881,0.334,1.219,0.006l0.982-0.961
	c0.229-0.223,0.352-0.586,0.275-0.871l0.95-0.918C20.651,20.113,20.648,21.184,19.976,21.842z M20.725,16.414
	c0.226-0.223,0.592-0.221,0.814,0.004c0.227,0.227,0.224,0.592-0.002,0.818l-2.726,2.709c-0.226,0.223-0.593,0.223-0.815-0.002
	c-0.224-0.227-0.224-0.592,0.002-0.818L20.725,16.414z M25.08,16.814l-1.653,1.611c-0.66,0.646-1.731,0.645-2.392-0.006l0.928-0.908
	c0.281,0.076,0.65-0.043,0.87-0.26l1.052-1.027c0.332-0.322,0.334-0.85,0.005-1.174l-0.895-0.885
	c-0.33-0.324-0.866-0.326-1.196-0.004l-1.053,1.027c-0.234,0.227-0.354,0.561-0.256,0.848l-0.947,0.908
	c-0.657-0.648-0.655-1.701,0.006-2.348l1.654-1.613c0.664-0.645,1.734-0.643,2.395,0.008l1.488,1.475
	C25.746,15.117,25.744,16.17,25.08,16.814z M29.357,10.947l-0.011,12.975l-2.505-13.91c-0.209-0.764-1.074-0.711-1.074-0.711H4.511
	V4.889h24.846V10.947z"/>
<g>
</g>
<g>
</g>
<g>
</g>
<g>
</g>
<g>
</g>
<g>
</g>
<g>
</g>
<g>
</g>
<g>
</g>
<g>
</g>
<g>
</g>
<g>
</g>
<g>
</g>
<g>
</g>
<g>
</g>
</svg>
