<?xml version="1.0" encoding="UTF-8" standalone="no"?>
<!-- Created with Inkscape (http://www.inkscape.org/) -->

<svg
   xmlns:dc="http://purl.org/dc/elements/1.1/"
   xmlns:cc="http://creativecommons.org/ns#"
   xmlns:rdf="http://www.w3.org/1999/02/22-rdf-syntax-ns#"
   xmlns:svg="http://www.w3.org/2000/svg"
   xmlns="http://www.w3.org/2000/svg"
   xmlns:sodipodi="http://sodipodi.sourceforge.net/DTD/sodipodi-0.dtd"
   xmlns:inkscape="http://www.inkscape.org/namespaces/inkscape"
   version="1.1"
   width="435.16602"
   height="437.0625"
   viewBox="0 0 435.16602 437.0625"
   id="Layer_1"
   xml:space="preserve"
   inkscape:version="0.48.4 r9939"
   sodipodi:docname="frame-monkey.svg"
   inkscape:export-filename="/home/peter/Sites/thebookofcss3/images/frame-monkey.png"
   inkscape:export-xdpi="128.23"
   inkscape:export-ydpi="128.23"><sodipodi:namedview
     pagecolor="#ffffff"
     bordercolor="#666666"
     borderopacity="1"
     objecttolerance="10"
     gridtolerance="10"
     guidetolerance="10"
     inkscape:pageopacity="0"
     inkscape:pageshadow="2"
     inkscape:window-width="1387"
     inkscape:window-height="876"
     id="namedview26"
     showgrid="false"
     inkscape:zoom="1.0799371"
     inkscape:cx="7.9752435"
     inkscape:cy="218.53125"
     inkscape:window-x="53"
     inkscape:window-y="24"
     inkscape:window-maximized="1"
     inkscape:current-layer="layer4" /><metadata
     id="metadata49"><rdf:RDF><cc:Work
         rdf:about=""><dc:format>image/svg+xml</dc:format><dc:type
           rdf:resource="http://purl.org/dc/dcmitype/StillImage" /><dc:title></dc:title></cc:Work></rdf:RDF></metadata><defs
     id="defs47"><pattern
       inkscape:stockid="Checkerboard"
       id="Checkerboard"
       patternTransform="translate(0,0) scale(10,10)"
       height="2"
       width="2"
       patternUnits="userSpaceOnUse"
       inkscape:collect="always"><rect
         id="rect4872"
         height="1"
         width="1"
         y="0"
         x="0"
         style="fill:black;stroke:none" /><rect
         id="rect4874"
         height="1"
         width="1"
         y="1"
         x="1"
         style="fill:black;stroke:none" /></pattern></defs><path
     d="m 423.09308,367.7705 c -3.097,-3.096 -6.588,-5.561 -10.308,-7.416 12.965,-6.514 21.888,-19.932 21.888,-35.4 0,-15.516 -8.975,-28.969 -22.001,-35.461 13.026,-6.49 22.001,-19.943 22.001,-35.459 0,-15.516 -8.975,-28.969 -22.001,-35.461 13.026,-6.491 22.001,-19.943 22.001,-35.459 0,-15.516 -8.975,-28.969 -22.001,-35.461 13.026,-6.491 22.001,-19.943 22.001,-35.459 0,-15.514 -8.973,-28.966 -21.997,-35.458 3.754,-1.859 7.276,-4.339 10.398,-7.461 15.439,-15.44 15.439,-40.564 0,-56.003 -15.439,-15.44 -40.563,-15.44 -56.003,0 -3.133,3.133 -5.619,6.669 -7.48,10.438 -6.244,-13.681 -20.044,-23.218 -36.038,-23.218 -15.516,0 -28.968,8.974 -35.46,22.001 -6.492,-13.027 -19.944,-22.001 -35.46,-22.001 -15.516,0 -28.968,8.974 -35.46,22.001 -6.492,-13.027 -19.944,-22.001 -35.46,-22.001 -15.516,0 -28.968,8.974 -35.46,22.001 -6.492,-13.027 -19.944,-22.001 -35.46,-22.001 -15.665002,0 -29.234002,9.145 -35.652002,22.376 -1.811,-3.455 -4.166,-6.697 -7.065,-9.597 -15.44,-15.439 -40.563,-15.439 -56.003,0 -15.44,15.439 -15.44,40.563 0,56.002 3.097,3.098 6.587,5.563 10.307,7.416 -12.964,6.514 -21.88700005,19.932 -21.88700005,35.402 0,15.516 8.97500005,28.968 22.00100005,35.459 -13.027,6.492 -22.00100005,19.945 -22.00100005,35.461 0,15.516 8.97500005,28.968 22.00100005,35.459 -13.027,6.492 -22.00100005,19.945 -22.00100005,35.461 0,15.516 8.97500005,28.969 22.00100005,35.459 -13.027,6.492 -22.00100005,19.945 -22.00100005,35.461 0,15.514 8.97200005,28.965 21.99700005,35.457 -3.754,1.859 -7.276,4.338 -10.398,7.461 -15.439,15.439 -15.439,40.564 0,56.004 15.439,15.44 40.563,15.439 56.003,-0.002 3.133,-3.133 5.619,-6.67 7.481,-10.438 6.245,13.68 20.043,23.217 36.038002,23.217 15.516,0 28.969,-8.975 35.46,-22 6.491,13.025 19.944,22 35.46,22 15.516,0 28.969,-8.975 35.46,-22 6.491,13.025 19.944,22 35.46,22 15.516,0 28.969,-8.975 35.46,-22 6.491,13.025 19.944,22 35.46,22 15.665,0 29.234,-9.145 35.652,-22.375 1.811,3.455 4.166,6.697 7.065,9.598 15.44,15.439 40.563,15.439 56.003,0 15.439,-15.439 15.439,-40.562 -0.001,-56.003 z"
     id="path3"
     style="fill:none;stroke:#010302" /><path
     d="m 426.75308,324.9545 c 0,16.143 -12.142,29.496 -27.771,31.43 -2.594,-0.254 -5.207,-0.254 -7.801,0.002 -0.94,-0.115 -1.869,-0.27 -2.783,-0.467 v -27.01 l 15.378,0.029 c 2.723,0.086 4.913,2.258 4.913,4.934 0,2.73 -2.276,4.951 -5.075,4.951 -2.171,0 -4.102,-1.346 -4.804,-3.348 -0.725,-2.063 -2.985,-3.148 -5.048,-2.424 -2.063,0.725 -3.148,2.982 -2.426,5.049 1.814,5.17 6.748,8.643 12.277,8.643 7.166,0 12.995,-5.775 12.995,-12.871 0,-3.455 -1.382,-6.596 -3.626,-8.91 2.244,-2.314 3.626,-5.455 3.626,-8.91 0,-7.096 -5.829,-12.869 -12.995,-12.869 -5.529,0 -10.463,3.473 -12.277,8.643 -0.152,0.434 -0.224,0.877 -0.224,1.311 -10e-4,1.635 1.02,3.166 2.649,3.738 2.063,0.723 4.323,-0.363 5.048,-2.426 0.702,-2.002 2.633,-3.346 4.804,-3.346 2.799,0 5.075,2.221 5.075,4.949 0,2.73 -2.276,4.951 -5.075,4.951 v 0.016 l -15.216,-0.029 v -27.003 c 1.043,-0.225 2.105,-0.398 3.184,-0.518 1.151,0.102 5.831,0.102 6.982,0 15.833,1.744 28.19,15.197 28.19,31.485 z"
     id="path5"
     style="fill:#000000;fill-opacity:1;stroke:#010302" /><path
     d="m 426.75308,254.0345 c 0,16.287 -12.357,29.738 -28.189,31.482 -1.151,-0.102 -5.831,-0.102 -6.982,0 -1.078,-0.119 -2.141,-0.293 -3.184,-0.518 v -27.01 l 15.378,0.029 c 2.723,0.086 4.913,2.258 4.913,4.934 0,2.73 -2.276,4.951 -5.075,4.951 -2.171,0 -4.102,-1.346 -4.804,-3.348 -0.725,-2.063 -2.985,-3.148 -5.048,-2.424 -2.063,0.725 -3.148,2.982 -2.426,5.049 1.814,5.17 6.748,8.643 12.277,8.643 7.166,0 12.995,-5.775 12.995,-12.871 0,-3.455 -1.382,-6.596 -3.626,-8.91 2.244,-2.314 3.626,-5.455 3.626,-8.91 0,-7.096 -5.829,-12.869 -12.995,-12.869 -5.529,0 -10.463,3.473 -12.277,8.643 -0.152,0.434 -0.224,0.877 -0.224,1.311 -10e-4,1.635 1.02,3.166 2.649,3.738 2.063,0.723 4.323,-0.363 5.048,-2.426 0.702,-2.002 2.633,-3.346 4.804,-3.346 2.799,0 5.075,2.221 5.075,4.949 0,2.73 -2.276,4.951 -5.075,4.951 v 0.016 l -15.216,-0.029 v -27.002 c 1.043,-0.225 2.105,-0.398 3.184,-0.517 1.151,0.101 5.831,0.101 6.982,0 15.833,1.744 28.19,15.196 28.19,31.484 z"
     id="path7"
     style="fill:#000000;fill-opacity:1;stroke:#010302" /><path
     d="m 426.75308,183.1145 c 0,16.287 -12.357,29.738 -28.189,31.482 -1.151,-0.102 -5.831,-0.102 -6.982,0 -1.078,-0.119 -2.141,-0.293 -3.184,-0.518 v -27.01 l 15.378,0.029 c 2.723,0.086 4.913,2.258 4.913,4.934 0,2.73 -2.276,4.951 -5.075,4.951 -2.171,0 -4.102,-1.346 -4.804,-3.348 -0.725,-2.063 -2.985,-3.148 -5.048,-2.424 -2.063,0.725 -3.148,2.982 -2.426,5.049 1.814,5.17 6.748,8.643 12.277,8.643 7.166,0 12.995,-5.775 12.995,-12.871 0,-3.455 -1.382,-6.596 -3.626,-8.91 2.244,-2.314 3.626,-5.455 3.626,-8.91 0,-7.096 -5.829,-12.869 -12.995,-12.869 -5.529,0 -10.463,3.473 -12.277,8.643 -0.152,0.434 -0.224,0.877 -0.224,1.311 -10e-4,1.635 1.02,3.166 2.649,3.738 2.063,0.723 4.323,-0.363 5.048,-2.426 0.702,-2.002 2.633,-3.346 4.804,-3.346 2.799,0 5.075,2.221 5.075,4.949 0,2.73 -2.276,4.951 -5.075,4.951 v 0.016 l -15.216,-0.029 v -27.002 c 1.043,-0.225 2.104,-0.398 3.181,-0.517 1.152,0.102 5.836,0.102 6.988,0 15.831,1.745 28.187,15.197 28.187,31.484 z"
     id="path9"
     style="fill:#000000;fill-opacity:1;stroke:#010302" /><path
     d="m 426.75308,112.1945 c 0,16.287 -12.357,29.738 -28.189,31.482 -1.151,-0.102 -5.831,-0.102 -6.982,0 -1.078,-0.119 -2.141,-0.293 -3.184,-0.518 v -27.01 l 15.378,0.029 c 2.723,0.086 4.913,2.258 4.913,4.934 0,2.73 -2.276,4.951 -5.075,4.951 -2.171,0 -4.102,-1.346 -4.804,-3.348 -0.725,-2.063 -2.985,-3.148 -5.048,-2.424 -2.063,0.725 -3.148,2.982 -2.426,5.049 1.814,5.17 6.748,8.643 12.277,8.643 7.166,0 12.995,-5.775 12.995,-12.871 0,-3.455 -1.382,-6.596 -3.626,-8.91 2.244,-2.314 3.626,-5.455 3.626,-8.91 0,-7.096 -5.829,-12.869 -12.995,-12.869 -5.529,0 -10.463,3.473 -12.277,8.643 -0.152,0.434 -0.224,0.877 -0.224,1.311 -10e-4,1.635 1.02,3.166 2.649,3.738 2.063,0.723 4.323,-0.363 5.048,-2.426 0.702,-2.002 2.633,-3.346 4.804,-3.346 2.799,0 5.075,2.221 5.075,4.949 0,2.73 -2.276,4.951 -5.075,4.951 v 0.016 l -15.216,-0.029 v -27.002 c 1.068,-0.229 2.154,-0.407 3.259,-0.526 2.273,0.194 4.559,0.194 6.832,0 15.868,1.71 28.265,15.178 28.265,31.493 z"
     id="path11"
     style="fill:#000000;fill-opacity:1;stroke:#010302" /><path
     d="m 372.67108,18.8735 c 12.353,-12.353 32.451,-12.353 44.803,-0.001 12.352,12.352 12.352,32.45 0,44.803 -5.312,5.311 -12.055,8.332 -18.998,9.076 -1.123,-0.097 -5.684,-0.097 -6.807,0 -1.098,-0.118 -2.188,-0.295 -3.271,-0.527 v -18.79 l 11.917,-11.885 c 1.947,-1.828 4.97,-1.84 6.824,0.014 1.892,1.892 1.853,5.008 -0.087,6.947 -1.504,1.504 -3.775,1.91 -5.647,1.01 -1.932,-0.928 -4.251,-0.113 -5.179,1.818 -0.927,1.932 -0.114,4.248 1.818,5.18 4.84,2.324 10.665,1.313 14.496,-2.52 4.966,-4.966 5.004,-13.006 0.087,-17.924 -2.395,-2.395 -5.528,-3.613 -8.687,-3.661 -0.049,-3.159 -1.269,-6.294 -3.662,-8.688 -4.918,-4.918 -12.958,-4.879 -17.924,0.086 -3.832,3.832 -4.844,9.657 -2.52,14.497 0.195,0.406 0.453,0.764 0.754,1.064 1.133,1.133 2.9,1.486 4.426,0.754 1.932,-0.928 2.745,-3.247 1.818,-5.178 -0.9,-1.875 -0.495,-4.145 1.01,-5.648 1.938,-1.939 5.056,-1.979 6.947,-0.087 1.891,1.892 1.853,5.008 -0.087,6.947 l 0.011,0.011 -11.545,11.516 h -19.104 c -2.07,-10.091 0.795,-21.001 8.607,-28.814 z"
     id="path13"
     style="fill:#000000;fill-opacity:1;stroke:#010302" /><path
     d="m 323.55308,8.4135 c 17.468,0 31.68,14.211 31.68,31.68 0,2.618 -0.325,5.16 -0.927,7.595 h -26.787 l -0.03,-16.134 h 0.016 c 0,-2.799 2.221,-5.076 4.95,-5.076 2.729,0 4.95,2.277 4.95,5.076 0,2.17 -1.345,4.101 -3.347,4.803 -2.063,0.725 -3.148,2.984 -2.425,5.049 0.572,1.629 2.103,2.649 3.737,2.648 0.435,0 0.878,-0.071 1.312,-0.224 5.17,-1.815 8.643,-6.749 8.643,-12.276 0,-7.167 -5.773,-12.996 -12.87,-12.996 -3.454,0 -6.596,1.381 -8.91,3.626 -2.314,-2.245 -5.455,-3.626 -8.91,-3.626 -7.096,0 -12.87,5.83 -12.87,12.996 0,5.527 3.473,10.461 8.643,12.276 2.065,0.722 4.323,-0.362 5.049,-2.425 0.724,-2.064 -0.362,-4.324 -2.425,-5.049 -2.001,-0.702 -3.347,-2.633 -3.347,-4.803 0,-2.799 2.221,-5.076 4.95,-5.076 2.676,0 4.848,2.19 4.934,4.912 l 0.03,16.298 h -26.799 c -0.33,-1.337 -0.576,-2.706 -0.73,-4.103 0.102,-1.152 0.102,-5.832 0,-6.982 1.744,-15.832 15.195,-28.189 31.483,-28.189 z"
     id="path15"
     style="fill:#000000;fill-opacity:1;stroke:#010302" /><path
     d="m 252.63308,8.4135 c 16.286,0 29.737,12.356 31.483,28.187 -0.102,1.151 -0.102,5.835 0,6.987 -0.154,1.396 -0.4,2.765 -0.73,4.101 h -26.787 l -0.03,-16.134 h 0.016 c 0,-2.799 2.221,-5.076 4.95,-5.076 2.729,0 4.95,2.277 4.95,5.076 0,2.17 -1.345,4.101 -3.347,4.803 -2.063,0.725 -3.148,2.984 -2.425,5.049 0.572,1.629 2.103,2.649 3.737,2.648 0.435,0 0.878,-0.071 1.312,-0.224 5.17,-1.815 8.643,-6.749 8.643,-12.276 0,-7.167 -5.773,-12.996 -12.87,-12.996 -3.454,0 -6.596,1.381 -8.91,3.626 -2.314,-2.245 -5.455,-3.626 -8.91,-3.626 -7.096,0 -12.87,5.83 -12.87,12.996 0,5.527 3.473,10.461 8.643,12.276 2.065,0.722 4.323,-0.362 5.049,-2.425 0.724,-2.064 -0.362,-4.324 -2.425,-5.049 -2.001,-0.702 -3.347,-2.633 -3.347,-4.803 0,-2.799 2.221,-5.076 4.95,-5.076 2.676,0 4.848,2.19 4.934,4.912 l 0.03,16.298 h -26.799 c -0.267,-1.081 -0.701,-3.835 -0.73,-4.103 0.083,-0.934 0.102,-5.832 0,-6.982 1.744,-15.832 15.195,-28.189 31.483,-28.189 z"
     id="path17"
     style="fill:#000000;fill-opacity:1;stroke:#010302" /><path
     d="m 181.71308,8.4135 c 16.286,0 29.737,12.356 31.483,28.187 -0.102,1.151 -0.102,5.835 0,6.987 -0.154,1.396 -0.4,2.765 -0.73,4.101 h -26.787 l -0.03,-16.134 h 0.016 c 0,-2.799 2.221,-5.076 4.95,-5.076 2.729,0 4.95,2.277 4.95,5.076 0,2.17 -1.345,4.101 -3.347,4.803 -2.063,0.725 -3.148,2.984 -2.425,5.049 0.572,1.629 2.103,2.649 3.737,2.648 0.435,0 0.878,-0.071 1.312,-0.224 5.17,-1.815 8.643,-6.749 8.643,-12.276 0,-7.167 -5.773,-12.996 -12.87,-12.996 -3.454,0 -6.596,1.381 -8.91,3.626 -2.314,-2.245 -5.455,-3.626 -8.91,-3.626 -7.096,0 -12.87,5.83 -12.87,12.996 0,5.527 3.473,10.461 8.643,12.276 2.065,0.722 4.323,-0.362 5.049,-2.425 0.724,-2.064 -0.362,-4.324 -2.425,-5.049 -2.001,-0.702 -3.347,-2.633 -3.347,-4.803 0,-2.799 2.221,-5.076 4.95,-5.076 2.676,0 4.848,2.19 4.934,4.912 l 0.03,16.298 h -26.799 c -0.33,-1.337 -0.576,-2.706 -0.73,-4.103 0.102,-1.152 0.102,-5.832 0,-6.982 1.744,-15.832 15.195,-28.189 31.483,-28.189 z"
     id="path19"
     style="fill:#000000;fill-opacity:1;stroke:#010302" /><path
     d="m 110.79308,8.4135 c 16.286,0 29.737,12.356 31.483,28.187 -0.102,1.151 -0.102,5.835 0,6.987 -0.154,1.396 -0.4,2.765 -0.73,4.101 h -26.787 l -0.03,-16.134 h 0.016 c 0,-2.799 2.221,-5.076 4.95,-5.076 2.729,0 4.95,2.277 4.95,5.076 0,2.17 -1.345,4.101 -3.347,4.803 -2.063,0.725 -3.148,2.984 -2.425,5.049 0.572,1.629 2.103,2.649 3.737,2.648 0.435,0 0.878,-0.071 1.312,-0.224 5.17,-1.815 8.643,-6.749 8.643,-12.276 0,-7.167 -5.773,-12.996 -12.87,-12.996 -3.454,0 -6.596,1.381 -8.91,3.626 -2.314,-2.245 -5.455,-3.626 -8.91,-3.626 -7.096002,0 -12.870002,5.83 -12.870002,12.996 0,5.527 3.473,10.461 8.643,12.276 2.065,0.722 4.323002,-0.362 5.049002,-2.425 0.724,-2.064 -0.362,-4.324 -2.425,-5.049 -2.001002,-0.702 -3.347002,-2.633 -3.347002,-4.803 0,-2.799 2.221,-5.076 4.950002,-5.076 2.676,0 4.848,2.19 4.934,4.912 l 0.03,16.298 H 80.040078 c -0.223,-0.903 -0.413,-1.819 -0.557,-2.751 0.263,-2.854 0.21,-5.729 -0.143,-8.575 1.854,-15.716 15.249,-27.948 31.453002,-27.948 z"
     id="path21"
     style="fill:#000000;fill-opacity:1;stroke:#010302" /><path
     d="m 17.673078,63.6745 c -12.353,-12.351 -12.353,-32.451 -0.001,-44.802 12.352,-12.352 32.45,-12.352 44.803,0 4.948,4.948 7.909,11.14 8.893,17.579 -0.11,1.2 -0.059,6.95 0.143,8.564 -0.105,0.896 -0.247,1.786 -0.429,2.672 h -19.1 l -11.627,-11.661 c -1.828,-1.946 -1.84,-4.97 0.014,-6.823 1.892,-1.892 5.008,-1.853 6.948,0.086 1.504,1.504 1.91,3.775 1.01,5.648 -0.927,1.931 -0.114,4.25 1.817,5.179 1.932,0.926 4.25,0.113 5.18,-1.818 2.326,-4.84 1.313,-10.666 -2.519,-14.496 -4.966,-4.966 -13.006,-5.004 -17.923,-0.087 -2.395,2.395 -3.614,5.529 -3.662,8.687 -3.159,0.049 -6.294,1.268 -8.688,3.662 -4.917,4.918 -4.879,12.957 0.087,17.924 3.832,3.832 9.656,4.844 14.497,2.52 0.406,-0.195 0.763,-0.453 1.063,-0.755 1.134,-1.132 1.487,-2.899 0.754,-4.425 -0.928,-1.932 -3.247,-2.745 -5.179,-1.818 -1.874,0.9 -4.144,0.494 -5.647,-1.01 -1.94,-1.939 -1.978,-5.057 -0.087,-6.947 1.891,-1.89 5.008,-1.854 6.947,0.087 l 0.011,-0.011 11.497,11.528 v 19.127 c -0.819,0.168 -1.643,0.301 -2.471,0.403 -1.287,-0.127 -6.551,-0.126 -7.846,0.001 -6.761,-0.834 -13.305,-3.834 -18.485,-9.014 z"
     id="path23"
     style="fill:#000000;fill-opacity:1;stroke:#010302" /><path
     d="m 8.412078,112.0925 c 0,-16.145 12.142,-29.497 27.771,-31.43 2.593,0.254 5.207,0.252 7.8,-0.003 0.84,0.104 1.673,0.23 2.491,0.398 v 27.077 l -15.085,-0.029 c -2.723,-0.086 -4.913,-2.258 -4.913,-4.934 0,-2.729 2.276,-4.949 5.075,-4.949 2.171,0 4.102,1.346 4.804,3.346 0.725,2.063 2.985,3.148 5.048,2.426 2.063,-0.727 3.148,-2.984 2.426,-5.049 -1.814,-5.17 -6.748,-8.643 -12.277,-8.643 -7.166,0 -12.995,5.773 -12.995,12.869 0,3.455 1.382,6.596 3.626,8.91 -2.244,2.314 -3.626,5.457 -3.626,8.91 0,7.098 5.829,12.871 12.995,12.871 5.529,0 10.463,-3.473 12.277,-8.643 0.152,-0.434 0.224,-0.877 0.224,-1.313 10e-4,-1.635 -1.02,-3.164 -2.649,-3.736 -2.063,-0.725 -4.323,0.361 -5.048,2.424 -0.702,2.002 -2.633,3.348 -4.804,3.348 -2.799,0 -5.075,-2.221 -5.075,-4.951 0,-2.729 2.276,-4.949 5.075,-4.949 v -0.016 l 14.923,0.027 v 27.07 c -0.949,0.195 -1.914,0.342 -2.891,0.449 -1.151,-0.102 -5.831,-0.102 -6.982,0 -15.832,-1.741 -28.19,-15.193 -28.19,-31.48 z"
     id="path25"
     style="fill:#000000;fill-opacity:1;stroke:#010302" /><path
     d="m 8.412078,183.0125 c 0,-16.288 12.358,-29.739 28.189,-31.483 1.151,0.101 5.831,0.101 6.982,0 0.977,0.107 1.942,0.255 2.891,0.449 v 27.077 l -15.085,-0.029 c -2.723,-0.086 -4.913,-2.258 -4.913,-4.934 0,-2.729 2.276,-4.949 5.075,-4.949 2.171,0 4.102,1.346 4.804,3.346 0.725,2.063 2.985,3.148 5.048,2.426 2.063,-0.727 3.148,-2.984 2.426,-5.049 -1.814,-5.17 -6.748,-8.643 -12.277,-8.643 -7.166,0 -12.995,5.773 -12.995,12.869 0,3.455 1.382,6.596 3.626,8.91 -2.244,2.314 -3.626,5.457 -3.626,8.91 0,7.098 5.829,12.871 12.995,12.871 5.529,0 10.463,-3.473 12.277,-8.643 0.152,-0.434 0.224,-0.877 0.224,-1.313 10e-4,-1.635 -1.02,-3.164 -2.649,-3.736 -2.063,-0.725 -4.323,0.361 -5.048,2.424 -0.702,2.002 -2.633,3.348 -4.804,3.348 -2.799,0 -5.075,-2.221 -5.075,-4.951 0,-2.729 2.276,-4.949 5.075,-4.949 v -0.016 l 14.923,0.027 v 27.07 c -0.949,0.195 -1.914,0.342 -2.891,0.449 -1.151,-0.102 -5.831,-0.102 -6.982,0 -15.832,-1.743 -28.19,-15.194 -28.19,-31.481 z"
     id="path27"
     style="fill:#000000;fill-opacity:1;stroke:#010302" /><path
     d="m 8.412078,253.9325 c 0,-16.288 12.358,-29.739 28.189,-31.483 1.151,0.101 5.831,0.101 6.982,0 0.977,0.107 1.942,0.255 2.891,0.449 v 27.077 l -15.085,-0.029 c -2.723,-0.086 -4.913,-2.258 -4.913,-4.934 0,-2.729 2.276,-4.949 5.075,-4.949 2.171,0 4.102,1.346 4.804,3.346 0.725,2.063 2.985,3.148 5.048,2.426 2.063,-0.727 3.148,-2.984 2.426,-5.049 -1.814,-5.17 -6.748,-8.643 -12.277,-8.643 -7.166,0 -12.995,5.773 -12.995,12.869 0,3.455 1.382,6.596 3.626,8.91 -2.244,2.314 -3.626,5.457 -3.626,8.91 0,7.098 5.829,12.871 12.995,12.871 5.529,0 10.463,-3.473 12.277,-8.643 0.152,-0.434 0.224,-0.877 0.224,-1.313 10e-4,-1.635 -1.02,-3.164 -2.649,-3.736 -2.063,-0.725 -4.323,0.361 -5.048,2.424 -0.702,2.002 -2.633,3.348 -4.804,3.348 -2.799,0 -5.075,-2.221 -5.075,-4.951 0,-2.729 2.276,-4.949 5.075,-4.949 v -0.016 l 14.923,0.027 v 27.07 c -0.949,0.195 -1.914,0.342 -2.891,0.449 -1.151,-0.102 -5.831,-0.102 -6.982,0 -15.832,-1.743 -28.19,-15.194 -28.19,-31.481 z"
     id="path29"
     style="fill:#000000;fill-opacity:1;stroke:#010302" /><path
     d="m 8.412078,324.8525 c 0,-16.287 12.358,-29.74 28.189,-31.484 1.151,0.102 5.831,0.102 6.982,0 0.977,0.109 1.942,0.256 2.891,0.451 v 27.076 l -15.085,-0.029 c -2.723,-0.086 -4.913,-2.258 -4.913,-4.934 0,-2.729 2.276,-4.949 5.075,-4.949 2.171,0 4.102,1.346 4.804,3.346 0.725,2.063 2.985,3.148 5.048,2.426 2.063,-0.727 3.148,-2.984 2.426,-5.049 -1.814,-5.17 -6.748,-8.643 -12.277,-8.643 -7.166,0 -12.995,5.773 -12.995,12.869 0,3.455 1.382,6.596 3.626,8.91 -2.244,2.314 -3.626,5.457 -3.626,8.91 0,7.098 5.829,12.871 12.995,12.871 5.529,0 10.463,-3.473 12.277,-8.643 0.152,-0.434 0.224,-0.877 0.224,-1.313 10e-4,-1.635 -1.02,-3.164 -2.649,-3.736 -2.063,-0.725 -4.323,0.361 -5.048,2.424 -0.702,2.002 -2.633,3.348 -4.804,3.348 -2.799,0 -5.075,-2.221 -5.075,-4.951 0,-2.729 2.276,-4.949 5.075,-4.949 v -0.016 l 14.923,0.027 v 27.07 c -0.973,0.199 -1.963,0.352 -2.966,0.459 -2.273,-0.195 -4.56,-0.195 -6.834,0 -15.867,-1.71 -28.263,-15.178 -28.263,-31.491 z"
     id="path31"
     style="fill:#000000;fill-opacity:1;stroke:#010302" /><path
     d="m 62.494078,418.1725 c -12.353,12.352 -32.451,12.352 -44.803,0 -12.352,-12.352 -12.352,-32.449 0,-44.803 5.311,-5.311 12.054,-8.33 18.997,-9.074 1.124,0.096 5.687,0.096 6.81,0 0.998,0.107 1.991,0.26 2.977,0.461 v 19.146 l -11.625,11.595 c -1.946,1.826 -4.97,1.84 -6.823,-0.016 -1.892,-1.891 -1.853,-5.006 0.086,-6.947 1.504,-1.504 3.775,-1.908 5.648,-1.01 1.931,0.928 4.25,0.113 5.179,-1.816 0.926,-1.934 0.114,-4.25 -1.818,-5.182 -4.84,-2.324 -10.666,-1.311 -14.497,2.52 -4.966,4.967 -5.004,13.008 -0.087,17.924 2.395,2.395 5.529,3.613 8.687,3.662 0.049,3.16 1.268,6.293 3.662,8.688 4.918,4.918 12.958,4.879 17.924,-0.086 3.832,-3.832 4.843,-9.658 2.519,-14.498 -0.195,-0.406 -0.453,-0.762 -0.754,-1.064 -1.132,-1.133 -2.9,-1.486 -4.425,-0.752 -1.931,0.928 -2.745,3.246 -1.818,5.178 0.9,1.873 0.495,4.143 -1.01,5.648 -1.939,1.938 -5.056,1.977 -6.947,0.086 -1.891,-1.893 -1.853,-5.008 0.087,-6.947 l -0.012,-0.012 11.294,-11.262 h 19.411 c 1.971,10.018 -0.914,20.813 -8.662,28.561 z"
     id="path33"
     style="fill:#000000;fill-opacity:1;stroke:#010302" /><path
     d="m 111.61208,428.6315 c -17.468002,0 -31.680002,-14.211 -31.680002,-31.68 0,-2.527 0.306,-4.984 0.868,-7.342 h 26.846002 l 0.03,15.883 h -0.016 c 0,2.799 -2.221,5.074 -4.95,5.074 -2.729002,0 -4.950002,-2.275 -4.950002,-5.074 0,-2.172 1.345,-4.102 3.347002,-4.805 2.063,-0.725 3.148,-2.984 2.425,-5.047 -0.572,-1.631 -2.103,-2.65 -3.737002,-2.65 -0.435,0 -0.878,0.072 -1.312,0.225 -5.17,1.814 -8.643,6.748 -8.643,12.277 0,7.166 5.773,12.994 12.870002,12.994 3.454,0 6.596,-1.381 8.91,-3.625 2.314,2.244 5.455,3.625 8.91,3.625 7.096,0 12.87,-5.828 12.87,-12.994 0,-5.529 -3.473,-10.463 -8.643,-12.277 -2.065,-0.723 -4.323,0.361 -5.049,2.426 -0.724,2.063 0.362,4.322 2.425,5.047 2.001,0.703 3.347,2.633 3.347,4.805 0,2.799 -2.221,5.074 -4.95,5.074 -2.676,0 -4.848,-2.189 -4.934,-4.912 l -0.031,-16.045 h 26.857 c 0.3,1.256 0.527,2.541 0.671,3.852 -0.101,1.15 -0.101,5.83 0,6.982 -1.742,15.83 -15.193,28.187 -31.481,28.187 z"
     id="path35"
     style="fill:#000000;fill-opacity:1;stroke:#010302" /><path
     d="m 182.53208,428.6315 c -16.287,0 -29.738,-12.355 -31.482,-28.186 0.102,-1.152 0.102,-5.836 0,-6.988 0.145,-1.309 0.371,-2.592 0.671,-3.848 h 26.846 l 0.03,15.883 h -0.016 c 0,2.799 -2.221,5.074 -4.95,5.074 -2.729,0 -4.95,-2.275 -4.95,-5.074 0,-2.172 1.345,-4.102 3.347,-4.805 2.063,-0.725 3.148,-2.984 2.425,-5.047 -0.572,-1.631 -2.103,-2.65 -3.737,-2.65 -0.435,0 -0.878,0.072 -1.312,0.225 -5.17,1.814 -8.643,6.748 -8.643,12.277 0,7.166 5.773,12.994 12.87,12.994 3.454,0 6.596,-1.381 8.91,-3.625 2.314,2.244 5.455,3.625 8.91,3.625 7.096,0 12.87,-5.828 12.87,-12.994 0,-5.529 -3.473,-10.463 -8.643,-12.277 -2.065,-0.723 -4.323,0.361 -5.049,2.426 -0.724,2.063 0.362,4.322 2.425,5.047 2.001,0.703 3.347,2.633 3.347,4.805 0,2.799 -2.221,5.074 -4.95,5.074 -2.676,0 -4.848,-2.189 -4.934,-4.912 l -0.031,-16.045 h 26.857 c 0.3,1.256 0.527,2.541 0.671,3.852 -0.101,1.15 -0.101,5.83 0,6.982 -1.743,15.83 -15.195,28.187 -31.482,28.187 z"
     id="path37"
     style="fill:#000000;fill-opacity:1;stroke:#010302" /><path
     d="m 253.45208,428.6315 c -16.287,0 -29.738,-12.355 -31.482,-28.186 0.102,-1.152 0.102,-5.836 0,-6.988 0.145,-1.309 0.371,-2.592 0.671,-3.848 h 26.846 l 0.03,15.883 h -0.016 c 0,2.799 -2.221,5.074 -4.95,5.074 -2.729,0 -4.95,-2.275 -4.95,-5.074 0,-2.172 1.345,-4.102 3.347,-4.805 2.063,-0.725 3.148,-2.984 2.425,-5.047 -0.572,-1.631 -2.103,-2.65 -3.737,-2.65 -0.435,0 -0.878,0.072 -1.312,0.225 -5.17,1.814 -8.643,6.748 -8.643,12.277 0,7.166 5.773,12.994 12.87,12.994 3.454,0 6.596,-1.381 8.91,-3.625 2.314,2.244 5.455,3.625 8.91,3.625 7.096,0 12.87,-5.828 12.87,-12.994 0,-5.529 -3.473,-10.463 -8.643,-12.277 -2.065,-0.723 -4.323,0.361 -5.049,2.426 -0.724,2.063 0.362,4.322 2.425,5.047 2.001,0.703 3.347,2.633 3.347,4.805 0,2.799 -2.221,5.074 -4.95,5.074 -2.676,0 -4.848,-2.189 -4.934,-4.912 l -0.031,-16.045 h 26.857 c 0.3,1.256 0.527,2.541 0.671,3.852 -0.101,1.15 -0.101,5.83 0,6.982 -1.743,15.83 -15.195,28.187 -31.482,28.187 z"
     id="path39"
     style="fill:#000000;fill-opacity:1;stroke:#010302" /><path
     d="m 324.37208,428.6315 c -16.287,0 -29.738,-12.355 -31.482,-28.186 0.102,-1.152 0.102,-5.836 0,-6.988 0.145,-1.309 0.371,-2.592 0.671,-3.848 h 26.846 l 0.03,15.883 h -0.016 c 0,2.799 -2.221,5.074 -4.95,5.074 -2.729,0 -4.95,-2.275 -4.95,-5.074 0,-2.172 1.345,-4.102 3.347,-4.805 2.063,-0.725 3.148,-2.984 2.425,-5.047 -0.572,-1.631 -2.103,-2.65 -3.737,-2.65 -0.435,0 -0.878,0.072 -1.312,0.225 -5.17,1.814 -8.643,6.748 -8.643,12.277 0,7.166 5.773,12.994 12.87,12.994 3.454,0 6.596,-1.381 8.91,-3.625 2.314,2.244 5.455,3.625 8.91,3.625 7.096,0 12.87,-5.828 12.87,-12.994 0,-5.529 -3.473,-10.463 -8.643,-12.277 -2.065,-0.723 -4.323,0.361 -5.049,2.426 -0.724,2.063 0.362,4.322 2.425,5.047 2.001,0.703 3.347,2.633 3.347,4.805 0,2.799 -2.221,5.074 -4.95,5.074 -2.676,0 -4.848,-2.189 -4.934,-4.912 l -0.031,-16.045 h 26.857 c 0.195,0.822 0.367,1.652 0.498,2.498 -0.263,2.855 -0.21,5.73 0.143,8.576 -1.853,15.715 -15.247,27.947 -31.452,27.947 z"
     id="path41"
     style="fill:#000000;fill-opacity:1;stroke:#010302" /><path
     d="m 417.49308,418.1725 c -12.352,12.352 -32.45,12.352 -44.803,0 -4.948,-4.947 -7.908,-11.139 -8.893,-17.576 0.11,-1.201 0.059,-6.953 -0.143,-8.568 0.096,-0.811 0.216,-1.617 0.374,-2.418 h 19.402 l 11.378,11.408 c 1.828,1.947 1.841,4.971 -0.013,6.824 -1.893,1.893 -5.009,1.854 -6.948,-0.086 -1.504,-1.504 -1.909,-3.775 -1.01,-5.648 0.928,-1.932 0.114,-4.25 -1.817,-5.178 -1.933,-0.928 -4.249,-0.115 -5.18,1.818 -2.325,4.84 -1.313,10.664 2.519,14.496 4.967,4.965 13.007,5.004 17.924,0.086 2.395,-2.395 3.613,-5.529 3.661,-8.688 3.159,-0.049 6.295,-1.268 8.688,-3.66 4.917,-4.918 4.879,-12.959 -0.087,-17.924 -3.832,-3.832 -9.657,-4.844 -14.497,-2.52 -0.406,0.195 -0.763,0.453 -1.063,0.754 -1.134,1.133 -1.487,2.9 -0.754,4.426 0.928,1.932 3.247,2.744 5.178,1.818 1.874,-0.9 4.145,-0.496 5.647,1.01 1.94,1.938 1.979,5.055 0.088,6.947 -1.892,1.891 -5.009,1.852 -6.947,-0.088 l -0.012,0.012 -11.789,-11.822 v -18.771 c 0.915,-0.195 1.837,-0.352 2.763,-0.467 1.288,0.127 6.552,0.127 7.847,-0.002 6.762,0.836 13.305,3.834 18.485,9.014 12.354,12.354 12.354,32.452 0.002,44.803 z"
     id="path43"
     style="fill:#000000;fill-opacity:1;stroke:#010302" /><g
     inkscape:groupmode="layer"
     id="layer1"
     inkscape:label="Opaque"
     style="display:inline" /><g
     inkscape:groupmode="layer"
     id="layer4"
     inkscape:label="Monkey"><rect
       y="52.739746"
       x="52.690083"
       height="331.58301"
       width="329.78586"
       id="rect4066"
       style="fill:url(#Checkerboard);stroke:none;stroke-width:5.02766131999999999;stroke-miterlimit:4;stroke-opacity:1;stroke-dasharray:none;stroke-dashoffset:0;fill-opacity:1.0" /><g
       transform="matrix(1.0951141,0,0,1.0951141,-173.41928,-251.89388)"
       id="layer1-2"><path
         id="path4183"
         d="m 328.90902,283.74078 c -29.32375,0 -54.14337,20.04337 -62.3071,47.62177 -17.68809,1.09788 -26.47114,16.72157 -26.42422,36.53035 0.0469,18.40124 7.75085,34.17507 22.96167,37.24351 -9.83401,6.9251 -20.99111,15.85828 -32.40157,26.13333 -31.26616,28.1508 -29.68033,38.07865 -24.6601,43.95278 5.02022,5.87413 15.37972,7.39428 46.65526,-20.76591 3.72529,-3.35933 7.25352,-6.75619 10.5847,-10.11552 v 61.22799 c -4.6355,5.44249 -9.34607,11.24155 -14.0191,17.38781 -27.02477,35.52631 -22.00454,44.66594 -14.30999,48.97301 7.69455,4.31646 20.15597,2.9746 47.18074,-32.55171 8.73613,-11.48552 15.77383,-22.68954 21.02865,-32.77691 h 53.30823 c 5.33927,10.51901 12.63971,22.37988 21.87317,34.51288 27.02477,35.52631 39.49557,36.85878 47.18074,32.54232 7.69455,-4.30707 12.72416,-13.43731 -14.30999,-48.96362 -5.3205,-7.00017 -10.67854,-13.5593 -15.92397,-19.62111 v -9.56189 c 39.33605,-6.38085 60.44915,-9.39298 77.94957,-18.7672 10.94128,-5.85536 21.02865,-15.64246 28.2071,-27.76607 7.17845,-12.12361 11.42922,-26.96847 8.26695,-42.1699 -2.89953,-13.9628 -11.69196,-23.21502 -17.735,-30.20581 -3.03091,-3.4907 -5.42372,-6.48406 -6.63421,-8.70798 -1.21048,-2.21453 -1.38877,-3.23734 -1.1448,-4.77625 0.79761,-4.97331 5.84599,-13.53115 11.14772,-19.99645 5.30173,-6.4653 10.26566,-10.94128 10.26566,-10.94128 3.19042,-2.79631 4.32584,-7.27229 2.87138,-11.26032 -1.45446,-3.98803 -5.19852,-6.66236 -9.4399,-6.74681 -2.67433,-0.0469 -5.2642,0.93836 -7.21599,2.75878 0,0 -6.03366,5.40495 -12.37697,13.13704 -6.33393,7.73209 -13.59684,17.64117 -15.53924,29.82108 -1.06035,6.64359 0.75069,12.97752 3.39686,17.82884 2.65556,4.86071 5.97736,8.67983 9.12086,12.32067 6.28701,7.27229 11.62628,13.53115 13.16519,20.96296 1.85796,8.89565 -0.59116,18.66398 -5.8366,27.50333 -5.23605,8.84874 -13.27779,16.40254 -20.23104,20.11844 -12.38635,6.63421 -31.17232,9.99353 -68.23754,16.03657 v -38.61351 c 6.78435,1.44507 13.99095,2.78693 21.49783,3.95988 41.56935,6.49345 48.27862,-0.99466 49.67678,-8.59538 1.38877,-7.60072 -3.96926,-16.58082 -45.53861,-23.07427 -8.98949,-1.40754 -17.61302,-2.25207 -25.636,-2.67433 V 405.371 h -2.95583 c 15.9615,-2.49604 24.05955,-18.62645 24.10647,-37.4781 0.0375,-19.35836 -8.34202,-34.6724 -25.22312,-36.3896 -8.1262,-27.6347 -32.96459,-47.76252 -62.34464,-47.76252 z"
         inkscape:connector-curvature="0"
         style="fill:#ac9393;stroke:#000000;stroke-width:4;stroke-miterlimit:4;stroke-opacity:1;stroke-dasharray:none" /><path
         id="rect3258"
         d="m 296.12272,318.42256 c -17.70685,0 -32.11068,14.57273 -32.37342,32.6737 0,0.10322 0.009,0.21582 0,0.31904 v 54.63132 h 130.90122 v -54.95036 h -0.19705 c -0.27213,-18.0822 -14.995,-32.6737 -33.11473,-32.6737 -17.22829,0.009 -31.38814,13.19334 -32.9552,30.06506 -1.52953,-16.86233 -15.39849,-30.06506 -32.26082,-30.06506 z"
         inkscape:connector-curvature="0"
         style="fill:#f9f9f9" /><path
         id="path3262"
         d="m 287.67748,346.13233 c 0.41288,-3.38748 2.68371,-6.87817 6.89695,-8.59537 3.24672,-1.37939 7.54441,-1.0322 10.42518,0.685 4.09125,2.35528 5.8366,6.34331 5.51756,10.04045 -0.2909,3.46255 -2.46789,7.06585 -6.69989,8.90504 -3.22796,1.46384 -7.61949,1.19171 -10.57532,-0.50672 -3.86605,-2.13946 -5.63016,-5.77091 -5.64893,-9.20531"
         inkscape:connector-curvature="0" /><path
         id="path4150"
         d="m 348.45506,346.80795 c 0.42226,-3.38748 2.68371,-6.87818 6.90633,-8.60476 3.24673,-1.37 7.54441,-1.02281 10.42518,0.685 4.09125,2.36467 5.82722,6.3527 5.50817,10.04046 -0.28151,3.46255 -2.4585,7.07523 -6.6905,8.91442 -3.22796,1.46384 -7.61949,1.19171 -10.57532,-0.5161 -3.86604,-2.13946 -5.63954,-5.76153 -5.64893,-9.19593"
         inkscape:connector-curvature="0" /></g><rect
       style="fill:none;fill-opacity:1;stroke:#ffffff;stroke-width:5.00000004999999970;stroke-miterlimit:4;stroke-opacity:1;stroke-dasharray:none;stroke-dashoffset:0"
       id="rect4046"
       width="339.83463"
       height="341.68655"
       x="48.150951"
       y="49.076942"
       transform="translate(0,-2.1970333e-6)" /><rect
       style="fill:none;stroke:#000000;stroke-width:5.02766132;stroke-miterlimit:4;stroke-opacity:1;stroke-dasharray:none;stroke-dashoffset:0"
       id="rect4046-7"
       width="329.78586"
       height="331.58301"
       x="52.690083"
       y="52.739746" /></g><g
     inkscape:groupmode="layer"
     id="layer3"
     inkscape:label="Overlay"
     style="display:none"><rect
       style="fill:#ffffff;fill-opacity:0.8;stroke:none"
       id="rect3911"
       width="435"
       height="437"
       x="0.083010003"
       y="0.03125" /></g><g
     inkscape:groupmode="layer"
     id="layer2"
     inkscape:label="Labels"
     style="display:none"><text
       xml:space="preserve"
       style="font-size:40px;font-style:normal;font-weight:normal;line-height:125%;letter-spacing:0px;word-spacing:0px;fill:#000000;fill-opacity:1;stroke:none;font-family:Sans"
       x="7.1523018"
       y="31.888496"
       id="text3791"
       sodipodi:linespacing="125%"><tspan
         sodipodi:role="line"
         id="tspan3793"
         x="7.1523018"
         y="31.888496"
         style="font-size:28px;font-style:normal;font-variant:normal;font-weight:normal;font-stretch:normal;font-family:Sans;-inkscape-font-specification:Helvetica">c1</tspan></text>
<text
       xml:space="preserve"
       style="font-size:40px;font-style:normal;font-weight:normal;line-height:125%;letter-spacing:0px;word-spacing:0px;fill:#000000;fill-opacity:1;stroke:none;font-family:Sans"
       x="160.77637"
       y="36.623806"
       id="text3791-1"
       sodipodi:linespacing="125%"><tspan
         sodipodi:role="line"
         id="tspan3793-8"
         x="160.77637"
         y="36.623806"
         style="font-size:40px;font-style:normal;font-variant:normal;font-weight:normal;font-stretch:normal;font-family:Sans;-inkscape-font-specification:Helvetica">slice1</tspan></text>
<text
       sodipodi:linespacing="125%"
       id="text3824"
       y="233.72656"
       x="195.31738"
       style="font-size:40px;font-style:normal;font-weight:normal;line-height:125%;letter-spacing:0px;word-spacing:0px;fill:#000000;fill-opacity:1;stroke:none;font-family:Sans"
       xml:space="preserve"><tspan
         style="font-size:40px;font-style:normal;font-variant:normal;font-weight:normal;font-stretch:normal;font-family:Sans;-inkscape-font-specification:Helvetica"
         y="233.72656"
         x="195.31738"
         id="tspan3826"
         sodipodi:role="line">fill</tspan></text>
<text
       xml:space="preserve"
       style="font-size:40px;font-style:normal;font-weight:normal;line-height:125%;letter-spacing:0px;word-spacing:0px;fill:#000000;fill-opacity:1;stroke:none;font-family:Sans"
       x="397.9993"
       y="233.0918"
       id="text3828"
       sodipodi:linespacing="125%"><tspan
         sodipodi:role="line"
         id="tspan3830"
         x="397.9993"
         y="233.0918"
         style="font-size:40px;font-style:normal;font-variant:normal;font-weight:normal;font-stretch:normal;font-family:Sans;-inkscape-font-specification:Helvetica" /></text>
<text
       xml:space="preserve"
       style="font-size:40px;font-style:normal;font-weight:normal;line-height:125%;letter-spacing:0px;word-spacing:0px;fill:#000000;fill-opacity:1;stroke:none;font-family:Sans"
       x="160.53223"
       y="426.35791"
       id="text3836"
       sodipodi:linespacing="125%"><tspan
         sodipodi:role="line"
         id="tspan3838"
         x="160.53223"
         y="426.35791"
         style="font-size:40px;font-style:normal;font-variant:normal;font-weight:normal;font-stretch:normal;font-family:Sans;-inkscape-font-specification:Helvetica">slice3</tspan></text>
<text
       sodipodi:linespacing="125%"
       id="text3840"
       y="426.62158"
       x="397.9993"
       style="font-size:40px;font-style:normal;font-weight:normal;line-height:125%;letter-spacing:0px;word-spacing:0px;fill:#000000;fill-opacity:1;stroke:none;font-family:Sans"
       xml:space="preserve"><tspan
         style="font-size:40px;font-style:normal;font-variant:normal;font-weight:normal;font-stretch:normal;font-family:Sans;-inkscape-font-specification:Helvetica"
         y="426.62158"
         x="397.9993"
         id="tspan3842"
         sodipodi:role="line" /></text>
<text
       xml:space="preserve"
       style="font-size:40px;font-style:normal;font-weight:normal;line-height:125%;letter-spacing:0px;word-spacing:0px;fill:#000000;fill-opacity:1;stroke:none;font-family:Sans"
       x="395.83594"
       y="32.073067"
       id="text3791-7"
       sodipodi:linespacing="125%"><tspan
         sodipodi:role="line"
         id="tspan3793-1"
         x="395.83594"
         y="32.073067"
         style="font-size:28px;font-style:normal;font-variant:normal;font-weight:normal;font-stretch:normal;font-family:Sans;-inkscape-font-specification:Helvetica">c2</tspan></text>
<text
       xml:space="preserve"
       style="font-size:40px;font-style:normal;font-weight:normal;line-height:125%;letter-spacing:0px;word-spacing:0px;fill:#000000;fill-opacity:1;stroke:none;font-family:Sans"
       x="6.6464424"
       y="420.40149"
       id="text3791-14"
       sodipodi:linespacing="125%"><tspan
         sodipodi:role="line"
         id="tspan3793-4"
         x="6.6464424"
         y="420.40149"
         style="font-size:28px;font-style:normal;font-variant:normal;font-weight:normal;font-stretch:normal;font-family:Sans;-inkscape-font-specification:Helvetica">c4</tspan></text>
<text
       xml:space="preserve"
       style="font-size:40px;font-style:normal;font-weight:normal;line-height:125%;letter-spacing:0px;word-spacing:0px;fill:#000000;fill-opacity:1;stroke:none;font-family:Sans"
       x="395.55566"
       y="420.58606"
       id="text3791-8"
       sodipodi:linespacing="125%"><tspan
         sodipodi:role="line"
         id="tspan3793-88"
         x="395.55566"
         y="420.58606"
         style="font-size:28px;font-style:normal;font-variant:normal;font-weight:normal;font-stretch:normal;font-family:Sans;-inkscape-font-specification:Helvetica">c3</tspan></text>
<text
       sodipodi:linespacing="125%"
       id="text3883"
       y="-396.04443"
       x="161.88086"
       style="font-size:40px;font-style:normal;font-weight:normal;line-height:125%;letter-spacing:0px;word-spacing:0px;fill:#000000;fill-opacity:1;stroke:none;font-family:Sans"
       xml:space="preserve"
       transform="matrix(0,1,-1,0,0,0)"><tspan
         style="font-size:40px;font-style:normal;font-variant:normal;font-weight:normal;font-stretch:normal;font-family:Sans;-inkscape-font-specification:Helvetica"
         y="-396.04443"
         x="161.88086"
         id="tspan3885"
         sodipodi:role="line">slice2</tspan></text>
<text
       transform="matrix(0,-1,1,0,0,0)"
       xml:space="preserve"
       style="font-size:40px;font-style:normal;font-weight:normal;line-height:125%;letter-spacing:0px;word-spacing:0px;fill:#000000;fill-opacity:1;stroke:none;font-family:Sans"
       x="-276.06055"
       y="39.735043"
       id="text3899"
       sodipodi:linespacing="125%"><tspan
         sodipodi:role="line"
         id="tspan3901"
         x="-276.06055"
         y="39.735043"
         style="font-size:40px;font-style:normal;font-variant:normal;font-weight:normal;font-stretch:normal;font-family:Sans;-inkscape-font-specification:Helvetica">slice4</tspan></text>
<g
       transform="translate(-0.02226,0.47355792)"
       style="display:inline"
       id="g3820"><path
         inkscape:connector-curvature="0"
         id="path3776"
         d="m 0,48.150951 434.28456,0"
         style="fill:none;stroke:#000000;stroke-width:4;stroke-linecap:butt;stroke-linejoin:miter;stroke-miterlimit:4;stroke-opacity:1;stroke-dasharray:none" /><path
         style="fill:none;stroke:#000000;stroke-width:4;stroke-linecap:butt;stroke-linejoin:miter;stroke-miterlimit:4;stroke-opacity:1;stroke-dasharray:none"
         d="m 0.92597988,387.05959 434.28456012,0"
         id="path3778"
         inkscape:connector-curvature="0" /><path
         style="fill:none;stroke:#000000;stroke-width:4.02116871;stroke-linecap:butt;stroke-linejoin:miter;stroke-miterlimit:4;stroke-opacity:1;stroke-dasharray:none"
         d="m 48.465899,0.61103422 0,438.89331578"
         id="path3780"
         inkscape:connector-curvature="0" /><path
         inkscape:connector-curvature="0"
         id="path3782"
         d="m 386.74464,1.3974177 0,436.1280723"
         style="fill:none;stroke:#000000;stroke-width:4.00848103;stroke-linecap:butt;stroke-linejoin:miter;stroke-miterlimit:4;stroke-opacity:1;stroke-dasharray:none" /></g></g></svg>