<svg xmlns="http://www.w3.org/2000/svg" viewBox="0 0 311.54881 295.57847" version="1"><g id="monkey"><path d="M127.636 1.991c-29.324 0-54.143 20.043-62.307 47.622-17.688 1.098-26.471 16.722-26.424 36.53.047 18.401 7.751 34.175 22.962 37.244-9.834 6.925-20.991 15.858-32.402 26.133-31.266 28.151-29.68 38.079-24.66 43.953 5.02 5.874 15.38 7.394 46.655-20.766 3.725-3.359 7.254-6.756 10.585-10.116v61.228c-4.636 5.442-9.346 11.242-14.019 17.388-27.025 35.526-22.005 44.666-14.31 48.973 7.695 4.316 20.156 2.975 47.181-32.552 8.736-11.486 15.774-22.69 21.029-32.777h53.308c5.339 10.519 12.64 22.38 21.873 34.513 27.025 35.526 39.496 36.859 47.181 32.542 7.695-4.307 12.724-13.437-14.31-48.964-5.321-7-10.679-13.559-15.924-19.621v-9.562c39.336-6.381 60.449-9.393 77.95-18.767 10.941-5.855 21.029-15.642 28.207-27.766 7.178-12.124 11.429-26.968 8.267-42.17-2.9-13.963-11.692-23.215-17.735-30.206-3.031-3.491-5.424-6.484-6.634-8.708-1.21-2.215-1.389-3.237-1.145-4.776.798-4.973 5.846-13.531 11.148-19.996 5.302-6.465 10.266-10.941 10.266-10.941 3.19-2.796 4.326-7.272 2.871-11.26-1.454-3.988-5.199-6.662-9.44-6.747-2.674-.047-5.264.938-7.216 2.759 0 0-6.034 5.405-12.377 13.137-6.334 7.732-13.597 17.641-15.539 29.821-1.06 6.644.751 12.978 3.397 17.829 2.656 4.861 5.977 8.68 9.121 12.321 6.287 7.272 11.626 13.531 13.165 20.963 1.858 8.896-.591 18.664-5.837 27.503-5.236 8.849-13.278 16.403-20.231 20.118-12.386 6.634-31.172 9.994-68.238 16.037v-38.614c6.784 1.445 13.991 2.787 21.498 3.96 41.569 6.493 48.279-.995 49.677-8.595 1.389-7.601-3.969-16.581-45.539-23.074-8.989-1.408-17.613-2.252-25.636-2.674v-.291h-2.956c15.961-2.496 24.06-18.626 24.106-37.478.037-19.358-8.342-34.672-25.223-36.39-8.126-27.635-32.965-47.763-62.345-47.763z" fill="#a40" stroke="#000" stroke-width="4"/><path d="M94.85 36.673c-17.707 0-32.111 14.573-32.373 32.674v54.95h130.901v-54.95h-.197c-.272-18.082-14.995-32.674-33.115-32.674-17.228.009-31.388 13.193-32.955 30.065-1.53-16.862-15.398-30.065-32.261-30.065z" fill="#ffe6d5"/><path d="M86.404 64.382c.413-3.387 2.684-6.878 6.897-8.595 3.247-1.379 7.544-1.032 10.425.685 4.091 2.355 5.837 6.343 5.518 10.04-.291 3.463-2.468 7.066-6.7 8.905-3.228 1.464-7.619 1.192-10.575-.507-3.866-2.139-5.63-5.771-5.649-9.205"/><path d="M147.182 65.058c.422-3.387 2.684-6.878 6.906-8.605 3.247-1.37 7.544-1.023 10.425.685 4.091 2.365 5.827 6.353 5.508 10.04-.282 3.463-2.458 7.075-6.691 8.914-3.228 1.464-7.619 1.192-10.575-.516-3.866-2.139-5.64-5.762-5.649-9.196"/></g></svg>
