<?xml version="1.0" standalone="no"?>
<!DOCTYPE svg PUBLIC "-//W3C//DTD SVG 1.1//EN" "http://www.w3.org/Graphics/SVG/1.1/DTD/svg11.dtd" >
<svg xmlns="http://www.w3.org/2000/svg">
<metadata>
This is a custom SVG webfont generated by Font Squirrel.
Copyright   : Copyright c ShyFonts Type Foundry 2000 All rights reserved
Designer    : ShyFonts Type Foundry
Foundry URL : httpwwwshyfontscom
</metadata>
<defs>
<font id="webfontgkx03yMV" horiz-adv-x="923" >
<font-face units-per-em="2048" ascent="1638" descent="-410" />
<missing-glyph horiz-adv-x="485" />
<glyph unicode=" "  horiz-adv-x="485" />
<glyph unicode="&#x09;" horiz-adv-x="485" />
<glyph unicode="&#xa0;" horiz-adv-x="485" />
<glyph unicode="!" horiz-adv-x="540" d="M139 98q0 45 43 88t84 43q35 0 66 -47q33 -49 33 -86q-2 -41 -37 -82q-33 -39 -76 -39t-78 41t-35 82zM160 905v330q14 164 110 164q41 0 66 -25q27 -27 26 -65v-994q-90 -45 -133 -45q-70 0 -69 123v35q2 16 2 37q0 8 -1 42t-1 60v338z" />
<glyph unicode="&#x22;" horiz-adv-x="688" d="M139 1323q68 76 117 76q39 0 57 -51q74 43 113 43q59 0 59 -78q0 -35 20.5 -94.5t20.5 -94t-26 -59.5q-29 -25 -64 -25q-39 0 -65 33q-25 -41 -76 -41q-53 0 -82 55q-45 91 -74 236z" />
<glyph unicode="#" horiz-adv-x="1206" d="M104 817q0 57 86 70h148l10 84q-90 4 -172 14q-23 61 -22 98q0 68 88 68q52 0 135 6l31 199q61 25 102 24q68 0 68 -63q0 -49 -15 -143q14 2 82 10q6 74 2 166q74 49 117 49q55 0 70 -76q4 -20 4 -119q65 6 159 6q133 0 133 -96q0 -80 -88 -92q-49 -2 -217 -2 q-10 -100 -10 -105q98 12 129 13q37 0 64 -31q25 -29 24 -66q0 -76 -94 -96q-28 -6 -154 -6q-16 -113 -24 -131q-29 -70 -92 -70q-39 0 -68 29q-27 27 -27 72q0 37 9 84q-8 0 -18.5 -1t-26 -2t-27.5 -1q-8 -111 -16 -138q-25 -82 -93 -82q-37 0 -65.5 29t-28.5 66 q0 27 10 123h-170q-43 63 -43 110zM532 897l82 6q0 4 4.5 34t6.5 52q-6 0 -35 -3l-49 -5z" />
<glyph unicode="$" horiz-adv-x="991" d="M96 354q0 41 29 68t70 27q45 0 79 -41q45 -53 119 -121v362q-260 143 -260 334q0 108 80 184q68 68 180 103q-2 16 -2 43q0 37 24.5 61.5t61.5 24.5q90 0 90 -113q221 -29 221 -260q-51 -53 -100 -53q-37 0 -61.5 55t-57.5 66v-314q307 -160 308 -409q0 -145 -82 -246 q-88 -113 -230 -113q-72 -47 -112 -47q-68 0 -68 96q-203 95 -276 246q-13 29 -13 47zM328 981q0 -51 67 -100v110v-1v-1v-1v-1v1v1v2v1v1v2v2v2v2v2v2v3v1v3v2v1v3v2v1v4v1v2v2v1v4v2v2v1v2v2v2v2v2v19q-67 -33 -67 -88zM569 217q57 0 84 53q25 46 25 105q0 100 -109 178 v-336z" />
<glyph unicode="%" horiz-adv-x="1206" d="M86 1067q0 129 92 231q92 100 221 101q139 0 230 -88q94 -90 94 -225.5t-92 -221.5q-94 -88 -225 -88q-129 0 -224 78q-96 82 -96 213zM229 444q0 43 306 320q301 274 356 274q39 0 67 -28q27 -27 27 -68q0 -33 -27 -61q-16 -18 -104 -88q-92 -70 -250 -218l-246 -221 q-37 8 -77 31q-52 28 -52 59zM279 1071q0 -100 133 -100q49 0 80 30q33 33 32 80q0 53 -45 93q-43 37 -96 36q-39 0 -72 -49q-32 -47 -32 -90zM483 266q0 139 88 236q88 98 223.5 98t229.5 -94q96 -96 96 -230q0 -132 -98 -221q-100 -90 -231 -90q-139 0 -223.5 82 t-84.5 219zM672 268q0 -109 123 -108q55 0 92 30.5t37 85.5q0 59 -39 98.5t-99 39.5q-52 0 -86 -49q-28 -42 -28 -97z" />
<glyph unicode="&#x26;" horiz-adv-x="1071" d="M172 1075q0 131 76 225q80 98 211 99q115 0 188 -84q74 -82 74 -199q0 -160 -180 -448q57 -78 184 -201q18 156 106 156q96 0 97 -109q0 -68 -29 -205q20 -18 100 -78v-28q0 -41 -16 -74q-20 -45 -53 -45q-27 0 -99 51q-121 -170 -358 -170q-137 0 -215 88t-78 228 q0 158 131 381q-139 210 -139 413zM365 1067q0 -96 61 -217q100 164 100 260q0 20 -22 61q-20 39 -45 39q-47 0 -72 -49q-22 -41 -22 -94zM375 274q0 -117 106 -116q127 0 197 100q-147 113 -238 240q-65 -132 -65 -224z" />
<glyph unicode="'" horiz-adv-x="477" d="M113 1343q72 55 112 56q39 0 58 -43q4 -6 39 -117l19 -56.5t12 -38.5l3 -11q0 -39 -28.5 -61.5t-69.5 -22.5q-45 0 -70 43q-57 97 -75 251z" />
<glyph unicode="(" horiz-adv-x="694" d="M96 633q0 199 74 407q86 240 225 336q33 23 62 23q41 0 69.5 -26.5t28.5 -65.5q0 -28 -43 -86l-68 -80q-162 -217 -161 -514q0 -328 225 -525q-6 -45 -27 -82q-25 -55 -55 -55q-23 0 -39 15q-141 106 -219 290q-72 173 -72 363z" />
<glyph unicode=")" horiz-adv-x="690" d="M135 59.5q0 36.5 41 85.5q57 63 68 76q76 104 121 252q39 137 38 275q0 322 -221 516q6 45 27 82q25 53 55 53q16 0 35 -13q147 -111 223 -288q72 -168 72 -359q0 -197 -76 -411q-88 -244 -223 -340q-33 -23 -64 -23q-39 0 -67.5 29t-28.5 65.5z" />
<glyph unicode="*" horiz-adv-x="907" d="M104 1122q8 47 35 92q31 61 72 62q27 0 127 -90v55q-4 158 98 158q92 0 92 -119q0 -98 -2 -135l123 117q23 20 51 20q39 0 66 -29q29 -33 29 -69q0 -61 -195 -226q41 -27 141 -108q37 -34 37 -80q0 -43 -26 -70q-29 -29 -66 -28.5t-172 98.5v-131q-68 -45 -111 -45 q-70 0 -69 168q-33 -23 -88 -66q-41 10 -78 33q-51 27 -51 57q0 37 174 168z" />
<glyph unicode="+" horiz-adv-x="782" d="M51 672q0 66 92 94q68 20 150 18v193q0 39 26.5 65.5t65.5 26.5q106 0 107 -192q0 -35 -2.5 -59.5t-2.5 -47.5h29h64q29 2 61 2q39 0 64 -27q25 -28 24 -67q0 -76 -90 -94q-35 -8 -152 -9v-186q0 -37 -24 -65q-25 -27 -66 -27q-106 0 -106 201v47q2 20 2 45q-16 2 -31 2 q-16 0 -57 -6t-58 -6q-41 0 -67 26q-29 29 -29 66z" />
<glyph unicode="," horiz-adv-x="483" d="M86 -51q0 6 33 65q37 68 41 76q27 66 39 82q27 45 71 45q39 0 72 -29q31 -29 31 -69q0 -57 -56 -144q-57 -88 -104 -120q-127 37 -127 94z" />
<glyph unicode="-" d="M172 666q0 96 190 96q27 0 50 -2h47q35 0 96 6q41 4 94 4q43 0 69.5 -24.5t26.5 -69.5q0 -57 -86 -84q-63 -23 -133 -23q-14 0 -133 4.5t-133 4.5q-37 0 -61 24q-27 27 -27 64z" />
<glyph unicode="." horiz-adv-x="550" d="M135 74q0 55 45 102q45 49 101 49q47 0 81 -43q33 -41 33 -96q0 -51 -35 -84q-39 -35 -88 -35q-51 0 -92 27q-45 27 -45 80z" />
<glyph unicode="/" horiz-adv-x="671" d="M41 55q0 31 92 314l209 657l39 162q20 90 59 153q37 57 95 58q41 0 67 -27q29 -29 29 -65q0 -55 -39 -174l-62 -177l-258 -829q-51 -162 -135 -162q-37 0 -67 27q-29 24 -29 63z" />
<glyph unicode="0" horiz-adv-x="1257" d="M158 635q0 266 82 475q111 289 329 289q264 0 416 -236q127 -197 127 -481q0 -268 -119 -469q-143 -248 -389 -248q-238 0 -354 230q-92 178 -92 440zM348 651q0 -123 68 -289q80 -199 182 -198q152 0 242 196q72 156 71 328q0 197 -75 340q-100 180 -279 180 q-102 0 -164 -233q-45 -172 -45 -324z" />
<glyph unicode="1" horiz-adv-x="618" d="M39 1212q0 41 37 74q41 39 100 72q70 41 113 41q90 0 110 -107q4 -20 4 -188q2 -59 3 -371q16 -246 16 -368q0 -215 -14 -353q-70 -47 -111 -47q-68 0 -68 121q0 39 2 69.5t2 69.5v922q-74 -29 -104 -29q-35 0 -63 29q-27 26 -27 65z" />
<glyph unicode="2" horiz-adv-x="1124" d="M162 1051q0 163 117 258q109 90 276 90q178 0 291 -99q121 -104 121 -276q0 -182 -185 -416l-311 -354q-25 -33 -57 -82h460q39 0 68 -28.5t29 -69.5q0 -109 -631 -109q-147 0 -147 103q0 129 149 317l279 330q150 186 149 307q0 89 -68 135q-63 41 -151 41 q-193 0 -193 -170q0 -2 4 -31q2 -14 3 -32q0 -43 -29 -72t-72 -29q-55 0 -82 70q-20 49 -20 117z" />
<glyph unicode="3" horiz-adv-x="1005" d="M68 213q0 41 30 70q33 29 72 28q31 0 131 -69q102 -72 184 -72q166 0 230 154q20 47 20 92q0 141 -194 225l-99 41q-53 31 -53 88q0 47 43 84l148 111q96 80 96 143q0 34 -68 68q-61 29 -98 28q-137 0 -242 -162h-30q-39 0 -76 19q-43 20 -43 53q0 18 8 35 q53 111 158 180q106 70 227 70q135 0 244 -80q121 -86 121 -217q0 -150 -183 -307q246 -143 246 -385q0 -180 -135 -312q-137 -133 -318 -133q-98 0 -217 53q-115 51 -178 132q-24 34 -24 63z" />
<glyph unicode="4" horiz-adv-x="1179" d="M106 604q0 39 7 137q12 172 12 379q0 8 -4 78q-2 35 -2 80q0 121 76 121q72 0 96 -74q14 -37 14 -131q6 -74 6 -145q0 -219 -4 -275q-8 -125 -8 -153q0 -37 2 -56q70 6 412 27q2 31 2 92q0 108 -25 320q-27 229 -26 319q0 76 84 76q59 0 83 -58q74 -160 74 -741 q70 4 76 4q41 0 67.5 -26.5t26.5 -65.5q0 -104 -170 -104v-271q0 -172 -106 -172q-98 0 -99 148v278q-147 -9 -350 -24q-86 -6 -125 -7q-68 0 -98 95q-21 63 -21 149z" />
<glyph unicode="5" horiz-adv-x="1175" d="M137 250q0 35 29 67q28 31 67 31q37 0 91 -47q78 -76 94 -88q66 -45 145 -45q113 0 195 86q82 84 82 203q0 120 -99 196q-94 72 -215 72q-68 0 -118 -57q-49 -55 -86 -56q-39 0 -72 29q-31 27 -31 72q0 82 17 284q14 178 14 285q0 68 26.5 92.5t96.5 24.5h223h221 q164 0 164 -101q0 -98 -145 -98h-398q-2 -47 -2 -293q35 14 92 15q205 0 355 -129q156 -135 155 -336q0 -203 -137 -346q-139 -145 -338 -146q-121 0 -235.5 65.5t-175.5 170.5q-15 22 -15 49z" />
<glyph unicode="6" horiz-adv-x="1144" d="M137 471q0 221 111 498q115 287 266 432q35 -6 78 -29q51 -27 51 -59q0 -18 -16 -41q-127 -186 -195 -354q86 27 164 26q199 0 334 -129q133 -127 133 -327.5t-135 -358.5q-145 -164 -342 -164q-211 0 -334 152q-115 143 -115 354zM336 483q0 -315 254 -315 q115 0 192 102q78 96 78 211q0 111 -76 187q-74 74 -186 73q-117 0 -188 -71q-74 -74 -74 -187z" />
<glyph unicode="7" horiz-adv-x="1005" d="M111 1331q0 68 766 68q88 0 88 -88q0 -35 -138 -316l-184 -368q-106 -223 -156 -383q-15 -74 -61 -215q-27 -63 -84 -64q-39 0 -72 29q-29 27 -28 69q0 160 223 625l262 524h-283q-195 10 -284 11q-49 67 -49 108z" />
<glyph unicode="8" horiz-adv-x="1214" d="M135 375q0 238 201 364q-96 94 -96 246q0 178 108 295q111 119 285 119q150 0 256 -113q109 -115 108 -264q0 -170 -118 -279q190 -121 190 -358q0 -193 -154 -309q-150 -111 -342 -111q-184 0 -313 113q-125 111 -125 297zM328 379q0 -104 69 -162q63 -51 170 -51 q121 0 203 49q100 61 100 170q0 127 -104 190q-92 55 -223 56q-86 0 -150 -82q-65 -84 -65 -170zM432 991q0 -143 164 -143q74 0 135.5 49t61.5 121q0 70 -49.5 125t-122.5 55q-189 0 -189 -207z" />
<glyph unicode="9" horiz-adv-x="1110" d="M57 821q0 221 184.5 399.5t403.5 178.5q137 0 225 -84q86 -82 86 -223q0 -39 -4 -70q-18 -147 -55 -354q-6 -27 -66 -351q-43 -227 -77 -331q-49 -20 -90 -21q-72 0 -72 62q0 45 35 235l49 250q-117 -68 -232 -68q-158 0 -272.5 110.5t-114.5 266.5zM258 813 q0 -70 59 -113q61 -45 129 -45q96 0 180.5 65.5t108.5 160.5q25 95 25 196q0 117 -115 117q-141 0 -262 -121q-125 -125 -125 -260z" />
<glyph unicode=":" horiz-adv-x="563" d="M137 72q0 51 47 102q46 49 99 49q49 0 82 -43q33 -41 32 -94q23 -53 -24 -86q-51 -35 -99 -35q-49 0 -92 27q-45 27 -45 80zM160 637q0 51 34.5 102.5t86 51.5t96.5 -35q43 -35 43 -84q0 -61 -55 -97q-49 -31 -115 -30q-37 0 -63.5 26.5t-26.5 65.5z" />
<glyph unicode=";" horiz-adv-x="518" d="M102 -68q0 12 31 68q39 72 39 74q27 68 41 84q28 43 74 43q37 0 71 -31q29 -27 29 -70q18 -59 -45 -143q-63 -86 -113 -119q-127 37 -127 94zM162 639q0 52 37 92q37 41 90 41q45 0 79.5 -32.5t34.5 -78t-45 -88.5q-43 -41 -90 -41q-45 0 -75.5 31t-30.5 76z" />
<glyph unicode="&#x3c;" horiz-adv-x="786" d="M43 750q0 29 25 65q33 55 192 211q166 168 203 168q35 0 61.5 -26.5t26.5 -63.5q0 -35 -72 -117l-102 -104q-43 -47 -86 -101q12 -8 112 -82q76 -49 201 -153q31 -31 31 -66q0 -41 -31 -71q-29 -29 -69 -29q-35 0 -129 65l-121 95q-82 49 -199 129q-43 34 -43 80z" />
<glyph unicode="=" horiz-adv-x="954" d="M168 795q0 65 68 92q92 37 423 37q88 0 89 -101q0 -66 -66 -92q-86 -37 -424 -37q-41 0 -65.5 31t-24.5 70zM199 547q0 80 90 102q98 25 366 25q133 0 133 -107q0 -66 -69 -88q-92 -31 -402 -30q-118 0 -118 98z" />
<glyph unicode="&#x3e;" horiz-adv-x="782" d="M147 1094q0 41 31 71q29 29 74 29q37 0 125 -64l121 -94q27 -16 196 -129q45 -35 45 -78q0 -29 -22 -67q-27 -43 -195 -211q-170 -170 -203 -170q-37 0 -61 29q-27 31 -27 63q0 41 70 119l105 104q37 37 90 99q-70 45 -217 151q-132 95 -132 148z" />
<glyph unicode="?" horiz-adv-x="937" d="M86 1151q0 115 184 188q150 59 283 60q121 0 205 -51q102 -66 102 -177q0 -100 -119 -251q-12 -15 -221 -258q-119 -133 -119 -189q0 -4 5 -4q12 0 20 2t27 2q111 -6 125 -10q70 -20 69 -88q0 -104 -143 -105q-123 0 -203 43q-98 55 -98 166q0 96 121 252q4 6 225 256 q117 135 121 193q-41 35 -135 34q-63 0 -144 -20q-102 -27 -131 -55v-9q-70 -53 -115 -53q-59 0 -59 74zM336 78q0 45 26 90q31 51 70 51q55 0 92 -31q41 -35 41 -82q0 -53 -43 -96q-45 -45 -96 -45q-43 0 -68 37q-22 33 -22 76z" />
<glyph unicode="@" horiz-adv-x="1411" d="M137 621q0 100 35 192q80 213 234 342q168 141 385 141q209 0 344 -147q137 -150 137 -356q0 -172 -72 -316q-86 -176 -239 -176q-125 0 -195 100q-70 -33 -139 -32q-109 0 -178.5 63.5t-69.5 167.5q0 137 115 246q111 104 254 104q59 0 100 -12q12 -31 16 -66h13 q37 2 69 -26q31 -27 31 -70q0 -82 -37 -162q-18 -43 -18 -63q0 -49 39 -49q63 0 92 125q18 80 18 178q0 114 -80 203q-80 90 -196 90q-184 0 -320 -152q-133 -147 -133 -338q0 -145 102 -233q100 -88 244 -88q43 0 102.5 8t104.5 8q41 0 63 -29q25 -31 25 -71 q0 -63 -65.5 -90t-223.5 -27q-227 0 -366 119q-191 160 -191 416zM567 600q0 -39 64 -39q53 0 98 70q14 76 41 143q-6 2 -14 2q-66 0 -127.5 -55t-61.5 -121z" />
<glyph unicode="A" horiz-adv-x="1073" d="M27 27q0 31 63 219q68 203 232 653l110 313q12 47 49 131q25 37 47 48q18 8 68 8q41 0 68 -39q43 -70 75 -176l54 -189q111 -362 192 -682q53 -209 53 -252q0 -39 -28.5 -67.5t-69.5 -28.5q-57 0 -86 72q-10 33 -27 119q-12 66 -59 247h-6q-86 0 -217 -14 q-111 -12 -217 -16l-140 -387q-49 -20 -88 -21q-73 1 -73 62zM399 573q111 12 318 25q-80 279 -142 463z" />
<glyph unicode="B" horiz-adv-x="1212" d="M55 1292q0 106 209 107q303 0 518 -86q295 -121 295 -377q0 -150 -149 -238q242 -121 241 -325q0 -213 -213 -322q-166 -86 -401 -86q-231 0 -434 84q-6 37 -6 57q0 37 14 64q18 35 49 35q33 0 86 -17q6 156 6 205v406q-29 297 -28 403l-95 -6q-92 41 -92 96zM428 1202 q4 -176 4 -399q28 6 43 6q27 0 47.5 -2t44.5 -2q109 0 191 26q125 37 125 117q0 129 -172 197q-113 45 -283 57zM446 158q57 -4 82 -4q442 0 443 215q0 94 -140 157q-102 47 -221 66q-49 2 -159 29q6 -150 6 -261q-1 -106 -11 -202z" />
<glyph unicode="C" horiz-adv-x="1013" d="M45 580q0 285 141 530q166 289 430 289q211 0 304 -240q4 -12 4 -26q0 -43 -27 -70q-31 -31 -72 -31q-53 0 -102 86q-47 84 -111 84q-174 0 -280 -241q-90 -199 -90 -394q0 -174 73 -284q82 -127 250 -127q182 0 238 168q41 16 86 16q78 0 78 -72q0 -25 -29 -86 q-98 -217 -375 -217q-255 0 -393 185q-125 164 -125 430z" />
<glyph unicode="D" horiz-adv-x="1099" d="M55 109q0 39 31 69q29 29 70 29q4 0 28 -4q-4 291 -4 958h-4h-6q-70 0 -70 68q0 6 4 14q37 100 123 133q63 23 185 23q283 0 471 -225q174 -211 174 -502q0 -287 -193 -496q-199 -211 -489 -211q-78 0 -187 35q-133 43 -133 109zM354 1212q4 -467 4 -1042h19h8 q204 0 340 152q133 145 133 358q0 137 -53 256q-57 131 -162 201q-109 75 -289 75z" />
<glyph unicode="E" horiz-adv-x="966" d="M68 127q0 242 8 588t8 585q0 98 659 99q182 0 183 -103q0 -37 -25 -61q-27 -27 -63 -27q-29 0 -250 4q-111 2 -246 2q-76 0 -76 -75q0 -17 2 -126.5t2 -207.5h179h126q31 0 73 1t52 1q37 0 66 -25q27 -25 27 -63q0 -104 -177 -105h-116q-51 2 -234 2v-466q281 10 518 10 q135 0 136 -97q0 -94 -123 -94q-23 0 -116 -1t-162.5 -1t-162 -1t-116.5 -1q-92 0 -134 35q-38 33 -38 127z" />
<glyph unicode="F" d="M72 1253q0 83 43 117q39 29 655 29q150 0 150 -99q0 -41 -27 -65q-29 -25 -66 -25h-120q-53 2 -119 2q-70 0 -125 -2t-125 -2q-59 0 -88 2v-401h395h18q150 0 150 -100q0 -39 -24.5 -63.5t-59.5 -24.5q-43 0 -78 2q-70 4 -76 4h-163q-135 -6 -162 -6v-609 q-66 -47 -113 -47q-59 0 -59 64q0 68 -4 612q-2 272 -2 612z" />
<glyph unicode="G" horiz-adv-x="1075" d="M43 690q0 258 125 467q143 242 387 242q225 0 389 -232q-43 -113 -102 -112q-4 0 -109 75q-102 74 -170 74q-160 0 -248 -184q-72 -154 -71 -326q0 -201 80 -348q96 -176 286 -176q147 0 207 135v299q-37 0 -104.5 -6t-104.5 -6q-71 0 -147 24q-29 57 -29 99q0 53 53 65 q12 2 99 2q14 0 149 9q102 6 152 6q96 0 121 -92q16 -59 16 -166v-133q-2 -59 -2 -134q0 -219 -23 -286q-27 -82 -102 -82q-47 0 -70 28q-21 26 -21 63q0 5 1 11q-92 -41 -197 -41q-272 0 -430 236q-135 202 -135 489z" />
<glyph unicode="H" horiz-adv-x="1112" d="M70 55v1291q74 47 125 47q61 0 61 -66v1v-527q14 0 44 -1t46 -1q80 0 254 12q166 12 256 12v113q-2 47 -2 115q0 188 12 303q59 45 111 45q66 0 65 -113q0 -332 -2 -596t-2 -596q0 -129 -94 -129q-35 0 -65 27q-27 25 -27 631q-313 -16 -475 -17q-86 0 -119 2v-256 q-2 -111 -2 -256q0 -131 -96 -131q-37 0 -63.5 26.5t-26.5 63.5z" />
<glyph unicode="I" horiz-adv-x="561" d="M49 1319q0 70 78 70q2 0 10 -1.5t13 -1.5h20q43 0 125 6.5t127 6.5q88 0 88 -82q0 -100 -162 -100q6 -92 6 -445q4 -274 4 -618q152 -4 152 -101q0 -88 -297 -88q-46 0 -92 6q-45 63 -45 109q0 66 106 65q-6 129 -6 592q-2 43 -2 234q-6 160 -6 235q-27 2 -90 17 q-29 63 -29 96z" />
<glyph unicode="J" horiz-adv-x="942" d="M8 401q0 51 17 121q57 29 100 29q70 0 70 -74q0 -10 -2.5 -20.5t-2.5 -22.5q0 -102 52 -182q59 -90 157 -90q283 0 283 586q0 121 -8 217q0 23 -17 170q-10 113 -10 172q0 41 27 65q31 27 67 27q76 0 101 -82q8 -27 8 -146q8 -39 24 -223q12 -135 13 -221 q0 -303 -94 -498q-123 -264 -390 -264q-174 0 -284 133q-111 129 -111 303z" />
<glyph unicode="K" horiz-adv-x="995" d="M70 1272q0 127 96 127q35 0 63 -25q27 -25 27 -586l430 529q68 82 113 82q41 0 67.5 -29t26.5 -69.5t-45 -98.5l-78 -84l-317 -391q66 -70 196 -250q141 -197 191 -258l61 -72q37 -49 37 -84q0 -40 -31 -67q-35 -31 -69 -31q-41 0 -84 49q-14 14 -62 82l-178 248 q-4 6 -182 244l-72 -74q2 -100 2 -256q0 -137 -4 -248q-68 -45 -111 -45q-68 0 -67 129v56q2 25 2 57q0 176 -6 532.5t-6 532.5z" />
<glyph unicode="L" horiz-adv-x="915" d="M68 1278q0 121 98 121t98 -162q0 -29 -2 -53.5t-2 -50.5q0 -138 6 -412q4 -182 4 -410v-157h136q23 0 186.5 4t183.5 4q137 0 137 -99q0 -90 -114 -90q-25 0 -213.5 -4t-210.5 -4q-178 0 -223 21q-66 31 -66 286q0 129 -10 502q-8 297 -8 504z" />
<glyph unicode="M" horiz-adv-x="1284" d="M70 1194q0 197 104 197q37 0 66 -27q26 -23 25 -47q0 -5 -1 -10q35 -76 238 -590l162 -406l254 727l59 174q47 137 63 154q33 33 74 33q98 0 98 -148v-1239q-66 -47 -108 -47q-78 0 -78 166v51q2 23 2 51v551q-78 -203 -188 -530l-58 -172q-45 -104 -125 -105 q-72 0 -133 162l-262 674q6 -317 6 -379q0 -221 -14 -424q-63 -45 -107 -45q-66 0 -65 90q0 2 1 16.5t1 24.5t1 24.5t1 18.5q0 59 -8 526.5t-8 528.5z" />
<glyph unicode="N" horiz-adv-x="1077" d="M70 1229q0 133 39 153q14 10 79 11q25 0 52 -23q92 -84 219 -297q16 -27 182 -334l182 -348v420q0 29 -4 258t-4 256q0 25 41 49.5t68 24.5q43 0 61 -51q23 -72 23 -263v-1030q0 -90 -121 -90q-70 0 -137 148q-8 18 -20.5 43.5t-27.5 60.5q-209 436 -442 811v-811 q0 -4 4 -53q2 -25 2 -55q0 -143 -96 -144q-90 0 -90 830q0 121 -4 217q-6 143 -6 217z" />
<glyph unicode="O" horiz-adv-x="1118" d="M49 592q0 285 117 518q145 289 401 289q250 0 389 -256q113 -211 113 -484q0 -270 -119 -462q-141 -231 -395 -232q-246 0 -385 195q-121 174 -121 432zM236 602q0 -444 346 -444q145 0 227 184q63 141 63 313q0 158 -47 299q-61 174 -176 230q-49 23 -69 22 q-53 0 -119 -35q-123 -63 -180 -249q-45 -148 -45 -320z" />
<glyph unicode="P" horiz-adv-x="1122" d="M53 1311q0 37 129 65q109 23 166 23q301 0 506 -121q254 -147 254 -424q0 -223 -211 -338q-170 -90 -412 -90q-84 0 -147 8q0 -47 -0.5 -91.5t-1 -78t-0.5 -62.5v-49.5v-35v-17.5v-7v-1q0 -127 -92 -127q-39 0 -63.5 24.5t-24.5 63.5v211q4 106 4 211q-72 29 -72 98 q0 76 72 95q2 236 2 534l-51 -4q-58 64 -58 113zM338 635q55 -6 131 -6q438 0 438 219q0 195 -194 289q-141 70 -369 69q-6 -285 -6 -571z" />
<glyph unicode="Q" horiz-adv-x="1107" d="M39 592q0 285 117 518q144 289 399 289q252 0 389 -256q117 -217 117 -484q0 -383 -215 -579q70 -154 69 -193q0 -37 -28 -65q-27 -27 -68 -27q-45 0 -67 35q-12 20 -35 74q-25 61 -35 82q-72 -20 -135 -21q-248 0 -387 195q-121 174 -121 432zM229 600q0 -186 66 -301 q78 -139 276 -139h25l-113 215q43 102 103 102q39 0 168 -213q111 150 110 408q0 178 -65 334q-86 199 -242 198q-174 0 -262 -225q-66 -168 -66 -379z" />
<glyph unicode="R" horiz-adv-x="1110" d="M55 1294q0 43 138 76q119 29 178 29q264 0 444 -76q246 -106 246 -338q0 -233 -361 -385l127 -207q20 -35 111 -166q80 -126 80 -166q0 -37 -31 -65q-33 -29 -69 -29q-61 0 -152 139l-115 199l-137 230q-98 -27 -199 -27v-395q0 -147 -98 -148q-37 0 -61 25 q-27 27 -27 63v193q0 43 1 88t2 68.5t1 33.5q2 166 2 748h4q-84 59 -84 110zM315 700q164 16 330 80q221 88 221 211q0 129 -192 187q-127 35 -299 34h-56q-4 -209 -4 -512z" />
<glyph unicode="S" horiz-adv-x="974" d="M43 342q0 39 33 68q29 27 71 26q45 0 74 -43l41 -82q37 -63 115 -102q82 -41 155 -41q96 0 149.5 53t53.5 148q0 72 -69 129q-53 39 -134 80q-197 106 -290 184q-162 137 -162 285q0 143 113 247q115 104 260 105q135 0 243 -82q113 -86 150 -211q-59 -74 -113 -74 q-27 0 -61 47q-41 57 -72 84q-59 47 -137 47q-63 0 -125 -49t-62 -112q0 -86 156 -187l234 -127q129 -70 192 -145q78 -96 78 -228q0 -170 -117 -284q-115 -113 -287 -113q-164 0 -299 94q-132 92 -184 252q-6 17 -6 31z" />
<glyph unicode="T" horiz-adv-x="1083" d="M25 1323q0 78 880 78q160 -4 160 -103q0 -39 -27 -63q-31 -27 -65 -27v0v0h1v0v0h-1v0v0v0h-1v0h-1h-1v0h-1h-1h-1h-1h-1h-1h-1h-1h-1h-1h-1h-1h-1h-1h-1h-2h-1h-1h-2h-1h-1h-2h-2h-2h-1h-2h-2h-2h-2h-2h-2h-2h-2h-1h-3h-2h-2h-3h-1h-2h-3h-1h-2h-3h-1h-3h-1h-3h-2h-2h-2 h-2h-2h-2h-3h-1h-3h-1h-2h-2h-2h-3h-1h-3h-2h-1h-3h-2h-1h-3h-2h-1h-3h-2h-1h-4h-1h-2h-3h-1h-2h-3h-2h-1h-2h-3h-2h-2h-1h-4h-1h-2h-2h-3h-2h-1h-2h-2h-3h-2h-1h-2h-2h-3h-2h-2h-2h-1h-2h-4h-1h-2h-2h-2h-2h-3h-2h-2h-1h-2h-2h-2h-2h-3h-2h-2h-2h-2h-2h-1h-2h-2h-4h-2h-2 h-2h-1h-2h-2h-2h-2h-2h-2h-2h-3h-2h-2h-2h-2h-2h-2h-2h-2h-2h-2h-2h-2h-2h-2h-2h-2h-2h-3h-2h-2h-2h-2h-2h-2h-2h-2h-2h-2h-2h-2h-2h-2h-21v-792q6 -187 6 -406q-72 -45 -116 -45q-68 0 -68 105v24q2 12 2 25v239q-8 238 -8 850q-139 -4 -152 -4q-89 0 -202 13 q-45 59 -45 106z" />
<glyph unicode="U" horiz-adv-x="1054" d="M59 698q0 94 15 324q14 176 22 324q63 45 113 45q57 0 57 -66q0 -131 -8 -319.5t-8 -321.5q0 -522 223 -522q328 0 328 788q0 23 -4 178q-2 78 -2 179q0 41 24 65q27 27 68 27q74 0 98 -82q12 -39 12 -146q4 -90 4 -143q0 -1061 -522 -1061q-420 0 -420 731z" />
<glyph unicode="V" horiz-adv-x="991" d="M31 1313q63 78 116 78q33 0 54 -43q29 -59 59 -183l45 -184q102 -397 195 -645q10 41 92 319l125 451q25 92 43 184q23 109 96 109q43 0 74 -31t31 -72l-5 -16q-29 -129 -79 -334l-189 -676q-37 -133 -57 -184q-53 -121 -133 -121q-51 0 -82 53q-18 25 -43 97l-101 278 q-102 324 -241 920z" />
<glyph unicode="W" horiz-adv-x="1529" d="M43 1307q61 86 113 86q39 0 65 -64q14 -27 35 -96q127 -395 217 -807q109 438 143 709l13 102q10 68 24 98q27 63 82 64q106 0 152 -211q66 -301 217 -785l119 582q12 45 53 240q16 98 22 112q25 61 86 62q41 0 68 -27q29 -29 29 -65q0 -131 -254 -1203 q-31 -139 -111 -139q-84 0 -131 162q-4 16 -11 41t-18 59q-74 238 -190 656q-92 -494 -193 -803q-6 -18 -20 -47q-47 -70 -102 -70q-53 0 -82 62q-14 27 -50 219q-61 352 -276 1063z" />
<glyph unicode="X" horiz-adv-x="1069" d="M57 1317q55 82 111 82q41 0 100 -115q102 -203 271 -467q72 117 190 340q25 57 100 195q35 43 72 43t65.5 -29t28.5 -66q0 -59 -344 -653q358 -541 359 -592q0 -35 -29 -63q-27 -27 -68 -27q-53 0 -106 80l-74 129l-190 291l-305 -500h-27q-35 0 -76 19q-47 23 -47 53.5 t346 597.5l-209 348l-92 162q-47 86 -76 172z" />
<glyph unicode="Y" horiz-adv-x="1062" d="M27 1290q45 106 100 107q31 0 94 -88q33 -55 291 -447q113 137 240 316q4 6 63 110q43 74 76 96q20 14 47 15q37 0 70 -29q31 -27 30 -65q0 -57 -188 -326l-246 -334q8 -227 8 -452q0 -109 -10 -183q-57 -45 -104 -45q-78 0 -78 176q0 8 1 43t1 59.5t1 58.5t1 42v295 q-202 278 -397 651z" />
<glyph unicode="Z" horiz-adv-x="1058" d="M51 55q0 39 101 183l325 473q184 283 293 489h-377q-119 0 -243 -8q-53 76 -54 125q0 82 170 82q41 0 74 -2t74 -2q139 0 249.5 2t251.5 2q39 0 66 -24.5t27 -65.5q0 -68 -123 -295q-221 -408 -574 -867q504 8 604 9q33 0 64 -27q27 -25 27 -61q0 -70 -70 -91 q-31 -8 -127 -8q-10 0 -56 -1t-79 -1t-78 -1t-57 -1q-16 0 -82 1t-115 1t-115.5 1t-83.5 1q-92 0 -92 86z" />
<glyph unicode="[" horiz-adv-x="851" d="M207 1286q4 78 76 100q27 8 135 9q41 0 71.5 2t69.5 2q156 0 156 -105q0 -65 -62 -80q-23 -6 -254 -6v-721v-327q98 6 181 6q143 0 143 -98q0 -104 -184 -105q-176 0 -238 19q-66 18 -84 73q-10 27 -10 1231z" />
<glyph unicode="\" horiz-adv-x="669" d="M39 1311q0 41 29 63q31 25 69 25q84 0 135 -164l258 -840q14 -45 31 -87t29 -81q39 -115 39 -168q0 -37 -29 -65.5t-68 -28.5q-55 0 -92 60q-39 61 -63 161q-8 31 -21.5 88.5t-19.5 79.5l-94 312l-185 559q-18 57 -18 86z" />
<glyph unicode="]" horiz-adv-x="856" d="M127 1300q0 98 305 99q114 0 160 -31q57 -39 57 -147q0 -61 -4 -570q-2 -254 -2 -571q0 -77 -74 -98q-68 -20 -245 -21q-186 0 -187 111q0 63 64 80q29 8 256 8q0 16 -1 29.5t-1 22.5v16.5v9.5v2v774q0 137 2 192q-92 -6 -181 -6q-149 0 -149 100z" />
<glyph unicode="^" horiz-adv-x="899" d="M119 1096q0 55 98 161q92 104 150 125q35 16 71 17q76 0 203 -113q129 -115 129 -182q0 -43 -29 -72q-31 -31 -69 -31q-29 0 -135 103l-26.5 26.5t-25 23.5t-19.5 18.5t-14.5 14.5t-10.5 9t-6 6l-1 2q2 0 -36 -38l-144 -144q-135 0 -135 74z" />
<glyph unicode="_" horiz-adv-x="1415" d="M213 35h987v-162h-987v162z" />
<glyph unicode="`" horiz-adv-x="534" d="M82 1735q0 39 31 65q29 27 71 27q53 0 154 -111q96 -104 96 -160q0 -43 -28 -69q-33 -29 -72 -29q-43 0 -82 43q-29 29 -96 117q-74 95 -74 117z" />
<glyph unicode="a" horiz-adv-x="903" d="M45 393q0 182 139.5 321.5t323.5 139.5q70 0 151 -31q29 41 76 41q100 0 101 -178q0 -76 -6.5 -223.5t-6.5 -220.5q0 -100 15 -187q-63 -76 -113 -75q-33 0 -57 65q-123 -80 -256 -80q-172 0 -275 131q-92 121 -92 297zM250 383q0 -83 37 -141q43 -72 119 -72 q121 0 233 109q2 72 2 325l-63 31q-35 16 -74 16q-102 0 -178 -82t-76 -186z" />
<glyph unicode="b" horiz-adv-x="870" d="M68 113q0 186 6 565t6 565q0 156 98 156q100 0 101 -154v-434q66 39 163 39q180 0 299 -139q115 -133 115 -318q0 -176 -119 -301q-121 -127 -293 -127q-108 0 -202 62q-53 -41 -103 -41q-71 0 -71 127zM258 305q41 -72 76 -98q51 -41 115 -41l20 4q190 43 190 229 q0 104 -57 176q-63 82 -160 82q-100 0 -184 -77v-275z" />
<glyph unicode="c" horiz-adv-x="833" d="M43 358q0 144 86 271q86 125 217 186q88 39 156 39q90 0 160 -66q66 -61 83 -157q-55 -82 -106 -82q-33 0 -68 53q-37 55 -65 55q-86 0 -174 -94q-84 -90 -84 -180q0 -213 155 -213q66 0 164.5 73.5t124.5 73.5q41 0 72 -30.5t31 -71.5q0 -20 -17 -47q-51 -82 -162 -143 q-109 -59 -213 -60q-156 0 -260 121q-100 116 -100 272z" />
<glyph unicode="d" horiz-adv-x="827" d="M14 393q0 172 115 316q119 145 295 145q70 0 131 -27v187q0 49 -6 147q-4 66 -4 148q0 90 88 90q72 0 94 -78q10 -41 10 -137q4 -385 4 -576q3 -344 25 -577q-66 -53 -115 -54q-35 0 -53 43q-92 -55 -195 -55q-170 0 -280 131q-109 127 -109 297zM215 399q0 -96 47 -161 q53 -78 141 -78q96 0 166 69q-10 143 -10 365q-70 63 -137 63q-84 0 -150 -90q-57 -78 -57 -168z" />
<glyph unicode="e" horiz-adv-x="882" d="M45 395q0 170 121 314q125 145 293 145q127 0 231 -119q104 -121 105 -250q0 -68 -82 -92q-86 -27 -338 -26q-35 0 -125 4q16 -88 75.5 -145.5t147.5 -57.5q59 0 150 51q94 53 118 53q41 0 70 -26q31 -28 31 -68q0 -25 -27 -61q-53 -70 -156 -111q-100 -41 -186 -41 q-174 0 -301 129q-127 131 -127 301zM301 551q58 0 270 18q-51 88 -116 88q-80 0 -154 -106z" />
<glyph unicode="f" horiz-adv-x="798" d="M31 639q0 68 110 68q0 256 60 409q104 283 309 283q121 0 195 -86q76 -88 75 -209q0 -117 -98 -117q-63 0 -84 55q-18 76 -23 103q-14 55 -57 55q-98 0 -147 -203q-31 -133 -31 -278q101 6 197 6q115 0 114 -94q0 -100 -182 -101q-35 0 -63 2q-57 4 -64 5 q14 -123 47 -519q-76 -53 -123 -53q-74 0 -73 154q-4 23 -9 82q-12 70 -37 329l-67 -2q-49 68 -49 111z" />
<glyph unicode="g" horiz-adv-x="862" d="M43 418q0 174 113 303q117 133 288 133q92 0 177 -47q49 27 86 27q55 0 71 -74q4 -16 4 -119q0 -49 11 -188q12 -168 12 -189q0 -690 -365 -690q-95 0 -190 61q-98 63 -137 148q-12 25 -13 47q0 40 31 68q29 27 72 26q41 0 108 -74q66 -72 125 -71q119 0 152 217 q-78 -31 -144 -31q-170 0 -286 144q-115 137 -115 309zM242 424q0 -96 57 -172q66 -86 158 -86q41 0 149 63q-4 139 -22 371q-63 59 -133 59q-90 0 -149.5 -71.5t-59.5 -163.5z" />
<glyph unicode="h" horiz-adv-x="874" d="M66 1307q0 41 24 65q27 27 66 27q82 0 102 -96q6 -34 6 -160v-373q125 102 264 102q195 0 273 -167q53 -113 53 -336q0 -218 -31 -320q-29 -84 -98 -84q-41 0 -67.5 26.5t-26.5 67.5q0 63 12 189q14 147 14 188q0 244 -139 244q-141 0 -219 -217q-16 -43 -16 -60v-133 q-4 -145 -15 -260q-63 -45 -108 -45q-33 0 -54 49q-18 39 -18 82v158q0 41 1 95t1 67v686q-24 197 -24 205z" />
<glyph unicode="i" horiz-adv-x="344" d="M63 55v168q8 106 9 393q0 219 108 220q88 0 88 -91q5 -28 5 -63q0 -53 -11 -123q-2 -49 -4 -109.5t-2 -74.5q-4 -186 -4 -191q-2 -94 -21 -190q-63 -29 -94 -29q-74 0 -74 90zM68 1038q0 39 28 74q27 33 70 33q46 0 80 -31q35 -31 35 -76q0 -43 -29 -77q-27 -33 -74 -33 q-43 0 -76 33q-34 34 -34 77z" />
<glyph unicode="j" horiz-adv-x="671" d="M6 -68q66 47 115 48q39 0 55 -41q4 -23 9 -41.5t10 -34.5q27 -123 81 -123q143 0 144 420q0 86 -6 268q-8 242 -8 272q0 135 102 136q92 0 92 -121q0 -27 8 -252t8 -254q-12 -231 -59 -408q-86 -248 -274 -247q-135 0 -211 127q-66 108 -66 251zM389 1047q0 39 28.5 67.5 t69.5 28.5q49 0 82 -31q35 -31 35 -78q0 -41 -33 -71q-31 -29 -73 -29q-47 0 -78 33q-31 34 -31 80z" />
<glyph unicode="k" horiz-adv-x="835" d="M68 57q0 86 6 252t6 647q0 20 -4 177q-2 78 -2 176q0 41 26.5 65.5t65.5 24.5q94 0 94 -146q0 -25 4 -221q2 -98 2 -221v-285l158 113q100 76 262 211q43 -4 82 -25q53 -25 53 -55q0 -82 -301 -293q303 -369 303 -424q0 -39 -30.5 -63.5t-67.5 -24.5q-45 0 -100 68 l-72 104q-84 121 -176 240l-119 -84q-4 -178 -20 -297q-68 -31 -97 -31q-73 0 -73 92z" />
<glyph unicode="l" horiz-adv-x="329" d="M59 1286q0 113 93 113q102 0 102 -166q0 -31 -2 -53.5t-2 -44.5q0 -106 10 -413.5t10 -414.5q0 -147 -16 -295q-66 -47 -109 -47q-70 0 -69 129v62q2 29 2 61q0 139 -10 535q-9 317 -9 534z" />
<glyph unicode="m" horiz-adv-x="1173" d="M68 80v0v0v0v0v1v0v0v1v1v0v1v1v0v1v1v1v2v1v0v2v0v2v1v1v1v1v2v1v1v2v1v2v2v2v1v2v2v2v2v2v2v1v2v3v2v2v1v3v2v1v3v2v2v2v3v1v3v1v3v1v3v1v3v1v3v2v2v2v1v3v2v3v1v2v3v1v2v3v1v2v3v1v2v3v2v1v4v1v2v1v4v1v2v1v4v1v2v2v3v2v1v2v4v1v2v2v1v2v4v1v2v2v2v3v2v2v1v2v2v2v3v2 v2v2v2v1v2v2v4v2v1v2v2v2v2v2v2v3v2v2v2v2v2v2v2v2v1v2v2v2v2v4v2v2v2v2v2v2v2v2v2v2v2v2v2v2v2v1v2v2v2v2v3v2v2v2v19q6 126 6 381q70 45 116 45q31 0 52 -31q71 43 147 43q133 0 213 -98q92 94 209 94q299 0 299 -438q0 -18 -8 -178t-8 -179q0 -39 -27 -65 q-29 -29 -68 -29q-98 0 -98 156q0 59 6 176q8 156 8 176q0 190 -104 191q-86 0 -133 -109q8 -55 8 -133q0 -72 -8 -178.5t-8 -177.5q0 -39 -29 -68q-27 -27 -66 -27q-100 0 -100 156q0 70 8.5 174.5t8.5 175.5q0 193 -105 193q-80 0 -129 -101v-458q0 -145 -98 -146 q-92 0 -92 115z" />
<glyph unicode="n" horiz-adv-x="821" d="M68 80v340q2 84 2 381q70 45 116 45q39 0 56 -41q86 53 190 53q174 0 260 -135q72 -113 72 -299q0 -47 -10.5 -180t-10.5 -178q0 -41 -26 -68q-31 -31 -68 -31q-98 0 -98 158q0 63 8 151.5t8 149.5q0 244 -141 244q-109 0 -170 -107v-446q0 -152 -96 -152q-92 0 -92 115z " />
<glyph unicode="o" horiz-adv-x="827" d="M49 377q0 187 92 325q104 160 285 160q168 0 264 -139q88 -125 88 -299q0 -182 -90 -313q-102 -145 -278 -146q-166 0 -269 125q-92 117 -92 287zM240 391q0 -231 176 -231q88 0 133 94q37 74 37 170q0 84 -37 156q-47 90 -125 90q-184 0 -184 -279z" />
<glyph unicode="p" horiz-adv-x="821" d="M66 762q0 39 26.5 65.5t65.5 26.5q55 0 84 -43q66 37 151 37q172 0 295 -148q117 -145 117 -315q0 -168 -103 -289q-109 -131 -270 -131q-68 0 -149 33v-4v-5v-4v-5v-4v-4v-5v-4v-5v-4v-5v-4v-5v-4v-5v-4v-5v-5v-4v-17q0 -127 -15 -220q-41 -53 -92 -53q-86 0 -86 166 q0 41 2 74t2 71q0 156 -14 414t-14 414zM268 578q8 -158 8 -353q82 -63 156 -63q77 0 129 74q47 66 47 149q0 98 -57 180q-65 92 -160 92q-80 1 -123 -79z" />
<glyph unicode="q" horiz-adv-x="800" d="M16 371q0 174 115 325q125 162 295 162q74 0 137 -37q25 43 76 43q94 0 94 -121v-376v-689q-82 -45 -129 -45q-57 0 -57 66v295q-63 -29 -131 -29q-166 0 -283 121q-117 119 -117 285zM213 365q0 -86 63 -150q61 -61 150 -61q68 0 127 59v369q-51 82 -123 82 q-88 0 -156 -109q-61 -98 -61 -190z" />
<glyph unicode="r" horiz-adv-x="776" d="M68 662q0 188 100 188q78 0 90 -82q102 80 211 80q147 0 227 -123q70 -102 70 -262q0 -40 -25 -68q-25 -27 -67 -26q-72 0 -94 75q-16 90 -27 138q-18 76 -80 75q-76 0 -149 -73q-72 -72 -72 -150v-424q-72 -45 -117 -45q-63 0 -63 92q0 53 -2 94.5t-2 510.5z" />
<glyph unicode="s" horiz-adv-x="768" d="M43 154q10 43 29 75q29 53 57 54l11 -8l38 -24.5l55 -35.5q102 -66 181 -65q98 0 123 51q-6 66 -129 135l-218 121q-115 78 -114 174q0 102 100 166q88 57 197 57q68 0 153 -37q102 -43 103 -102q0 -35 -31 -70q-28 -31 -68 -31q-33 0 -75 21q-49 23 -74 22 q-72 0 -102 -26q49 -51 176 -113q141 -66 184 -106q88 -78 88 -209q0 -111 -102 -178q-90 -59 -207 -60q-228 1 -375 189z" />
<glyph unicode="t" horiz-adv-x="688" d="M14 791q0 78 156 77q23 0 39 -2t35 -2v365q0 39 26 63q31 27 66 27q33 0 63 -27q27 -25 27 -63v-359q43 2 158 2q37 0 67 -26q27 -25 27 -64q0 -80 -94 -98q-47 -10 -156 -10v-662q-88 -47 -129 -47q-57 0 -57 66v137q0 2 1 172t1 336q-125 0 -195 12q-35 66 -35 103z " />
<glyph unicode="u" horiz-adv-x="870" d="M55 635q0 225 115 225q43 0 71.5 -26.5t28.5 -69.5q0 -41 -6 -121t-6 -119q0 -365 156 -364q78 0 137 88q47 72 57 162q6 45 6 198q0 123 17 201q59 35 100 35q70 0 70 -119q0 -6 -1 -32.5t-1 -47.5v-362q0 -8 1 -47t1 -66t1 -65.5t1 -49.5q0 -37 -26.5 -63.5 t-63.5 -26.5q-80 0 -95 82q-94 -82 -206 -82q-357 0 -357 670z" />
<glyph unicode="v" horiz-adv-x="804" d="M31 772q66 78 112 78q35 0 58 -41q0 -2 78 -191l133 -313q100 268 149 443q37 123 111 122q33 0 65 -26q31 -25 31 -62q0 -20 -2 -26q-84 -393 -266 -729q-31 -61 -88 -62q-80 0 -146 176q-104 252 -235 631z" />
<glyph unicode="w" horiz-adv-x="1095" d="M49 795q61 53 111 53q61 0 110 -193q18 -101 68 -301l98 371q39 143 117 143q46 0 80 -43q33 -41 123 -415q23 68 67 225l33 145q31 88 98 88q37 0 66 -24.5t29 -63.5t-101 -387q-98 -340 -123 -370q-35 -47 -82 -48q-59 0 -86 70q-10 29 -28 119q-23 111 -74 291 l-86 -336q-41 -154 -131 -154q-52 0 -86 55q-51 80 -121 373q-62 244 -82 402z" />
<glyph unicode="x" horiz-adv-x="837" d="M57 721q10 45 29 76q29 51 61 51q47 0 259 -285l149 207q63 88 119 88q37 0 69 -27q29 -23 29 -65q0 -46 -246 -375q80 -113 174 -221q61 -72 61.5 -108.5t-28.5 -65.5q-31 -31 -63 -31q-70 0 -258 268l-183 -241q-45 -18 -81.5 -18.5t-61.5 26.5q-27 31 -27 66 q0 25 27 67q4 4 26.5 34l75 99.5l105.5 141.5q-107 153 -236 313z" />
<glyph unicode="y" horiz-adv-x="872" d="M49 768q59 84 109 84q43 0 84 -84q6 -14 49 -121l158 -360q86 176 151 340q23 70 82 184q31 43 74 43q41 0 69 -27q31 -29 31 -65q0 -14 -2 -21q-23 -66 -100 -237q-78 -176 -156 -334q-164 -334 -303 -549h-27q-43 0 -75 17q-47 20 -48 53q0 20 191 370l-217 514 q-37 84 -70 193z" />
<glyph unicode="z" horiz-adv-x="847" d="M61 53q0 59 68 146l113 125l256 338q-297 0 -369 10q-45 63 -45 108q0 49 70 68q23 4 110 8q6 0 98.5 1t176.5 1q6 0 30.5 -1t44.5 -1h76q37 0 66 -29q27 -27 26 -65q0 -35 -82 -141l-96 -123q-78 -106 -266 -342q195 6 305 6q135 0 135 -98.5t-147 -98.5q-6 0 -27.5 1 t-38 1t-39 1t-28.5 1q-14 0 -65.5 -1t-88.5 -1t-88 -1t-66 -1q-129 0 -129 88z" />
<glyph unicode="{" horiz-adv-x="1032" d="M90 653q0 68 70 95q78 31 231 30q-10 14 -84 86q-113 113 -112 223q0 154 198 242q154 70 336 70q39 0 62 -23q25 -25 24 -59q0 -68 -86 -94l-178 -37q-113 -25 -150 -78q-12 -18 -12 -29q0 -31 121 -135q88 -80 88 -178q0 -33 -2 -45q49 -45 49 -113 q0 -94 -112.5 -208.5t-112.5 -166.5q0 -63 149 -63q45 0 115 14q78 16 111 17q39 0 65 -29q29 -33 29 -72q0 -57 -62 -88q-94 -47 -264 -47q-139 0 -235 66q-111 74 -111 209q0 90 68 182l131 151q-27 -4 -64 -12q-57 -10 -170 -10q-41 0 -65 31q-27 32 -27 71z" />
<glyph unicode="|" horiz-adv-x="604" d="M184 1255q0 143 99 144q76 0 98 -76q8 -27 8 -133q0 -221 2 -399.5t2 -397.5v-327q0 -43 -28.5 -72t-69.5 -29q-45 0 -73.5 29t-28.5 72v964q-4 33 -5 113q-4 46 -4 112z" />
<glyph unicode="}" horiz-adv-x="1030" d="M137 1266q0 55 64 86q100 47 266 47q139 0 233 -64q111 -74 111 -209q0 -92 -68 -184l-129 -154l60 11q72 12 174 12q39 0 63 -31q27 -33 27 -71q0 -66 -70 -95q-78 -33 -229 -32q8 -12 84 -82q113 -106 113 -219q0 -152 -201 -242q-166 -74 -336 -74q-35 0 -59 25 q-27 27 -27 61q0 66 76 90l200 45q150 41 150 101q0 27 -55 75q-61 55 -99 97q-55 68 -55 139q0 31 2 43q-47 41 -47 111q0 98 111 211q113 115 112 167q0 63 -149 64q-43 0 -113 -14q-78 -16 -110 -17q-40 0 -68 31q-31 35 -31 72z" />
<glyph unicode="~" horiz-adv-x="1046" d="M160 1167q0 23 10 45q33 76 102 129q66 51 152 52q80 0 149 -50q70 -49 66 -51q23 0 70 53.5t92 53.5q41 0 67 -27q29 -29 29 -65q0 -82 -94 -152q-84 -63 -172 -63q-71 0 -129 55q-55 53 -78 53q-33 0 -76 -63.5t-92 -63.5q-41 0 -68 27q-28 28 -28 67z" />
<glyph unicode="&#xa2;" horiz-adv-x="856" d="M88 786q0 133 72 252q76 121 198 162v39q0 160 99 160q66 0 82 -66q6 -23 6 -121q106 -18 172 -84q68 -68 74 -172q-63 -51 -109 -51q-33 0 -64 49q-37 55 -75 68q0 -356 -2 -404q68 18 94 19q39 0 63 -29q27 -31 27 -69q0 -98 -195 -123q-6 -84 -18 -150 q-61 -25 -100 -24q-70 0 -70 94q0 29 2 47q0 10 1 20.5t2 16.5t1 8q-117 37 -188 135q-72 100 -72 223zM299 770q0 -88 57 -127q0 20 1 48t1 34v260q-51 -39 -51 -88q0 -6 -4 -63.5t-4 -63.5z" />
<glyph unicode="&#xa5;" horiz-adv-x="1236" d="M117 1317q0 35 26 59q25 23 64 23q49 0 106 -84l78 -129l221 -350q143 201 150 208q70 100 135 218q74 137 135 137q37 0 70 -29q31 -28 31 -67q0 -90 -181 -334l-252 -328l2 -37q78 4 93 4q158 0 157 -102q0 -72 -96 -90q-47 -10 -151 -10q4 -41 4 -95h4h4h4h5h4h4h4h5 h4h4h5h4h18q176 0 176 -104q0 -41 -28.5 -65.5t-65.5 -24.5h-151q0 -152 -95 -152q-92 0 -92 154h-4h-5h-4h-5h-4h-5h-5h-4h-5h-5h-4h-5h-5h-5h-5h-4h-5h-17q-61 0 -117 18q-76 29 -76 76q0 100 193 100h53q10 0 18.5 -1t13.5 -1h7v97q-57 -2 -88 -2q-211 0 -211 102 q0 35 27 61q25 25 59 25q39 0 68 -2h67q77 0 74 43q-276 383 -387 641q-10 27 -10 41z" />
<glyph unicode="&#xa9;" horiz-adv-x="1361" d="M156 408q0 207 127 346q131 147 338 147q217 0 399 -131q205 -143 205 -350q0 -211 -195 -340q-170 -115 -391 -115q-207 0 -342 117q-141 120 -141 326zM340 422q0 -123 86 -193q78 -66 205 -65q-90 8 -160 72q-68 61 -68 155q0 106 89 176q80 68 190 68q61 0 115 -33 q66 -41 65 -92q0 -37 -26 -61q-25 -23 -62 -23q-20 0 -45 8q-31 10 -43 10q-23 0 -51 -12q-35 -16 -35 -39q0 -10 25 -24q18 -10 34 -11q14 0 47 22.5t60 22.5q41 0 70 -26q31 -28 30 -68q0 -102 -147 -139q119 18 201 68q106 68 106 168q0 133 -149 225q-133 78 -275 78 q-119 0 -190.5 -84t-71.5 -203z" />
<glyph unicode="&#xad;" d="M172 666q0 96 190 96q27 0 50 -2h47q35 0 96 6q41 4 94 4q43 0 69.5 -24.5t26.5 -69.5q0 -57 -86 -84q-63 -23 -133 -23q-14 0 -133 4.5t-133 4.5q-37 0 -61 24q-27 27 -27 64z" />
<glyph unicode="&#xae;" horiz-adv-x="1503" d="M158 510q0 246 127 391q139 156 379 156q256 0 471 -160q231 -174 231 -424q0 -231 -215 -377q-197 -131 -434 -131q-233 0 -398 154q-161 153 -161 391zM348 526q0 -166 102.5 -266t272.5 -100q90 0 182 33q-20 6 -155 88v-13q0 -39 -27 -63.5t-66 -24.5q-57 0 -90 58 q-41 74 -41 258q0 76 4 106q-39 0 -63.5 28.5t-24.5 65.5q0 61 97 99q76 29 149 28q104 0 189 -51q96 -59 96 -160q0 -104 -105 -172q158 -80 158 -151q0 -31 -6 -43q152 96 151 233q0 154 -190 277q-172 111 -338 110q-295 0 -295 -340zM709 578q70 8 69 28q0 25 -45 25h-3 q-3 0 -7 -1t-10 -1q0 -6 -4 -51z" />
<glyph unicode="&#xb4;" horiz-adv-x="518" d="M90 1548q0 31 70 125q61 80 98 115q43 39 76 39q37 0 65.5 -29t28.5 -63q0 -53 -96 -164q-98 -113 -146 -113q-37 0 -67 27q-29 24 -29 63z" />
<glyph unicode="&#x2000;" horiz-adv-x="911" />
<glyph unicode="&#x2001;" horiz-adv-x="1824" />
<glyph unicode="&#x2002;" horiz-adv-x="911" />
<glyph unicode="&#x2003;" horiz-adv-x="1824" />
<glyph unicode="&#x2004;" horiz-adv-x="606" />
<glyph unicode="&#x2005;" horiz-adv-x="454" />
<glyph unicode="&#x2006;" horiz-adv-x="303" />
<glyph unicode="&#x2007;" horiz-adv-x="303" />
<glyph unicode="&#x2008;" horiz-adv-x="227" />
<glyph unicode="&#x2009;" horiz-adv-x="364" />
<glyph unicode="&#x200a;" horiz-adv-x="100" />
<glyph unicode="&#x2010;" d="M172 666q0 96 190 96q27 0 50 -2h47q35 0 96 6q41 4 94 4q43 0 69.5 -24.5t26.5 -69.5q0 -57 -86 -84q-63 -23 -133 -23q-14 0 -133 4.5t-133 4.5q-37 0 -61 24q-27 27 -27 64z" />
<glyph unicode="&#x2011;" d="M172 666q0 96 190 96q27 0 50 -2h47q35 0 96 6q41 4 94 4q43 0 69.5 -24.5t26.5 -69.5q0 -57 -86 -84q-63 -23 -133 -23q-14 0 -133 4.5t-133 4.5q-37 0 -61 24q-27 27 -27 64z" />
<glyph unicode="&#x2012;" d="M172 666q0 96 190 96q27 0 50 -2h47q35 0 96 6q41 4 94 4q43 0 69.5 -24.5t26.5 -69.5q0 -57 -86 -84q-63 -23 -133 -23q-14 0 -133 4.5t-133 4.5q-37 0 -61 24q-27 27 -27 64z" />
<glyph unicode="&#x2013;" horiz-adv-x="835" d="M170 666q0 70 82 88q35 6 133 6q35 0 96 6q41 4 94 4q43 0 70 -24.5t27 -69.5q0 -40 -80 -68q-45 -16 -115 -24q-72 -6 -194 -6q-113 0 -113 88z" />
<glyph unicode="&#x2014;" horiz-adv-x="1253" d="M184 666q0 58 62 79q45 16 286 17h121q55 -2 121 -2q35 0 96 6q41 4 95 4q43 0 69 -25q29 -25 29 -69q0 -66 -94 -84q-41 -10 -146 -10q-152 0 -274.5 -2t-276.5 -2q-37 0 -61 24q-27 27 -27 64z" />
<glyph unicode="&#x2018;" horiz-adv-x="477" d="M113 1343q72 55 112 56q39 0 58 -43q4 -6 39 -117l19 -56.5t12 -38.5l3 -11q0 -39 -28.5 -61.5t-69.5 -22.5q-45 0 -70 43q-57 97 -75 251z" />
<glyph unicode="&#x2019;" horiz-adv-x="481" d="M119 1133q0 18 39 128.5t49 120.5q16 16 43 17q41 0 112 -56q-18 -156 -77 -251q-25 -43 -70 -43q-39 0 -67.5 22.5t-28.5 61.5z" />
<glyph unicode="&#x201c;" horiz-adv-x="688" d="M139 1323q68 76 117 76q39 0 57 -51q74 43 113 43q59 0 59 -78q0 -35 20.5 -94.5t20.5 -94t-26 -59.5q-29 -25 -64 -25q-39 0 -65 33q-25 -41 -76 -41q-53 0 -82 55q-45 91 -74 236z" />
<glyph unicode="&#x201d;" horiz-adv-x="686" d="M158 1124q0 37 20 93q23 61 23 90q0 8 -2 12v12q0 59 57 60q41 0 115 -43q18 51 55 51q49 0 117 -76q-29 -147 -72 -236q-29 -55 -84 -55q-51 0 -76 41q-27 -33 -63 -33q-35 0 -64 25q-26 24 -26 59z" />
<glyph unicode="&#x2022;" horiz-adv-x="792" d="M156 580q0 143 53 233q66 113 199 113q111 0 174 -107q57 -96 57 -209q0 -123 -55 -219q-63 -113 -183 -112q-127 0 -190 90q-55 78 -55 211z" />
<glyph unicode="&#x2026;" horiz-adv-x="1153" d="M180 71.5q0 51.5 47 102.5q46 49 99 49q51 0 84 -43q33 -41 32.5 -94t-36.5 -86q-39 -35 -87 -35q-53 0 -92 27q-47 28 -47 79.5zM442 78q0 55 45 102q45 49 101 49q51 0 81.5 -43t30.5 -96q0 -51 -34 -84q-39 -35 -86 -35q-51 0 -93 27q-45 27 -45 80zM707 80 q0 49 47 100q46 49 98 49q53 0 82 -41q33 -45 33 -96t-37 -84q-39 -35 -84 -35q-55 0 -92 25q-47 29 -47 82z" />
<glyph unicode="&#x202f;" horiz-adv-x="364" />
<glyph unicode="&#x205f;" horiz-adv-x="454" />
<glyph unicode="&#x20ac;" horiz-adv-x="1380" d="M68 526q0 76 90 105q40 12 153 12l2 45h-108q-41 0 -66 31q-27 33 -26 69q0 63 57 89q31 14 113 20q6 0 32.5 2t44.5 4q66 211 181 338q145 158 336 158q109 0 190 -70q82 -66 115 -172q2 -6 2 -24q0 -43 -27 -70q-31 -31 -70 -31q-53 0 -102 86q-47 84 -111 84 q-190 0 -301 -287q172 8 226 9q88 0 88 -101q0 -72 -84 -98q-33 -10 -148 -20q-43 -4 -141 -9l-4 -37q121 6 219 7q133 0 133 -109q0 -61 -67 -86q-63 -23 -281 -22q57 -293 311 -293q182 0 238 168q43 16 88 16q76 0 76 -72q0 -31 -27 -86q-100 -217 -377 -217 q-207 0 -342 131q-129 123 -162 334q-51 -2 -106 -2q-76 0 -102 14q-43 21 -43 84z" />
<glyph unicode="&#x2122;" horiz-adv-x="1816" d="M127 1303q0 43 26.5 69.5t71.5 26.5q29 0 234 -4t233 -4q137 0 187 -43q27 51 82 51q72 0 149 -160l113 -233q49 154 61 182q45 113 92 166q37 43 82 43q111 0 137 -160q12 -57 13 -242q0 -25 1 -59.5t1 -42.5l6 -94q0 -35 -29 -64q-27 -27 -65 -26q-109 0 -109 221 q-34 -123 -80 -185q-31 -43 -78 -43q-43 0 -84 23q-37 18 -108 174q-6 -209 -115 -209q-39 0 -69 31q-29 29 -29 70q0 47 4 83q6 55 6 87q0 70 -2 116q0 35 -1 74t-1 43q-23 -10 -74 -10h-178q4 -86 4 -109q0 -66 -2 -117v-114q0 -125 -94 -125q-109 0 -109 172 q0 55 2.5 100t2.5 101q0 16 -5 98h-104q-172 0 -172 113z" />
<glyph unicode="&#xe000;" horiz-adv-x="860" d="M0 860h860v-860h-860v860z" />
<glyph unicode="&#xfb01;" horiz-adv-x="1142" d="M862 55v168q8 106 9 393q0 219 108 220q88 0 88 -91q5 -28 5 -63q0 -53 -11 -123q-2 -49 -4 -109.5t-2 -74.5q-4 -186 -4 -191q-2 -94 -21 -190q-63 -29 -94 -29q-74 0 -74 90zM867 1038q0 39 28 74q27 33 70 33q46 0 80 -31q35 -31 35 -76q0 -43 -29 -77 q-27 -33 -74 -33q-43 0 -76 33q-34 34 -34 77zM31 639q0 68 110 68q0 256 60 409q104 283 309 283q121 0 195 -86q76 -88 75 -209q0 -117 -98 -117q-63 0 -84 55q-18 76 -23 103q-14 55 -57 55q-98 0 -147 -203q-31 -133 -31 -278q101 6 197 6q115 0 114 -94 q0 -100 -182 -101q-35 0 -63 2q-57 4 -64 5q14 -123 47 -519q-76 -53 -123 -53q-74 0 -73 154q-4 23 -9 82q-12 70 -37 329l-67 -2q-49 68 -49 111z" />
<glyph unicode="&#xfb02;" horiz-adv-x="1128" d="M858 1286q0 113 93 113q102 0 102 -166q0 -31 -2 -53.5t-2 -44.5q0 -106 10 -413.5t10 -414.5q0 -147 -16 -295q-66 -47 -109 -47q-70 0 -69 129v62q2 29 2 61q0 139 -10 535q-9 317 -9 534zM31 639q0 68 110 68q0 256 60 409q104 283 309 283q121 0 195 -86 q76 -88 75 -209q0 -117 -98 -117q-63 0 -84 55q-18 76 -23 103q-14 55 -57 55q-98 0 -147 -203q-31 -133 -31 -278q101 6 197 6q115 0 114 -94q0 -100 -182 -101q-35 0 -63 2q-57 4 -64 5q14 -123 47 -519q-76 -53 -123 -53q-74 0 -73 154q-4 23 -9 82q-12 70 -37 329 l-67 -2q-49 68 -49 111z" />
<glyph unicode="&#xfb03;" horiz-adv-x="1941" d="M1660 55v168q8 106 9 393q0 219 108 220q88 0 88 -91q5 -28 5 -63q0 -53 -11 -123q-2 -49 -4 -109.5t-2 -74.5q-4 -186 -4 -191q-2 -94 -21 -190q-63 -29 -94 -29q-74 0 -74 90zM1665 1038q0 39 28 74q27 33 70 33q46 0 80 -31q35 -31 35 -76q0 -43 -29 -77 q-27 -33 -74 -33q-43 0 -76 33q-34 34 -34 77zM830 639q0 68 110 68q0 256 60 409q104 283 309 283q121 0 195 -86q76 -88 75 -209q0 -117 -98 -117q-63 0 -84 55q-18 76 -23 103q-14 55 -57 55q-98 0 -147 -203q-31 -133 -31 -278q101 6 197 6q115 0 114 -94 q0 -100 -182 -101q-35 0 -63 2q-57 4 -64 5q14 -123 47 -519q-76 -53 -123 -53q-74 0 -73 154q-4 23 -9 82q-12 70 -37 329l-67 -2q-49 68 -49 111zM31 639q0 68 110 68q0 256 60 409q104 283 309 283q121 0 195 -86q76 -88 75 -209q0 -117 -98 -117q-63 0 -84 55 q-18 76 -23 103q-14 55 -57 55q-98 0 -147 -203q-31 -133 -31 -278q101 6 197 6q115 0 114 -94q0 -100 -182 -101q-35 0 -63 2q-57 4 -64 5q14 -123 47 -519q-76 -53 -123 -53q-74 0 -73 154q-4 23 -9 82q-12 70 -37 329l-67 -2q-49 68 -49 111z" />
<glyph unicode="&#xfb04;" horiz-adv-x="1927" d="M1656 1286q0 113 93 113q102 0 102 -166q0 -31 -2 -53.5t-2 -44.5q0 -106 10 -413.5t10 -414.5q0 -147 -16 -295q-66 -47 -109 -47q-70 0 -69 129v62q2 29 2 61q0 139 -10 535q-9 317 -9 534zM830 639q0 68 110 68q0 256 60 409q104 283 309 283q121 0 195 -86 q76 -88 75 -209q0 -117 -98 -117q-63 0 -84 55q-18 76 -23 103q-14 55 -57 55q-98 0 -147 -203q-31 -133 -31 -278q101 6 197 6q115 0 114 -94q0 -100 -182 -101q-35 0 -63 2q-57 4 -64 5q14 -123 47 -519q-76 -53 -123 -53q-74 0 -73 154q-4 23 -9 82q-12 70 -37 329 l-67 -2q-49 68 -49 111zM31 639q0 68 110 68q0 256 60 409q104 283 309 283q121 0 195 -86q76 -88 75 -209q0 -117 -98 -117q-63 0 -84 55q-18 76 -23 103q-14 55 -57 55q-98 0 -147 -203q-31 -133 -31 -278q101 6 197 6q115 0 114 -94q0 -100 -182 -101q-35 0 -63 2 q-57 4 -64 5q14 -123 47 -519q-76 -53 -123 -53q-74 0 -73 154q-4 23 -9 82q-12 70 -37 329l-67 -2q-49 68 -49 111z" />
</font>
</defs>
</svg>
