<?xml version="1.0" standalone="no"?>
<!DOCTYPE svg PUBLIC "-//W3C//DTD SVG 1.1//EN" "http://www.w3.org/Graphics/SVG/1.1/DTD/svg11.dtd" >
<svg xmlns="http://www.w3.org/2000/svg">
<metadata>
This is a custom SVG webfont generated by Font Squirrel.
Copyright   : Copyright c ShyFonts Type Foundry 2000 All rights reserved
Designer    : ShyFonts Type Foundry
Foundry URL : httpwwwshyfontscom
</metadata>
<defs>
<font id="webfonttkvYOza2" horiz-adv-x="829" >
<font-face units-per-em="2048" ascent="1638" descent="-410" />
<missing-glyph horiz-adv-x="417" />
<glyph unicode=" "  horiz-adv-x="417" />
<glyph unicode="&#x09;" horiz-adv-x="417" />
<glyph unicode="&#xa0;" horiz-adv-x="417" />
<glyph unicode="!" horiz-adv-x="389" d="M119 98q6 31 45 64t65 33q25 0 37 -35q14 -39 8 -64q-10 -33 -38 -57q-33 -29 -59.5 -29t-45 30.5t-12.5 57.5zM195 336q0 29 22 129q2 6 9 42l12 62l12 61.5t24.5 117l30.5 141.5l57 268l50 152q25 57 73 57q55 0 43 -57q-2 -14 -206 -973q-82 -33 -104.5 -33t-22.5 33z " />
<glyph unicode="&#x22;" horiz-adv-x="595" d="M410 1313q59 53 90 53q14 0 18 -23q8 -61 14 -120q10 -98 7 -109q-10 -47 -64 -47q-37 0 -45 37q-22 84 -20 209zM578 1305q6 23 32 36q29 16 60 17q18 0 12 -51q-8 -43 0 -93q8 -55 2 -90q-12 -49 -66 -49q-35 0 -40 37q-18 107 0 193z" />
<glyph unicode="#" horiz-adv-x="1093" d="M254 817q6 25 35 31q27 6 102 6h103l49 152q-108 0 -185 12q-4 27 2 65q6 27 23 33q4 2 39 2q55 0 166 6l76 207q43 16 73 17q35 0 29 -31l-59 -182q27 2 157 18q33 123 45 180q55 33 86 33q41 0 23 -86q-16 -70 -27 -113q74 8 199 9q98 0 86 -62q-12 -51 -72 -57 q-23 0 -59.5 -3t-91 -6.5t-95.5 -5.5q-23 -82 -53 -163q40 3 99 7l73 7q51 0 39 -62q-10 -41 -51 -53q-43 -12 -207 -24q-25 -68 -59 -146q-25 -45 -70 -45q-59 0 -47 66l7 21.5t16.5 44t19.5 53.5q-33 -2 -143 -3q-16 -49 -56 -161q-25 -59 -71 -60q-59 0 -47 60 q10 49 47 157h-189q-20 39 -12 76zM618 860q14 0 64.5 4t87.5 6q12 31 55 158q-84 -10 -157 -16z" />
<glyph unicode="$" horiz-adv-x="886" d="M152 354q6 23 28 43q20 18 49 19q23 0 47 -31q45 -68 66 -88q35 -43 82 -74l94 449q-231 137 -194 311q23 100 120 172q84 63 195 88l12 70q12 53 64 53q57 0 35 -111q94 -2 147 -59t33 -154q-43 -35 -80 -34q-16 0 -23 30q-10 47 -20 60q-20 31 -82 35q0 2 -9 -36 t-28.5 -131.5l-44.5 -205.5q274 -152 225 -389q-29 -131 -116 -219q-96 -98 -220 -99q-27 0 -43 4l-4 -26q-52 -31 -86 -31q-28 0 -18 49q4 20 8 35q-72 31 -141 96q-70 70 -92 144q-6 22 -4 30zM449 981q-16 -80 102 -164l35 166q2 8 7 30.5t7 37.5q9 52 12 67 q-143 -35 -163 -137zM522 184l12 -1q11 -1 21 -1q72 0 123 64q43 51 59 129q31 144 -123 239z" />
<glyph unicode="%" horiz-adv-x="1112" d="M299 1067q25 117 127 207q104 92 215 92q123 0 190 -80q63 -76 39 -201q-25 -120 -122 -196q-100 -78 -217 -78t-187 69.5t-45 186.5zM311 444q6 28 357 295q348 266 389 267q23 0 39 -21q16 -18 10 -43q-3 -18 -24.5 -36.5t-123.5 -86.5q-121 -82 -288 -211l-285 -215 q-41 10 -59.5 22.5t-14.5 28.5zM424 1071q-14 -68 20.5 -100.5t118.5 -32.5q61 0 113 41q51 43 63 102q14 68 -28.5 115t-112.5 47q-51 0 -106 -59q-56 -58 -68 -113zM526 266q25 121 123 211q100 90 219 90t186.5 -86t43.5 -205q-25 -117 -131 -198q-102 -78 -225.5 -78 t-182.5 72q-60 73 -33 194zM645 268q-31 -143 127 -143q74 0 127 41q53 43 70 110q14 76 -23 123t-112 47q-63 0 -119 -55q-54 -53 -70 -123z" />
<glyph unicode="&#x26;" horiz-adv-x="980" d="M231 281q31 147 220 383q-101 215 -62 411q25 119 109 203q90 88 207 88q98 0 149 -76q45 -74 25 -174q-35 -160 -281 -450q72 -135 193 -273q29 98 38 117q37 80 82 80q63 0 47 -76q-18 -82 -77 -219q31 -31 88 -80l-4 -12q-18 -84 -54 -84q-23 0 -94 65 q-70 -90 -178 -139q-98 -45 -211 -45q-125 0 -174.5 78t-22.5 203zM354 274q-31 -152 109 -151q68 0 149 41q78 39 123 102q-137 139 -227 291q-131 -172 -154 -283zM514 1067q-27 -129 31 -285q186 225 207 328q8 37 -15 86q-23 47 -57 47q-63 0 -111 -59q-40 -49 -55 -117 z" />
<glyph unicode="'" horiz-adv-x="368" d="M371 1327q59 39 86 39q14 0 18 -23q35 -184 29 -210q-12 -51 -74 -52q-25 0 -35 27q-36 98 -24 219z" />
<glyph unicode="(" horiz-adv-x="573" d="M209 287q-35 158 6 346q39 186 154 391q133 233 282 326q27 16 45 16q25 0 41.5 -18.5t12.5 -40.5q-2 -14 -62 -74q-53 -53 -74 -72q-218 -230 -282 -534q-74 -346 106 -539q-27 -88 -63 -88q-10 0 -17 6q-116 107 -149 281z" />
<glyph unicode=")" horiz-adv-x="573" d="M115 59q2 16 24 41q12 10 107 101q215 230 282 547q72 338 -106 530q27 88 63 88q6 0 17 -6q233 -218 147 -621q-39 -190 -155 -395q-131 -233 -285 -330q-23 -14 -45 -14q-25 0 -39 18q-16 18 -10 41z" />
<glyph unicode="*" horiz-adv-x="786" d="M256 786q2 14 231 166l-163 183q43 106 90 106q18 0 135 -131l20 98q20 92 25 99q25 59 74 59q57 0 39 -86l-45 -213l202 162q23 20 41 20q23 0 37 -20q16 -23 10 -45q-12 -59 -262 -226q49 -43 141 -135q23 -27 17 -53q-14 -63 -72 -63q-43 0 -176 131l-37 -181 q-53 -29 -86 -28q-20 0 -20 28q-2 45 24 170l-147 -94q-84 22 -78 53z" />
<glyph unicode="+" horiz-adv-x="673" d="M174 672q18 80 201 80q37 0 57 -2l47 227q12 59 72 59q51 0 49 -59q0 -41 -43 -238h188q53 0 41 -61q-16 -68 -161 -68q-74 0 -95 2l-47 -223q-12 -57 -67 -57q-51 0 -51 57q0 39 41 232q-14 0 -30 1t-24 2t-10 1q-18 0 -59 -6.5t-60 -6.5q-23 0 -39 19q-16 21 -10 41z " />
<glyph unicode="," horiz-adv-x="559" d="M158 -51l5 6q5 6 16 21.5t24 31.5q51 68 51 70q8 10 15 23.5t18 27.5q20 31 39 41q23 12 32 12q68 0 54 -63q-9 -43 -74 -123q-66 -82 -107 -105q-79 25 -73 58z" />
<glyph unicode="-" d="M293 666q6 35 47 47t217 12q33 0 96.5 6t96.5 6q61 0 49 -61q-16 -72 -201 -72q-12 0 -131 4q-59 2 -131 2q-55 1 -43 56z" />
<glyph unicode="." horiz-adv-x="468" d="M143 74q8 37 54 78q41 39 84 38q37 0 51 -32q16 -37 8 -72q-4 -31 -41 -59q-31 -25 -68 -25q-51 0 -73.5 18.5t-14.5 53.5z" />
<glyph unicode="/" horiz-adv-x="575" d="M39 55q2 14 78 158l426 803l71 158q43 94 88 149q37 43 74 43q63 0 51 -59q-10 -45 -75 -168l-480 -901q-33 -72 -110 -195q-35 -43 -72 -43q-63 0 -51 55z" />
<glyph unicode="0" horiz-adv-x="1167" d="M276 217q-46 169 7 418q57 268 166 455q158 276 366 276q250 0 342 -225q78 -195 23 -459q-51 -246 -205 -446q-184 -236 -416 -236q-222 0 -283 217zM410 651q-27 -129 12 -309q49 -213 160 -213q172 0 313 207q111 160 152 352q47 215 -9 367q-63 186 -260 186 q-109 0 -237 -246q-98 -188 -131 -344z" />
<glyph unicode="1" horiz-adv-x="520" d="M223 29q0 28 13 80q2 6 7 26.5t7 32.5q10 43 12 57q2 11 12 54l199 933q-121 -61 -151 -61q-57 0 -46 61q6 25 41 52q31 23 101 59q82 43 108 43q55 0 60 -59q0 -43 -27 -168q-6 -18 -51 -279q-53 -297 -96 -495q-47 -219 -82 -334q-55 -31 -86 -31q-21 0 -21 29z" />
<glyph unicode="2" horiz-adv-x="1001" d="M195 68q16 68 98 174q57 76 176 188l190 178q162 154 193 191q102 121 125 223q20 102 -45 162q-59 49 -164 49q-227 0 -270 -205q-4 -12 -4 -31q0 -16 -5 -32q-6 -31 -28 -47q-27 -20 -51 -21q-68 0 -37 154q29 145 155 233q119 82 271 82q162 0 248 -88q92 -94 57 -254 q-31 -150 -209 -340q-78 -80 -305 -289q-119 -109 -133 -121q-70 -68 -117 -137h516q63 0 51 -63q-14 -74 -612 -74q-57 0 -82.5 17.5t-17.5 50.5z" />
<glyph unicode="3" horiz-adv-x="1042" d="M154 213q6 25 32.5 45.5t49.5 20.5q16 0 106 -72q88 -70 180 -70q186 0 297 174q39 57 47 105q35 164 -159 256l-72 35q-49 23 -39 63q6 29 43 57l184 119q113 82 131 162q12 51 -57 92q-61 39 -117 39q-72 0 -157 -49q-78 -47 -136 -113h-12q-43 0 -62.5 9.5t-15.5 27.5 q4 12 11 19q66 100 180 167q113 66 223 66q121 0 205 -72q92 -76 67 -192q-31 -150 -274 -314q106 -55 162 -149q55 -102 30 -229q-33 -164 -186 -287t-317 -123q-94 0 -192.5 49t-141.5 121q-14 23 -10 43z" />
<glyph unicode="4" horiz-adv-x="1079" d="M217 604q2 12 8 30.5t15.5 50.5t15.5 56q35 125 90 379q2 8 14 78q2 16 6.5 44t6.5 36q18 88 61 88q37 0 53.5 -39t-34.5 -278q-33 -154 -64 -273q-41 -147 -43 -155q-10 -51 -10 -95q92 10 479 33q14 55 21.5 87t11.5 53.5t8 37.5q12 52 31 264q16 182 43 322 q10 41 57 41q37 0 45 -37q39 -154 -90 -762q20 2 39.5 2t32 1t23 1h13.5h3q61 0 49 -57q-12 -49 -80 -68q-33 -10 -109 -12l-30 -147q-18 -98 -31 -148q-27 -137 -102 -137q-66 0 -41 113l32 157q43 141 45 156q-270 -14 -403 -25q-119 -8 -123 -8q-86 0 -43 211z" />
<glyph unicode="5" horiz-adv-x="1058" d="M176 250q6 27 29 45q20 18 49 18q27 0 63 -45q53 -70 80 -90q59 -45 146 -45q129 0 241 98q113 96 140 226q28 135 -62 221q-84 80 -223 80q-82 0 -143.5 -55.5t-83.5 -55.5q-28 0 -43 19q-16 20 -11 47q25 106 76 284.5t76 284.5q12 55 31 68q20 14 73 14h224 q55 0 129.5 1t93.5 1q63 0 92 -17.5t21 -50.5q-12 -61 -123 -61q-295 0 -428 8q-2 -12 -6.5 -30.5t-10.5 -47t-24.5 -110.5t-42.5 -199q57 29 131 29q193 0 305 -119q119 -125 80 -311q-39 -184 -199 -322q-156 -135 -342 -135q-109 0 -205 61.5t-131 155.5q-6 19 -2 33z " />
<glyph unicode="6" horiz-adv-x="1052" d="M225 471q43 209 205 477q168 279 340 418q39 -6 57.5 -19.5t14.5 -33.5q0 -2 -15 -21q-203 -221 -319 -436q111 53 235 53q186 0 285 -118q98 -121 59 -304q-39 -186 -196 -333q-166 -154 -352 -154q-197 0 -279 139q-78 131 -35 332zM358 483q-34 -154 13 -245 q51 -104 200 -105q129 0 242 113q111 106 137 235q27 125 -41 211q-66 84 -192.5 84t-229.5 -84q-104 -86 -129 -209z" />
<glyph unicode="7" horiz-adv-x="876" d="M203 63q31 141 338 588l420 594h-302q-211 10 -303 10q-20 43 -14 76q6 35 737 35q57 0 45 -55q-6 -31 -196 -301l-236 -330q-172 -246 -268 -426q-35 -82 -105 -211q-29 -43 -63 -43q-28 0 -43 18q-16 18 -10 45z" />
<glyph unicode="8" horiz-adv-x="1118" d="M201 375q25 113 108 213q80 94 197 145q-106 84 -72 252q35 162 158 270q126 111 282 111q133 0 211 -104q74 -102 48 -240q-41 -184 -205 -283q92 -49 129 -143q37 -96 12 -211q-37 -178 -207 -287q-150 -98 -336 -98q-178 0 -270 100.5t-55 274.5zM328 379 q-25 -123 37 -184q63 -63 184 -64q135 0 239 59q123 70 150 195q29 139 -70 215q-88 66 -231 66q-100 0 -195 -93q-91 -90 -114 -194zM563 991q-37 -180 158 -180q90 0 172 61.5t100 145.5q18 86 -26 149q-47 66 -131 66q-220 0 -273 -242z" />
<glyph unicode="9" horiz-adv-x="1013" d="M219 821q43 206 252 375q211 170 416 170q125 0 188 -76q61 -72 33 -198q-12 -43 -21 -68q-45 -139 -129 -352l-141 -348q-57 -141 -135 -312q-37 -12 -66 -12q-20 0 -27 6t-5 21q12 57 98 268l119 289q-162 -104 -303 -105q-137 0 -223.5 100.5t-55.5 241.5zM350 813 q-18 -86 39 -139t141 -53q106 0 218 73q104 70 155 176q51 117 72 207q31 152 -117 152q-154 0 -315.5 -131t-192.5 -285z" />
<glyph unicode=":" horiz-adv-x="477" d="M145 72q8 39 52 78q41 39 82 38q39 0 53 -32q16 -37 8 -70q14 -37 -29 -61.5t-80 -24.5q-51 0 -72.5 18.5t-13.5 53.5zM285 637q9 40 43 80q33 39 69 39q40 0 68 -25q27 -23 20 -59q-10 -47 -63 -74q-37 -18 -92 -18q-57 0 -45 57z" />
<glyph unicode=";" horiz-adv-x="411" d="M70 -68l45 62l23.5 31.5l17.5 23.5t8 10l33 54q20 31 39 41q23 12 32 12q70 0 54 -66q8 -39 -64 -120q-68 -76 -117 -105q-39 12 -57 26.5t-14 30.5zM279 639q10 39 43 70q35 31 71 30q29 0 51 -22q20 -20 15 -55q-6 -33 -49 -64t-74 -31q-71 0 -57 72z" />
<glyph unicode="&#x3c;" horiz-adv-x="694" d="M190 750q4 20 27 47q45 47 225 202q193 162 222 162q23 0 34 -18q12 -16 9 -39q-6 -29 -91 -103l-116 -96q-45 -39 -142 -131l123 -102q57 -43 164 -150q18 -20 12 -41q-6 -23 -30 -45q-23 -20 -51.5 -20t-100.5 63l-50.5 47.5l-43.5 40.5q-37 25 -172 129q-25 25 -19 54 z" />
<glyph unicode="=" horiz-adv-x="854" d="M297 547q12 57 80 71q94 20 362 21q49 0 70.5 -17.5t13.5 -54.5q-10 -41 -57 -55q-98 -29 -397 -29q-43 0 -60.5 15.5t-11.5 48.5zM319 795q12 53 103 69q139 25 375 25q57 0 41 -66q-8 -37 -60 -59q-88 -35 -416 -35q-59 0 -43 66z" />
<glyph unicode="&#x3e;" horiz-adv-x="688" d="M317 473q6 31 91 105l114 94q55 47 146 133q-39 25 -123 98q-57 43 -166 152q-18 20 -14 39q6 27 30 47q23 20 54 20q27 0 98 -65l94 -86l41 -30.5l62.5 -48.5t66.5 -50q27 -23 20 -52q-4 -23 -28 -51q-35 -43 -221 -200q-193 -162 -224 -162q-23 0 -35 18.5t-6 38.5z " />
<glyph unicode="?" horiz-adv-x="825" d="M283 479q18 92 172 242l278 256q152 143 164 203q2 8 -10 24q-45 45 -144 45q-74 0 -172 -24q-111 -27 -155 -78q-55 -37 -90 -37q-29 0 -19 41q23 104 209 168q147 47 270 47q100 0 172 -45q82 -53 62 -150q-18 -86 -172 -239l-275 -256q-150 -139 -161 -203 q-6 -23 75 -33q16 -2 51 -4t52 -4q53 -12 45 -57q-16 -70 -123 -70q-133 0 -190 43t-39 131zM328 78q9 34 30 67q29 41 60 41q35 0 61 -22q25 -23 19 -58q-10 -39 -49 -71q-41 -35 -78 -35q-59 0 -43 78z" />
<glyph unicode="@" horiz-adv-x="1318" d="M260 621q20 98 70 182q119 201 293 325q188 135 391 136q190 0 293 -142q96 -141 55 -329q-34 -154 -123 -289q-115 -168 -252 -168q-133 0 -160 113q-76 -45 -159 -46q-92 0 -141.5 53.5t-28.5 143.5q25 123 151.5 219t247.5 96q43 0 74 -8q4 -35 -2 -61 q-10 -41 -39 -41q-12 0 -23 2q-20 4 -22 4q-78 0 -166 -66q-86 -66 -103 -145q-8 -37 12.5 -55.5t69.5 -18.5q76 0 152 92q52 135 104 191q29 29 56 29q66 0 53 -62q-14 -72 -66 -147q-31 -51 -36 -78q-18 -82 55.5 -82t142.5 135q53 106 74 201q28 129 -43 227 q-72 100 -199 101q-223 0 -405 -189q-158 -162 -195 -336q-28 -135 37 -233q66 -98 193 -117q23 -4 75 -4q43 0 106.5 8t104.5 8q55 0 41 -67q-8 -39 -59 -60q-61 -25 -213 -24q-213 0 -322 110q-145 152 -94 392z" />
<glyph unicode="A" horiz-adv-x="999" d="M330 588l352 612q18 41 72 123q27 31 45 37q12 6 49 6q25 0 35 -27q25 -65 37 -172l12 -182q18 -205 35 -475q16 -260 16 -373q0 -56 -4 -76q-6 -23 -29 -43q-20 -18 -47 -18q-33 0 -43 41q-3 10 -3 51q0 26 1 70q1 13 1 35q0 80 -9 241h-33q-66 0 -233.5 -16t-231.5 -16 l-225 -394q-33 -12 -64 -12q-34 0 -33 20q0 17 16 54.5t65 126.5l87 156zM426 537q113 6 209 14q132 12 209 12q-23 309 -58 602z" />
<glyph unicode="B" horiz-adv-x="1130" d="M125 74q0 23 2 32q12 63 43 64q39 0 113 -27l26 125q29 100 33 125l90 424q27 256 62 422q-82 -4 -123 -8q-50 24 -51 52q0 4 2 9q14 74 188 74q283 0 475 -82q220 -92 220 -272q0 -36 -9 -76q-35 -166 -246 -240q111 -43 170 -121q55 -67 56 -147q0 -27 -7 -55 q-43 -199 -264 -295q-174 -78 -393 -78q-230 0 -387 74zM391 127q86 -8 119 -8q174 0 307 45q195 66 221 205q3 14 3 28q0 84 -113 152q-94 55 -223 78q-49 2 -146 24q-41 18 -35 58q6 25 26.5 45t47.5 20q25 0 45.5 -2t44.5 -2q111 0 221 37q143 51 164 141q4 21 5 40 q0 114 -156 186q-137 59 -312 59q-10 -61 -90 -432q-31 -264 -65 -441q-25 -118 -64 -233z" />
<glyph unicode="C" horiz-adv-x="937" d="M166 580q59 272 240 505q215 281 462 281q86 0 162 -72q67 -62 67 -131q0 -15 -3 -30q-16 -66 -78 -66q-31 0 -49 43q-33 76 -37 84q-31 43 -92 43q-188 0 -361 -252q-137 -199 -184 -418q-17 -80 -17 -148q0 -92 31 -161q63 -137 246 -137q207 0 301 174q35 10 64 10 q41 0 32 -37q-2 -14 -39 -71q-133 -197 -385 -197q-240 0 -331 176q-49 94 -49 224q0 83 20 180z" />
<glyph unicode="D" horiz-adv-x="1021" d="M72 109q6 27 30.5 45t49.5 18q31 0 59 -14q39 203 217 1042q-23 -6 -39 -6q-41 0 -31 41q51 84 136 113q55 18 165 18q272 0 402 -215q83 -134 82 -307q0 -83 -19 -172q-57 -276 -284 -471q-231 -201 -504 -201q-78 0 -162 23q-104 28 -103 75q0 6 1 11zM311 137 q18 -2 54 -2q221 0 403 160q180 160 227 385q15 71 15.5 138.5t-15.5 131.5q-33 141 -127 215q-102 80 -278 80q-33 0 -47 -2z" />
<glyph unicode="E" horiz-adv-x="866" d="M92 127l133 588q109 479 131 585q16 66 625 66q72 0 106 -10q42 -13 43 -47q0 -6 -2 -13q-12 -55 -63 -55q-27 0 -248 4t-248 4q-92 0 -114 2q-31 -182 -93 -481h213q10 0 52.5 1t72.5 1h125q49 0 50 -36q0 -8 -3 -17q-12 -51 -71 -64q-37 -6 -119 -6h-98h-250l-115 -534 q276 12 555 12q88 0 88 -48q0 -7 -2 -16q-12 -61 -100 -61h-279q-70 0 -163 -1t-117 -1q-78 0 -103 25q-14 14 -14 44q0 24 8 58z" />
<glyph unicode="F" horiz-adv-x="845" d="M78 29l129 612l127 612q16 72 53 95q31 18 633 18q104 0 104 -52q0 -7 -2 -14q-12 -57 -69 -57h-121q-53 2 -119 2q-70 0 -125 -2t-125 -2q-41 0 -123 4l-98 -471q329 6 430 6q120 0 120 -57q0 -7 -1 -14q-12 -53 -64 -54q-41 0 -75.5 2t-75.5 2q-76 0 -135.5 -2 t-225.5 -2l-133 -626q-51 -29 -84 -29q-22 0 -21 19q0 5 1 10z" />
<glyph unicode="G" horiz-adv-x="1001" d="M188 690q53 250 207 443q187 233 412 233q205 0 307 -205q-41 -72 -80 -71q6 0 -80 73q-88 76 -166 76q-172 0 -313 -195q-115 -160 -156 -350q-21 -100 -21 -185q0 -103 32 -185q68 -188 272 -189q84 0 143 35q47 27 115 106q15 18 19 31l71 332h-30q-35 0 -107 -6 t-108 -6q-66 0 -121 18q-7 20 -7 42q0 14 3 28q6 31 57 37q-2 0 -2 -1t70 -1q49 0 151 6q135 8 153.5 8t22.5 -2q31 -8 41 -18.5t10 -47.5q0 -7 1 -14q0 -50 -19 -143q-25 -98 -31 -133q-2 -6 -28 -134q-46 -218 -80 -276q-35 -59 -82.5 -59t-47.5 41q0 9 3 20q6 29 18 70 q-111 -68 -248 -68q-258 0 -356 225q-49 114 -49 254q0 98 24 211z" />
<glyph unicode="H" horiz-adv-x="1034" d="M78 55l268 1272q70 33 98 33q27 0 21 -33l-59 -278l-58 -281q66 -2 121 -2q106 0 240 10q160 12 237 12q12 0 38 -1t36 -1q4 12 27 132q16 96 24 133q33 156 74 284q47 31 82 31q21 0 21 -38q0 -18 -5 -42l-131 -596l-129 -596q-20 -94 -78 -94q-17 0 -17 57 q0 138 99 602q-457 -20 -514 -20q-72 0 -149 8l-60 -276l-61 -277q-20 -94 -82 -94q-45 0 -45 37q0 8 2 18z" />
<glyph unicode="I" horiz-adv-x="460" d="M78 80q9 37 117 37q18 125 124 620q8 53 50 250q20 121 47 252q-49 3 -99 12q-6 25 -6 45q0 12 2 23q10 37 54 37q2 0 9 -1t11 -1t10 -1t9 -1q43 0 129 6q115 8 127 8q46 0 46 -36q0 -6 -1 -13q-12 -51 -76 -66q-25 -8 -107 -10q-8 -86 -90 -469l-135 -653q74 0 98 -4 q42 -11 43 -48q0 -7 -2 -14q-12 -53 -274 -53q-53 0 -74 2q-14 28 -14 57q0 11 2 21z" />
<glyph unicode="J" horiz-adv-x="868" d="M90 401q12 55 31 97q43 18 76 18q37 0 28 -39l-8 -20q-2 -6 -4 -13.5t-2 -9.5q-9 -44 -9 -84q0 -68 25 -123q47 -100 162 -100q316 0 449 621q29 147 39 221q0 2 2 20.5t7 60.5t11 87q10 102 25 170q12 59 71 59q49 0 56 -59q0 -39 -17 -138q-2 -10 -5 -35.5l-10 -81 l-13 -104.5q-23 -162 -35 -221q-61 -287 -187 -471q-170 -256 -415 -256q-162 0 -238 123q-50 79 -50 179q0 47 11 99z" />
<glyph unicode="K" horiz-adv-x="915" d="M88 28.5q0 28.5 33 178.5l108 532l107 533q20 94 80 94q17 0 17 -56q0 -139 -103 -618l565 549q37 37 111 105q27 20 43 20q23 0 38 -20q10 -12 11 -30q0 -8 -2 -16q-2 -12 -23 -38q-8 -10 -125 -121l-428 -416q59 -78 174 -299l121 -227q16 -20 59 -107q6 -12 3 -29 q-8 -29 -29 -45q-25 -18 -49 -18q-16 0 -35 18.5t-57 100.5l-127 246q-88 154 -150 276q-51 -49 -131 -115l-55 -268q-33 -162 -51 -229q-47 -29 -84 -29q-21 0 -21 28.5z" />
<glyph unicode="L" horiz-adv-x="839" d="M129 14q-18 10 -18 65q0 66 26 193q35 162 99 502q27 150 98 504q18 88 82 88q47 0 47 -66q0 -27 -8 -63q-2 -6 -7.5 -24.5t-7.5 -28.5q-10 -45 -12 -51q-23 -104 -82 -412l-82 -410q-2 -12 -41 -192h277q219 8 264 8q92 0 92 -48q0 -7 -2 -16q-12 -57 -94 -57 q-115 0 -209 -2q-188 -4 -211 -4q-180 0 -211 14z" />
<glyph unicode="M" horiz-adv-x="1206" d="M88 55l10 41q9 28 13 43q10 47 102 527l106 528q16 76 33 109q25 55 72 55q16 0 35 -15q14 -10 10 -30q0 -6 -2 -10q16 -74 113 -598l92 -492l456 813l93 168q70 131 90 147q28 25 55 25q48 0 48 -62q0 -23 -7 -53l-260 -1222q-47 -29 -84 -29q-25 0 -25 36q0 34 35 197 l78 377l78 377l-406 -723l-53 -102q-33 -70 -59 -96q-47 -53 -90 -54q-29 0 -48 43q-10 25 -38 199l-134 747l-59 -282q-12 -68 -55 -285q-43 -205 -99 -405q-47 -29 -79 -29q-24 0 -24 30q0 11 3 25z" />
<glyph unicode="N" horiz-adv-x="999" d="M129 0q-15 0 -15 51q0 147 128 744q18 76 43 217q18 113 41 217q23 109 51 125q9 6 49 6q28 0 37 -12q74 -86 151 -297q25 -59 111 -328q68 -205 147 -475l119 563l51 258q41 205 52 256q4 16 34 31q27 10 45.5 10t22.5 -31q1 -8 1 -17q0 -82 -46 -292l-205 -971 q-12 -55 -98 -55q-23 0 -41 27q-25 43 -39 100l-25 104q-145 535 -313 918l-197 -932q0 -4 -3 -21.5t-5 -31.5t-6 -32.5t-4 -22.5q-23 -109 -86 -109z" />
<glyph unicode="O" horiz-adv-x="1046" d="M174 592q59 274 211 493q195 281 436 281q231 0 309 -250q35 -109 36 -235q0 -106 -25 -222q-55 -258 -205 -440q-176 -219 -416 -219q-236 0 -321 186q-46 95 -46 221q0 86 21 185zM295 602q-21 -98 -21 -176q0 -92 29 -158q68 -145 268 -145q162 0 295 194 q106 162 144 338q23 108 23 209q0 54 -7 107q-25 182 -137 243q-49 27 -80 27q-59 0 -143 -39q-145 -66 -252 -262q-78 -148 -119 -338z" />
<glyph unicode="P" horiz-adv-x="1044" d="M162 53q10 41 20.5 97.5t26.5 128.5l53 223q-57 13 -57 55q0 8 2 16q6 29 30.5 47.5t53.5 12.5l131 608l-76 -6q-21 32 -21 58q0 9 3 18q12 55 270 55q276 0 459 -113q171 -112 171 -298q0 -48 -11 -101q-47 -211 -269 -311q-172 -82 -405 -82q-96 0 -176 12l-82 -381 q-22 -92 -80 -92q-45 0 -45 36q0 8 2 17zM393 606q70 -12 162 -12q172 0 307 45q190 66 221 209q9 42 9 79q0 161 -160 242q-145 76 -395 76q-81 -338 -144 -639z" />
<glyph unicode="Q" horiz-adv-x="1032" d="M160 592q59 270 215 493q195 281 432 281q231 0 311 -250q33 -109 34 -232q0 -108 -26 -225q-84 -389 -344 -573q38 -151 38 -190q0 -25 -29 -50q-18 -16 -47 -16t-42 31l-1 6q-1 6 -4 19.5t-5 27.5q-6 45 -26 113q-78 -27 -158 -27q-238 0 -324 186q-46 95 -45 221 q0 86 21 185zM283 600q-20 -95 -20 -171q0 -87 26 -153q59 -152 270 -151q33 0 76 12q-41 139 -74 240q43 68 78 67q39 0 113 -239q187 163 252 467q21 95 20.5 184.5t-20.5 173.5q-52 209 -222 209q-193 0 -342 -235q-108 -177 -157 -404z" />
<glyph unicode="R" horiz-adv-x="1032" d="M135 53l41 193l20.5 87l16.5 68.5t8 34.5l170 791l-24 -6q-44 35 -44 66q0 23 33 37t105 26q98 16 160 16q250 0 405 -70q178 -79 178 -239q0 -34 -8 -72q-45 -217 -455 -367q31 -82 97 -243l73 -160q46 -108 46 -146q0 -27 -29 -49q-25 -18 -49 -18q-51 0 -107 135 l-61 187l-97 251q-147 -41 -258 -40l-90 -422q-25 -113 -88 -113q-45 0 -45 36q0 8 2 17zM385 666q158 0 387 88q274 102 301 237q4 19 4 37q0 113 -166 172q-127 47 -311 47q-41 0 -90 -6q-29 -120 -125 -575z" />
<glyph unicode="S" horiz-adv-x="897" d="M111 342q6 23 32 43q25 18 52 18q29 0 45 -47q2 -14 16 -61q25 -74 104 -119q74 -43 160 -43q111 0 187 64q82 70 102 172q4 17 4 33q0 37 -18 75q-25 51 -156 131q-174 104 -242 172q-105 105 -105 217q0 24 5 50q27 127 151.5 223t253.5 96q119 0 207 -71.5t97 -180.5 q-51 -47 -84 -47q-14 0 -35 45q-27 57 -60 86q-51 45 -141 45q-80 0 -162 -57.5t-98 -136.5q-3 -13 -3 -27q0 -32 15 -61q41 -90 197 -185q194 -114 233 -153q78 -78 78 -186q0 -35 -8 -75q-35 -162 -160 -260q-131 -102 -284 -102q-158 0 -263 86q-102 86 -118 238 q-2 6 -2 18z" />
<glyph unicode="T" horiz-adv-x="997" d="M297 1323q2 18 37 29q61 14 819 14q112 0 112 -55q0 -6 -1 -13q-12 -57 -70 -57h-201q-125 2 -198 2q-158 -784 -168 -827l-82 -387q-57 -29 -88 -29q-25 0 -25 35q0 14 4 35q4 10 6 26q6 14 7 23l51 239q57 305 180 885q-45 0 -92 -2q-39 -2 -94 -2q-76 0 -183 10 q-16 29 -16 57q0 9 2 17z" />
<glyph unicode="U" horiz-adv-x="966" d="M197 698q28 123 79 314l91 313q53 33 84 33q25 0 18.5 -33t-72.5 -291q-45 -178 -69 -293q-44 -207 -45 -344q0 -270 172 -270q359 0 534 823q16 76 35 178q8 47 21.5 109.5t15.5 69.5q12 59 69 59q43 0 54 -59q1 -5 0 -12q0 -59 -43 -267q-219 -1026 -709 -1026 q-277 0 -276 362q0 140 41 334z" />
<glyph unicode="V" horiz-adv-x="913" d="M303 1305q57 53 90 53q14 0 21 -25q10 -51 18 -180l6 -182q25 -459 74 -748l55 115l152 307q33 61 221 453q28 52 74 153q20 51 30 72q27 43 62 43q27 0 45 -23q12 -14 12 -31q0 -7 -2 -16q0 1 -3 -6q-2 -5 -3 -8l-147 -326l-334 -675q-43 -92 -66 -134q-41 -78 -84 -114 q-39 -33 -67 -33q-33 0 -51 47q-4 10 -15 80q-23 133 -41 276q-35 306 -47 902z" />
<glyph unicode="W" horiz-adv-x="1472" d="M332 1300q55 59 86 60q10 0 16 -19q14 -35 23 -118q47 -411 47 -891v-58q231 496 358 856q8 27 17.5 52.5t15.5 44.5q20 55 43 94q29 45 59 45q25 0 43 -18q37 -41 37 -166q0 -338 62 -916l299 713q20 45 102 242q12 37 45 102q31 43 62 43q25 0 39 -18q16 -18 12 -41 q-3 -6 -363 -867l-118 -268q-10 -27 -58 -119q-41 -53 -69 -53q-33 0 -52 41q-12 27 -24 197l-37 405q-19 210 -19 368v44q-213 -551 -403 -924q-10 -23 -47 -80q-47 -53 -84 -53q-31 0 -43 39q-9 29 -9 77q0 14 1 29l6 109q2 69 2 146q0 369 -49 902z" />
<glyph unicode="X" horiz-adv-x="987" d="M307 319l260 316q-68 160 -141 364l-55 152q-31 94 -39 160q49 55 84 55q12 0 18 -16q14 -29 55 -164q45 -145 168 -432l304 389q35 57 137 188q29 29 49 29q25 0 39 -19q10 -12 10 -26q0 -7 -2 -15q-12 -57 -489 -655q240 -542 239 -588v-2q-6 -25 -26 -39 q-23 -16 -47.5 -16t-43.5 27q-8 10 -65 163l-152 338l-434 -528h-8q-81 0 -81 31q0 20 156 210z" />
<glyph unicode="Y" horiz-adv-x="980" d="M297 1292q45 70 80 70q20 0 55 -84q43 -104 207 -475q143 139 346 356q41 55 150 176q35 31 53 31q25 0 41 -18q12 -14 12 -31q0 -6 -2 -12q-14 -59 -256 -320l-313 -326q-39 -221 -90 -466q-16 -76 -45 -164q-45 -29 -78 -29q-26 0 -27 51q0 34 12 90q2 12 11.5 47 t13.5 56q20 94 22 100l66 307q-143 272 -258 641z" />
<glyph unicode="Z" horiz-adv-x="950" d="M43 55q6 27 129 162l449 500q252 289 415 522q-111 -6 -331 -6q-219 0 -330 -6q-19 40 -19 70q0 11 2 20q6 23 43 35q49 12 123 12q33 0 61.5 -2t63.5 -2q139 0 252 2q225 4 250 4q49 0 49 -40q0 -8 -2 -17q-12 -59 -178 -281q-319 -426 -807 -915q428 8 676 8 q45 0 45 -35q0 -8 -2 -18q-8 -49 -76 -62q-25 -4 -98 -4h-135q-35 0 -80 -1t-58 -1q-16 0 -81.5 1t-114.5 1h-199q-49 0 -49 37q0 7 2 16z" />
<glyph unicode="[" horiz-adv-x="692" d="M213 84q0 10 252 1202q16 55 70 68q25 6 122 6q41 0 72 2q61 4 72 4q59 0 85.5 -18.5t18.5 -53.5q-12 -53 -94 -53h-29h-26q-178 0 -185 -31q-16 -86 -147 -700l-29 -139q-6 -23 -13 -54.5t-12 -51t-8 -34.5q-15 -77 -24 -110q164 10 219 10q53 0 77.5 -15.5t16.5 -47.5 q-12 -53 -96 -66q-29 -4 -123 -4q-113 0 -168 16q-51 15 -51 70z" />
<glyph unicode="\" horiz-adv-x="573" d="M303 1311q12 55 76 55q35 0 53 -43q9 -28 31 -203l69 -735q6 -43 12.5 -85t10.5 -81q12 -123 4 -160q-12 -59 -74 -59q-37 0 -55 43q-23 53 -24 158q0 6 -37 475q-22 160 -56 479q-14 133 -10 156z" />
<glyph unicode="]" horiz-adv-x="696" d="M76 72q12 55 94 55q4 0 13.5 -1t15.5 -1h28q176 0 183 33q2 8 20.5 95l63.5 297l92 435l29.5 146.5l23.5 109.5q-61 -4 -213 -4q-57 0 -82 15.5t-18 47.5q16 66 272 66q109 0 139 -18q47 -29 25 -127l-125 -570l-123 -571q-12 -49 -65 -66q-55 -16 -177 -16q-98 0 -127 4 q-81 13 -69 70z" />
<glyph unicode="^" horiz-adv-x="798" d="M336 1096q10 45 123 143q106 92 157 113q43 14 62 14q63 0 137 -84q61 -63 96 -135q12 -23 9 -43q-6 -29 -29 -47q-23 -20 -49 -21q-20 0 -101 101q-80 102 -94 102q-16 0 -115 -80l-120 -102q-43 0 -61.5 9.5t-14.5 29.5z" />
<glyph unicode="_" horiz-adv-x="1316" d="M176 -92l21 92h921l-20 -92h-922z" />
<glyph unicode="`" horiz-adv-x="421" d="M426 1735q6 23 31 41q23 16 51 16q16 0 37 -14q29 -23 82 -105q53 -86 47 -117q-6 -27 -31 -45t-51 -18q-25 0 -49 33q-125 172 -117 209z" />
<glyph unicode="a" horiz-adv-x="827" d="M127 393q33 168 190 297t326 129q92 0 162 -39q23 49 69 49t47 -67q0 -31 -10 -76q-12 -61 -53 -223q-43 -172 -53 -221q-20 -84 -27 -174q-59 -53 -90 -54q-20 0 -20 44q0 18 4 44q-152 -102 -297 -102q-158 0 -223 121q-37 68 -37 160q0 52 12 112zM258 383 q-8 -36 -8 -69q0 -53 20 -99q33 -80 127 -80q139 0 293 129l39 182q41 156 47 185q-33 10 -80 33q-45 23 -84 22q-119 0 -223 -92q-106 -94 -131 -211z" />
<glyph unicode="b" horiz-adv-x="792" d="M86 113l127 565l125 565q25 123 92 123q46 0 46 -62q0 -24 -7 -59l-104 -497q86 68 210 67q166 0 250 -129q52 -85 52 -190q0 -49 -11 -103q-35 -162 -168 -276q-135 -117 -295 -117q-127 0 -206 88l-13 -39q-46 -31 -80 -31q-25 0 -25 42q0 22 7 53zM248 295 q-2 -6 4 -21q35 -76 67 -102q45 -41 119 -41q6 0 27 4q227 49 274 264q8 38 9 73q0 69 -33 126q-51 92 -164 92q-125 0 -240 -98z" />
<glyph unicode="c" horiz-adv-x="757" d="M117 358q27 133 133 252q109 121 239 174q86 35 150 35q74 0 123 -53t47 -127q-51 -57 -84 -57q-8 0 -37 55q-27 53 -74 53q-102 0 -217 -102q-121 -109 -141 -205q-9 -46 -9 -84q0 -50 15 -86q35 -78 133 -78q74 0 190.5 74t129.5 74q29 0 43 -21q16 -23 10 -47 q-2 -6 -16 -29q-66 -78 -179 -133q-109 -53 -206 -53q-141 0 -213 109q-46 72 -47 163q0 41 10 86z" />
<glyph unicode="d" horiz-adv-x="749" d="M94 393q33 162 164 289q145 139 301 139q86 0 156 -51l51 244q9 49 25 147q4 33 26 148q12 57 68 57q45 0 49 -57q4 -29 -19 -125q-45 -250 -120 -611q-74 -342 -95 -528q-47 -33 -84 -33q-25 0 -25 30q0 15 7 36q-119 -78 -233 -78q-154 0 -232 121q-50 77 -50 176 q0 46 11 96zM227 399q-8 -41 -8 -76q0 -61 25 -110q47 -86 147 -86q125 0 221 90q16 123 72 391q-63 82 -156 82q-102 0 -192 -96q-89 -95 -109 -195z" />
<glyph unicode="e" horiz-adv-x="806" d="M127 395q35 158 170 287q150 139 301 139q106 0 168 -92q51 -72 61 -190q2 -18 2 -31t-2 -23q-8 -41 -69 -59q-90 -25 -334 -25q-119 0 -164 5q-6 -32 -6 -61q0 -75 41 -132q57 -80 168 -80q63 0 169.5 53.5t121.5 53.5q25 0 43 -18.5t12 -43.5q-4 -18 -29 -41 q-55 -57 -164 -98q-106 -39 -182 -39q-158 0 -250 119q-67 87 -66 193q0 39 9 83zM311 514q102 0 389 25q-23 152 -137 151q-68 0 -141 -59q-62 -49 -111 -117z" />
<glyph unicode="f" horiz-adv-x="718" d="M162 639q6 33 119 33q57 279 147 432q152 262 334 262q102 0 153 -82q33 -49 33 -112q0 -32 -8 -68q-18 -82 -82 -82q-45 0 -45 53q0 18 -1 53t-1 52q-12 55 -70 55q-12 0 -24 -6q-209 -80 -307 -547q117 6 233 6q71 0 71 -43q0 -7 -1 -14q-12 -53 -324 -53l-67 -541 q-59 -37 -95 -37q-23 0 -26 35q-1 6 -1 12q0 22 9 72q12 66 12 84q6 35 19 182q10 125 22 180h-86q-16 32 -16 58q0 8 2 16z" />
<glyph unicode="g" horiz-adv-x="784" d="M59 -170q6 25 31 43t51 18q23 0 76 -73.5t127 -73.5q158 0 258 309q-106 -53 -196 -53q-156 0 -236 133q-53 87 -53 191q0 45 10 94q33 160 164 278q131 123 289 123q100 0 165 -51q55 31 93 31q27 0 26 -39q0 -33 -18 -119q-16 -84 -29 -188q-14 -121 -31 -189 q-137 -655 -469 -655q-84 0 -159 55q-74 53 -97 133q-3 10 -3 19q0 6 1 14zM258 424q-7 -34 -7 -66q0 -72 34 -131q55 -96 159 -96q41 0 103 29l98 49q14 66 64 407q-53 78 -150 78q-102 0 -190 -82q-91 -84 -111 -188z" />
<glyph unicode="h" horiz-adv-x="798" d="M104 96q4 23 13.5 62t21.5 98l19.5 92t15.5 68l148 688q20 219 22 231q6 31 64 31q47 0 53 -59q2 -35 -25 -164l-49 -230q-27 -174 -37 -229q147 154 320 154q178 0 211 -158q8 -37 8 -85q0 -90 -29 -226q-47 -213 -94 -310q-29 -59 -80 -59q-49 0 -49 40q0 9 2 19 q10 51 53 189q41 133 56 188q15 69 14 122q0 155 -129 155q-98 0 -201 -103q-82 -84 -133 -194q-59 -276 -94 -387q-47 -29 -82 -29q-25 0 -26 43q0 22 7 53z" />
<glyph unicode="i" horiz-adv-x="227" d="M55 55q6 29 15.5 70t21.5 98q23 80 84 359q23 106 51 166q27 55 72 55q43 0 43 -39q0 -8 -2 -19q-4 -74 -45 -186q-20 -78 -30.5 -123l-14.5 -61q-6 -31 -18.5 -80t-22.5 -98q-31 -117 -57 -181q-35 -16 -68 -16q-31 0 -31 33q-1 10 2 22zM270 1038q14 72 78 72 q35 0 53 -20q14 -16 14 -37q0 -7 -1 -15q-8 -33 -31 -53q-27 -23 -51 -22q-31 0 -49 22q-14 16 -14 39q-1 7 1 14z" />
<glyph unicode="j" horiz-adv-x="589" d="M-14 -84q47 29 86 29q20 0 20 -29q2 -102 6 -131q18 -80 78 -80q109 0 197 205q47 109 86 291q23 98 47 249.5t47 249.5q20 100 86 101q47 0 47 -51q0 -15 -4 -35q-25 -117 -47 -252q-25 -145 -47 -254q-66 -246 -127 -385q-127 -238 -303 -238q-113 0 -160 113 q-22 57 -22 124q0 44 10 93zM608 1047q14 63 78 63q68 0 68 -54q0 -10 -2 -22q-6 -29 -33 -47t-53 -18q-60 0 -60 53q-1 11 2 25z" />
<glyph unicode="k" horiz-adv-x="757" d="M78 57q39 178 57 252q53 221 144 647q23 104 34 174l35 179q12 57 70 57q45 0 49 -47q0 -12 -29 -145q-25 -121 -35 -181q-27 -141 -34 -182l-76 -354l244 153q98 61 297 203q80 -9 80 -38q0 -8 -13 -21q-80 -92 -364 -269q37 -55 131 -219q95 -169 94 -209 q0 -22 -27 -41q-23 -16 -47 -16q-20 0 -43 27q-14 16 -70 131q-72 150 -139 266l-182 -115q-49 -203 -82 -293q-35 -16 -68 -16q-30 0 -29 32q0 11 3 25z" />
<glyph unicode="l" horiz-adv-x="245" d="M88 94q3 22 12 62q14 53 17 61q37 178 104 535q45 238 107 534q16 80 73 80q44 0 44 -65q0 -29 -9 -72q-8 -39 -10 -47q-2 -12 -6 -27.5t-4 -19.5q-39 -193 -78 -414q-57 -317 -78 -414q-29 -145 -72 -276q-49 -31 -84 -31q-24 0 -24 39q0 21 8 55z" />
<glyph unicode="m" horiz-adv-x="1095" d="M80 80q0 2 8 38t25.5 122t38.5 180q18 76 81 362q57 29 91 29q23 0 22 -27q0 -11 -4 -26q90 66 182 65q143 0 185 -121q111 117 237 117q199 0 199 -230q0 -75 -21 -173q-14 -72 -44.5 -178.5t-45.5 -178.5q-12 -59 -73 -59q-46 0 -46 62q0 24 7 59q18 80 39 153 q39 141 40 152q17 78 17 135q0 138 -98 137q-115 0 -199 -139q-2 -66 -19 -137q-12 -63 -45 -178q-39 -139 -47 -178q-12 -61 -73 -62q-46 0 -46 64q0 25 7 59q2 10 41 152q35 127 39 151q17 81 17 138q0 134 -97 134q-104 0 -189 -122l-100 -469q-25 -111 -88 -111 q-45 0 -45 47q0 14 4 33z" />
<glyph unicode="n" horiz-adv-x="747" d="M80 80q25 111 72 340q18 76 81 362q57 29 86 29q25 0 25 -34q0 -14 -4 -34q106 80 229 80q230 0 231 -238q0 -70 -20 -161q-10 -51 -47 -180q-39 -139 -47 -178q-6 -29 -27 -46q-20 -18 -47 -18q-45 0 -45 60q0 26 8 63q6 35 39 151q23 82 39 150q15 71 15 123 q0 153 -129 153q-135 0 -234 -131l-96 -454q-25 -117 -88 -117q-45 0 -45 47q0 14 4 33z" />
<glyph unicode="o" horiz-adv-x="753" d="M127 377q37 172 145 303q127 147 291 147q154 0 215 -129q32 -69 32 -155q0 -56 -13 -119q-39 -178 -142 -289q-120 -135 -282 -135q-154 0 -219 115q-39 68 -39 155q0 50 12 107zM250 391q-12 -56 -12 -100q0 -166 168 -166q102 0 180 104q59 78 86 195q9 44 9 82 q0 53 -17 100q-33 96 -129 96q-222 0 -285 -311z" />
<glyph unicode="p" horiz-adv-x="745" d="M41 -211q2 6 7 30.5l9 43.5l19 71q31 141 74 414q47 303 71 414q12 57 72 57q53 0 53 -43q0 -8 -2 -18q80 53 184 53q156 0 240 -135q53 -90 53 -195q0 -46 -10 -96q-35 -160 -145 -266q-121 -119 -273 -119q-92 0 -174 53q-8 -49 -14 -80q-4 -20 -17 -77 q-23 -102 -57 -203q-35 -35 -65 -35q-34 0 -35 56q0 29 10 75zM246 209q86 -82 174 -82q90 0 172 86q71 77 92 172q8 38 8 75q0 71 -30 132q-53 98 -162 98q-111 0 -178 -98q-27 -162 -76 -383z" />
<glyph unicode="q" horiz-adv-x="724" d="M92 371q33 158 170 301q145 152 299 151q88 0 148 -57q12 66 69 65q46 0 46 -50q0 -16 -5 -38l-74 -354l-147 -690q-72 -33 -102 -33q-23 0 -17 33q4 23 74 350q-82 -49 -174 -49q-152 0 -236 109q-61 79 -60 180q0 40 9 82zM219 365q-6 -27 -6 -54q0 -69 41 -121 q55 -72 158 -71q90 0 182 82l82 391q-45 106 -135 106q-100 0 -205 -118q-97 -113 -117 -215z" />
<glyph unicode="r" horiz-adv-x="702" d="M80 57l18 95q31 158 107 505q10 55 28 103q23 55 70 55q45 0 45 -48q0 -15 -4 -34q-6 -31 -10 -43q137 123 268 123q133 0 182 -113q22 -52 22 -120q0 -54 -13 -117q-12 -59 -70 -60q-53 0 -53 74q0 33 1 69t1 70q-12 74 -88 74q-92 0 -193 -82q-98 -82 -121 -174 l-86 -405q-57 -29 -88 -29q-20 0 -20 28q0 12 4 29z" />
<glyph unicode="s" horiz-adv-x="692" d="M74 162q37 86 69 86q-1 0 -1 -1q0 -6 81 -65q90 -66 176 -65q127 0 172 78q2 11 2 22q0 72 -90 135l-194 121q-87 61 -87 131q0 13 3 27q18 88 121 141q92 49 182 49q55 0 125 -26q75 -28 74 -71q0 -25 -29 -54q-20 -20 -47 -21q-23 0 -66 20.5t-78 20.5q-119 0 -157 -59 q27 -59 141 -121q139 -76 174 -111q57 -57 57 -139q0 -27 -6 -57q-23 -98 -125 -154q-88 -49 -192 -49q-211 0 -305 162z" />
<glyph unicode="t" horiz-adv-x="610" d="M176 791q2 16 33 30q29 12 207 13l84 395q12 53 67 53q49 0 49 -36q0 -8 -2 -17l-84 -393q78 2 193 2q49 0 49 -38q0 -8 -2 -18q-10 -51 -74 -63q-31 -6 -190 -6l-144 -682q-68 -31 -102 -31q-23 0 -16 31q8 43 30 143l20.5 94.5l41 193.5l53.5 249h-67q-94 0 -138 8 q-10 28 -10 52q0 11 2 20z" />
<glyph unicode="u" horiz-adv-x="794" d="M180 596q33 147 58 186q29 43 69 43q58 0 58 -41q0 -9 -3 -20q-10 -47 -30 -121q-6 -23 -17.5 -63.5l-15.5 -55.5q-22 -101 -22 -182q0 -32 4 -61q14 -154 120 -154q96 0 185 94q76 82 106 185q12 49 43 192q25 119 56 188q45 23 75 23q23 0 23 -36q0 -19 -6 -48l-19 -80 q-4 -16 -8 -35.5t-10 -46t-21.5 -101.5l-38.5 -179q-4 -14 -11 -53.5t-11 -59.5q-4 -23 -11.5 -62.5t-11.5 -52.5q-12 -55 -67 -55q-45 0 -47 47q0 33 12 84q-123 -131 -264 -131q-230 0 -230 308q0 120 35 288z" />
<glyph unicode="v" horiz-adv-x="722" d="M188 766q49 49 86 49q12 0 21 -20l37 -191q41 -178 84 -393q80 131 264 469q25 53 61 115q31 41 66 41q51 0 51 -36q0 -8 -2 -18q-18 -94 -184 -372q-145 -246 -236 -367q-34 -43 -67 -43t-52 41q-20 43 -28 113l-19 118l-47 244q-29 148 -35 250z" />
<glyph unicode="w" horiz-adv-x="1042" d="M221 395q-4 104 -4 194q0 113 6 191q45 33 80 33q41 0 43 -166v-209q6 -111 16 -209l193 402q20 53 86 164q29 41 61 41q31 0 49.5 -33t32.5 -527l177 351q23 61 81 168q29 41 62 41q49 0 49 -39q0 -8 -2 -17q-10 -43 -178 -377q-172 -340 -193 -360q-31 -33 -61 -33 q-35 0 -43 39q-2 10 -2 123q0 43 -23 408l-178 -365q-27 -68 -88 -172q-31 -43 -74 -43q-37 0 -51 39q-27 67 -39 356z" />
<glyph unicode="x" horiz-adv-x="757" d="M70 66q2 16 28 49l285 293q-74 158 -172 321q33 82 70 82q45 0 192 -305l189 196q31 39 90 95q33 27 59.5 26.5t40.5 -16.5q12 -14 12 -29q0 -6 -2 -12q-6 -29 -334 -375q70 -137 109 -201q10 -12 55 -92q12 -20 8 -37q-8 -29 -24 -43q-20 -18 -45 -18q-55 0 -195 293 l-264 -273q-34 -12 -61 -12q-43 0 -44 38q1 9 3 20z" />
<glyph unicode="y" horiz-adv-x="792" d="M72 -309q0 4 272 368q-2 6 -111 531q-14 49 -26 172q49 55 84 55q12 0 18 -12q14 -31 43 -170l99 -430q166 236 272 409q33 59 115 177q25 29 51 28.5t43 -16.5q14 -14 14 -30q0 -5 -2 -11q0 -4 -8 -19q-154 -252 -369 -557q-240 -340 -403 -530h-10q-45 0 -64.5 8.5 t-17.5 26.5z" />
<glyph unicode="z" horiz-adv-x="765" d="M63 27q0 14 3 26q10 41 40 74l189 176l379 393h-277q-89 0 -141 6q-14 28 -14 58q0 10 2 20q3 22 37 31q47 12 376 12h84h84q25 0 37 -18q10 -15 10 -30q0 -6 -2 -13q-2 -20 -102 -121l-123 -125l-196 -203q-106 -109 -205 -194q297 8 385 8q90 0 90 -48q0 -7 -2 -16 q-12 -63 -127 -63q-6 0 -27.5 1t-38.5 1h-65h-146q-37 0 -85 -1t-60 -1q-103 0 -105 27z" />
<glyph unicode="{" horiz-adv-x="880" d="M213 653q10 41 61 62q83 31 252 30q14 0 19 17q6 28 -37 80q-61 72 -78 100q-37 72 -22 145q31 141 237 220q156 59 324 59q51 0 41 -49q-10 -47 -99 -66q-41 -8 -87 -18l-93 -21q-119 -29 -170 -86q-23 -27 -26 -47q-4 -14 2 -32q14 -45 94 -129q66 -68 47 -152 q-6 -33 -23 -59q49 -37 33 -99q-18 -80 -153 -194q-133 -113 -150 -181q-10 -49 31 -73.5t133 -24.5q35 0 121 16.5t106 16.5q27 0 41 -20.5t8 -47.5q-6 -35 -55 -57q-92 -43 -258 -43q-125 0 -199 55q-86 63 -61 185q18 84 96 163l150 140q31 29 51 55q-25 10 -45 10 q-10 0 -64 -8l-27.5 -4t-23.5 -4t-14 -2q-51 -6 -119 -6q-57 -1 -43 69z" />
<glyph unicode="|" horiz-adv-x="505" d="M188 66l205 964q4 35 21 113q8 68 18 112q23 111 88 111q59 0 55 -68q0 -6 -20 -108l-86 -412l-84 -413l-63 -299q-16 -66 -80 -66q-70 0 -54 66z" />
<glyph unicode="}" horiz-adv-x="882" d="M162 51q10 41 63 58l232 51q162 43 180 127q10 43 -76 135t-67 176q6 27 20 57q-45 37 -33 97q18 82 153.5 196.5t151.5 181.5q10 49 -30.5 74t-132.5 25q-49 0 -123 -15q-86 -16 -107 -16q-27 0 -41 20.5t-8 47.5q6 34 55 55q106 45 260 45q125 0 199 -55 q84 -63 60 -185q-18 -84 -97 -168l-149 -139q-31 -29 -51 -55q25 -10 49 -10q10 0 75 12q59 10 168 10q58 0 43 -67q-8 -41 -61 -64q-76 -29 -238 -29q-31 0 -32 -18q-6 -29 37 -78q55 -61 77 -96q39 -72 25 -143q-31 -143 -238 -222q-152 -59 -323 -59q-53 0 -41 51z" />
<glyph unicode="~" horiz-adv-x="948" d="M393 1167q2 12 17 33q43 68 112 113q72 47 142 47q78 0 129 -51.5t65 -51.5q41 0 98 54q59 55 86 55q61 0 50 -59q-16 -66 -107 -123q-94 -59 -162 -60q-63 0 -106 56q-45 57 -78 57q-47 0 -107 -66q-57 -63 -88 -63q-27 0 -41 18q-16 18 -10 41z" />
<glyph unicode="&#xa2;" horiz-adv-x="749" d="M240 786q20 96 90 197q70 102 162 154q41 23 102 39l10 55q28 135 92 135q57 0 41 -70q-8 -27 -12 -55q-10 -33 -14 -57q92 -8 151 -62q61 -57 49 -149q-51 -35 -80 -35q-14 0 -26 31q-12 33 -33 57q-27 31 -88 37l-102 -485q41 8 65 14q37 10 66 10q55 0 43 -63 q-18 -82 -209 -82l-53 -166q-43 -16 -74 -17q-18 0 -17.5 45.5t21.5 135.5q-106 29 -157.5 118.5t-26.5 212.5zM381 770q-27 -135 86 -178q6 31 17.5 77l15.5 62l69 334q-135 -74 -153 -168l-19 -63q-14 -52 -16 -64z" />
<glyph unicode="&#xa5;" horiz-adv-x="1136" d="M262 213q16 66 144 66h77q39 -2 78 -3l31 150q2 0 4 16q-51 -2 -123 -2q-88 0 -129 17.5t-33 50.5q12 51 62 51q37 0 67 -2h68q86 0 110 2l21 88q-209 399 -258 641q-4 20 -2 29q10 49 65 49q20 0 39 -25q4 -6 76 -174l166 -395l344 381q41 57 150 182q29 29 53 29 q27 0 41 -18q16 -18 10 -43q-4 -14 -14 -31q-88 -141 -260 -324l-293 -297l-17 -84q68 6 127 6q61 0 89 -17t20 -50q-12 -66 -148 -66h-57q-27 2 -55 2l-14.5 -69.5l-20.5 -96.5q31 0 53 3h53q70 0 103 -18.5t24 -53.5q-12 -57 -71 -57h-187l-24 -91q-25 -59 -68 -59 q-59 0 -26 154h-68q-29 -2 -63 -2q-78 0 -114 15t-30 46z" />
<glyph unicode="&#xa9;" horiz-adv-x="1271" d="M231 407.5q40 190.5 191 325.5q147 133 338 133q199 0 350 -121q166 -135 125 -325q-39 -195 -250 -316q-184 -104 -389 -104q-197 0 -297 106q-108 111 -68 301.5zM350 422q-27 -139 51 -217q76 -76 211 -76q156 0 291 61q174 78 201 216q31 145 -109 247 q-121 88 -278 88q-135 0 -236 -92q-104 -94 -131 -227zM477 391q22 92 111 154q78 55 178 55q49 0 88 -20q45 -27 37 -70q-10 -51 -64 -51q-10 0 -40.5 10t-43.5 10q-37 0 -82 -22.5t-55 -63.5q-6 -27 23 -49q23 -20 55 -20q25 0 64 22q43 25 53 25q27 0 43 -18.5t10 -43.5 q-8 -39 -82 -84q-63 -29 -113 -28q-88 0 -143 53q-57 55 -39 141z" />
<glyph unicode="&#xad;" d="M293 666q6 35 47 47t217 12q33 0 96.5 6t96.5 6q61 0 49 -61q-16 -72 -201 -72q-12 0 -131 4q-59 2 -131 2q-55 1 -43 56z" />
<glyph unicode="&#xae;" horiz-adv-x="1413" d="M256 510q49 231 197 367q158 145 385 145q238 0 411 -152q190 -164 142 -397q-45 -213 -283 -352q-211 -121 -436 -121q-221 0 -342 141.5t-74 368.5zM383 526q-37 -182 51 -290.5t271 -108.5q172 0 333 90q193 109 226 262q37 170 -140 303q-152 119 -333 119 q-168 0 -275 -106q-96 -97 -133 -269zM580 696q12 49 100 74q61 18 131 18q92 0 158 -40q74 -49 55 -136q-25 -115 -180 -172q98 -58 104 -61q70 -51 62 -90q-6 -27 -26.5 -47.5t-49.5 -20.5q-25 0 -45 19l-164 108q2 -49 2 -80q-12 -53 -68 -53q-57 0 -59 88q-2 74 21 193 q20 88 43 149l-13 -6l6 4q-18 -6 -34 -6q-55 0 -43 59zM743 539q144 28 154 67q12 55 -119 56q-27 -86 -35 -123z" />
<glyph unicode="&#xb4;" horiz-adv-x="403" d="M397 1548q6 29 88 111q72 72 115 106q33 27 57.5 27t38.5 -16q16 -18 11 -41q-10 -41 -117 -140q-113 -102 -144 -102q-23 0 -39 16t-10 39z" />
<glyph unicode="&#x2000;" horiz-adv-x="894" />
<glyph unicode="&#x2001;" horiz-adv-x="1792" />
<glyph unicode="&#x2002;" horiz-adv-x="894" />
<glyph unicode="&#x2003;" horiz-adv-x="1792" />
<glyph unicode="&#x2004;" horiz-adv-x="595" />
<glyph unicode="&#x2005;" horiz-adv-x="446" />
<glyph unicode="&#x2006;" horiz-adv-x="296" />
<glyph unicode="&#x2007;" horiz-adv-x="296" />
<glyph unicode="&#x2008;" horiz-adv-x="223" />
<glyph unicode="&#x2009;" horiz-adv-x="356" />
<glyph unicode="&#x200a;" horiz-adv-x="98" />
<glyph unicode="&#x2010;" d="M293 666q6 35 47 47t217 12q33 0 96.5 6t96.5 6q61 0 49 -61q-16 -72 -201 -72q-12 0 -131 4q-59 2 -131 2q-55 1 -43 56z" />
<glyph unicode="&#x2011;" d="M293 666q6 35 47 47t217 12q33 0 96.5 6t96.5 6q61 0 49 -61q-16 -72 -201 -72q-12 0 -131 4q-59 2 -131 2q-55 1 -43 56z" />
<glyph unicode="&#x2012;" d="M293 666q6 35 47 47t217 12q33 0 96.5 6t96.5 6q61 0 49 -61q-16 -72 -201 -72q-12 0 -131 4q-59 2 -131 2q-55 1 -43 56z" />
<glyph unicode="&#x2013;" horiz-adv-x="739" d="M297 666q10 47 84 57q14 2 108 2q31 0 96.5 6t96.5 6q63 0 51 -61q-16 -66 -381 -66q-67 1 -55 56z" />
<glyph unicode="&#x2014;" horiz-adv-x="1150" d="M301 666q6 35 49 47q37 12 518 12q33 0 97 6q65 6 98 6q61 0 49 -61q-8 -45 -96 -55q-29 -4 -119 -5q-156 0 -279 -2q-246 -4 -276 -4q-53 1 -41 56z" />
<glyph unicode="&#x2018;" horiz-adv-x="368" d="M371 1327q59 39 86 39q14 0 18 -23q35 -184 29 -210q-12 -51 -74 -52q-25 0 -35 27q-36 98 -24 219z" />
<glyph unicode="&#x2019;" horiz-adv-x="368" d="M338 1133q6 29 115 210q16 23 30 23q27 0 70 -39q-39 -119 -117 -219q-23 -27 -47 -27q-63 1 -51 52z" />
<glyph unicode="&#x201c;" horiz-adv-x="595" d="M410 1313q59 53 90 53q14 0 18 -23q8 -61 14 -120q10 -98 7 -109q-10 -47 -64 -47q-37 0 -45 37q-22 84 -20 209zM578 1305q6 23 32 36q29 16 60 17q18 0 12 -51q-8 -43 0 -93q8 -55 2 -90q-12 -49 -66 -49q-35 0 -40 37q-18 107 0 193z" />
<glyph unicode="&#x201d;" horiz-adv-x="591" d="M381 1124q6 29 41 90.5t41 92.5v12l4 12q6 27 29 27q25 0 73 -33l-4 -18q-20 -92 -82 -195q-25 -37 -57 -37q-57 0 -45 49zM522 1114q8 35 117 227q16 25 29 25q31 0 67 -53q-55 -132 -110 -209q-25 -37 -60 -37q-53 0 -43 47z" />
<glyph unicode="&#x2022;" horiz-adv-x="704" d="M270 580q63 311 285 311q94 0 127 -96q29 -86 8 -185q-25 -115 -88 -194q-77 -104 -178 -105q-213 1 -154 269z" />
<glyph unicode="&#x2026;" horiz-adv-x="1067" d="M186 72q8 37 54 78q41 39 84 38q37 0 51 -32q16 -37 8 -70q-10 -37 -39 -61q-31 -25 -68 -25q-51 0 -74.5 18.5t-15.5 53.5zM449 78q8 37 53 78q41 39 84 39q37 0 51 -33q16 -35 6 -72q-6 -35 -37 -59q-33 -27 -67 -27q-51 0 -74.5 19.5t-15.5 54.5zM715 80q8 37 53 78 q41 39 84 39q35 0 49 -33q16 -37 8 -72q-10 -39 -39 -61q-31 -25 -67 -25q-51 0 -73.5 19.5t-14.5 54.5z" />
<glyph unicode="&#x202f;" horiz-adv-x="356" />
<glyph unicode="&#x205f;" horiz-adv-x="446" />
<glyph unicode="&#x20ac;" horiz-adv-x="1400" d="M264 526q12 53 80 72q37 10 180 18q20 74 33 109q-43 -2 -147 -2q-61 0 -45 65q10 41 59 60q31 10 199 22q101 203 239 332q170 164 357 164q86 0 161 -72q80 -74 62 -161q-16 -66 -76 -66q-31 0 -49 43q-33 76 -37 84q-31 43 -92 43q-233 0 -426 -358q221 10 276 10 q57 0 41 -66q-8 -39 -59 -59q-55 -23 -324 -23q-8 -27 -22.5 -65.5t-18.5 -50.5q147 6 258 6q49 0 71 -18.5t13 -55.5q-8 -35 -57 -53q-55 -18 -309 -19q-15 -172 49 -264q70 -100 223 -100q207 0 301 174q35 10 62 10q45 0 34 -37q-2 -14 -38 -71q-131 -197 -385 -197 q-205 0 -306 131q-92 127 -73 334q-12 0 -58.5 -1t-79.5 -1q-58 0 -73 6q-31 12 -23 57z" />
<glyph unicode="&#x2122;" horiz-adv-x="1779" d="M459 1303q12 63 78 63q20 0 204.5 -4t204.5 -4q127 0 174 -12q57 -14 47 -68q-12 -61 -106 -61h-213q-14 -90 -27 -142q-2 -8 -10 -48l-14 -69l-27 -114q-18 -90 -78 -90q-74 0 -47 137l27 100q12 47 22 101q6 25 23 133h-135q-141 0 -123 78zM1073 791q10 49 23 83 q10 31 22 87l29 139l27 137q28 129 98 129q51 0 88 -141q27 -115 88 -301l117 213q78 131 141 194q35 31 63 31q86 0 74 -152q-4 -51 -39 -215q-4 -16 -18 -104q-4 -27 -11 -65l-4 -29l1 2q-12 -57 -72 -58q-68 0 -37 156q2 6 9 33.5t11 48.5l19 84q14 68 16 80 q-10 -16 -106 -195q-66 -123 -123 -182q-25 -29 -55 -29q-37 0 -66 19q-25 16 -96 305l-4 -22q-4 -22 -6 -38l-13 -57q-18 -86 -47 -153q-29 -66 -80 -66q-65 0 -49 66z" />
<glyph unicode="&#xe000;" horiz-adv-x="825" d="M0 825h825v-825h-825v825z" />
<glyph unicode="&#xfb01;" horiz-adv-x="948" d="M776 55q6 29 15.5 70t21.5 98q23 80 84 359q23 106 51 166q27 55 72 55q43 0 43 -39q0 -8 -2 -19q-4 -74 -45 -186q-20 -78 -30.5 -123l-14.5 -61q-6 -31 -18.5 -80t-22.5 -98q-31 -117 -57 -181q-35 -16 -68 -16q-31 0 -31 33q-1 10 2 22zM991 1038q14 72 78 72 q35 0 53 -20q14 -16 14 -37q0 -7 -1 -15q-8 -33 -31 -53q-27 -23 -51 -22q-31 0 -49 22q-14 16 -14 39q-1 7 1 14zM162 639q6 33 119 33q57 279 147 432q152 262 334 262q102 0 153 -82q33 -49 33 -112q0 -32 -8 -68q-18 -82 -82 -82q-45 0 -45 53q0 18 -1 53t-1 52 q-12 55 -70 55q-12 0 -24 -6q-209 -80 -307 -547q117 6 233 6q71 0 71 -43q0 -7 -1 -14q-12 -53 -324 -53l-67 -541q-59 -37 -95 -37q-23 0 -26 35q-1 6 -1 12q0 22 9 72q12 66 12 84q6 35 19 182q10 125 22 180h-86q-16 32 -16 58q0 8 2 16z" />
<glyph unicode="&#xfb02;" horiz-adv-x="966" d="M809 94q3 22 12 62q14 53 17 61q37 178 104 535q45 238 107 534q16 80 73 80q44 0 44 -65q0 -29 -9 -72q-8 -39 -10 -47q-2 -12 -6 -27.5t-4 -19.5q-39 -193 -78 -414q-57 -317 -78 -414q-29 -145 -72 -276q-49 -31 -84 -31q-24 0 -24 39q0 21 8 55zM162 639q6 33 119 33 q57 279 147 432q152 262 334 262q102 0 153 -82q33 -49 33 -112q0 -32 -8 -68q-18 -82 -82 -82q-45 0 -45 53q0 18 -1 53t-1 52q-12 55 -70 55q-12 0 -24 -6q-209 -80 -307 -547q117 6 233 6q71 0 71 -43q0 -7 -1 -14q-12 -53 -324 -53l-67 -541q-59 -37 -95 -37 q-23 0 -26 35q-1 6 -1 12q0 22 9 72q12 66 12 84q6 35 19 182q10 125 22 180h-86q-16 32 -16 58q0 8 2 16z" />
<glyph unicode="&#xfb03;" horiz-adv-x="1667" d="M1495 55q6 29 15.5 70t21.5 98q23 80 84 359q23 106 51 166q27 55 72 55q43 0 43 -39q0 -8 -2 -19q-4 -74 -45 -186q-20 -78 -30.5 -123l-14.5 -61q-6 -31 -18.5 -80t-22.5 -98q-31 -117 -57 -181q-35 -16 -68 -16q-31 0 -31 33q-1 10 2 22zM1710 1038q14 72 78 72 q35 0 53 -20q14 -16 14 -37q0 -7 -1 -15q-8 -33 -31 -53q-27 -23 -51 -22q-31 0 -49 22q-14 16 -14 39q-1 7 1 14zM883 639q6 33 119 33q57 279 147 432q152 262 334 262q102 0 153 -82q33 -49 33 -112q0 -32 -8 -68q-18 -82 -82 -82q-45 0 -45 53q0 18 -1 53t-1 52 q-12 55 -70 55q-12 0 -24 -6q-209 -80 -307 -547q117 6 233 6q71 0 71 -43q0 -7 -1 -14q-12 -53 -324 -53l-67 -541q-59 -37 -95 -37q-23 0 -26 35q-1 6 -1 12q0 22 9 72q12 66 12 84q6 35 19 182q10 125 22 180h-86q-16 32 -16 58q0 8 2 16zM162 639q6 33 119 33 q57 279 147 432q152 262 334 262q102 0 153 -82q33 -49 33 -112q0 -32 -8 -68q-18 -82 -82 -82q-45 0 -45 53q0 18 -1 53t-1 52q-12 55 -70 55q-12 0 -24 -6q-209 -80 -307 -547q117 6 233 6q71 0 71 -43q0 -7 -1 -14q-12 -53 -324 -53l-67 -541q-59 -37 -95 -37 q-23 0 -26 35q-1 6 -1 12q0 22 9 72q12 66 12 84q6 35 19 182q10 125 22 180h-86q-16 32 -16 58q0 8 2 16z" />
<glyph unicode="&#xfb04;" horiz-adv-x="1685" d="M1528 94q3 22 12 62q14 53 17 61q37 178 104 535q45 238 107 534q16 80 73 80q44 0 44 -65q0 -29 -9 -72q-8 -39 -10 -47q-2 -12 -6 -27.5t-4 -19.5q-39 -193 -78 -414q-57 -317 -78 -414q-29 -145 -72 -276q-49 -31 -84 -31q-24 0 -24 39q0 21 8 55zM883 639 q6 33 119 33q57 279 147 432q152 262 334 262q102 0 153 -82q33 -49 33 -112q0 -32 -8 -68q-18 -82 -82 -82q-45 0 -45 53q0 18 -1 53t-1 52q-12 55 -70 55q-12 0 -24 -6q-209 -80 -307 -547q117 6 233 6q71 0 71 -43q0 -7 -1 -14q-12 -53 -324 -53l-67 -541 q-59 -37 -95 -37q-23 0 -26 35q-1 6 -1 12q0 22 9 72q12 66 12 84q6 35 19 182q10 125 22 180h-86q-16 32 -16 58q0 8 2 16zM162 639q6 33 119 33q57 279 147 432q152 262 334 262q102 0 153 -82q33 -49 33 -112q0 -32 -8 -68q-18 -82 -82 -82q-45 0 -45 53q0 18 -1 53 t-1 52q-12 55 -70 55q-12 0 -24 -6q-209 -80 -307 -547q117 6 233 6q71 0 71 -43q0 -7 -1 -14q-12 -53 -324 -53l-67 -541q-59 -37 -95 -37q-23 0 -26 35q-1 6 -1 12q0 22 9 72q12 66 12 84q6 35 19 182q10 125 22 180h-86q-16 32 -16 58q0 8 2 16z" />
</font>
</defs>
</svg>
