<?xml version="1.0" standalone="no"?>
<!DOCTYPE svg PUBLIC "-//W3C//DTD SVG 1.1//EN" "http://www.w3.org/Graphics/SVG/1.1/DTD/svg11.dtd" >
<svg xmlns="http://www.w3.org/2000/svg">
<metadata>
This is a custom SVG webfont generated by Font Squirrel.
Copyright   : Copyright c ShyFonts Type Foundry 2000 All rights reserved
Designer    : ShyFonts Type Foundry
Foundry URL : httpwwwshyfontscom
</metadata>
<defs>
<font id="webfontzSmet5al" horiz-adv-x="923" >
<font-face units-per-em="2048" ascent="1638" descent="-410" />
<missing-glyph horiz-adv-x="485" />
<glyph unicode=" "  horiz-adv-x="485" />
<glyph unicode="&#x09;" horiz-adv-x="485" />
<glyph unicode="&#xa0;" horiz-adv-x="485" />
<glyph unicode="!" horiz-adv-x="540" d="M162 98q10 47 59 88q53 43 94 43q33 0 56 -47q23 -49 14 -86q-12 -45 -53 -82q-41 -39 -86 -39q-39 0 -68 41q-26 37 -16 82zM244 393q0 4 3 14.5t5 20.5t5 22.5t3 14.5l21 102q8 47 71 338l70 330q49 164 145 164q40 0 62 -25q20 -23 10 -65l-211 -994q-98 -45 -141 -45 q-70 0 -43 123z" />
<glyph unicode="&#x22;" horiz-adv-x="688" d="M422 1323q82 76 131 76q41 0 47 -51q83 43 123 43q59 0 41 -78q-6 -31 0 -94q6 -70 2 -95q-8 -33 -41 -59q-31 -25 -68 -25q-39 0 -59 33q-35 -41 -84 -41q-55 0 -72 55q-24 76 -20 236z" />
<glyph unicode="#" horiz-adv-x="1206" d="M279 817q12 57 100 70h147l29 84q-88 4 -168 14q-12 55 -2 98q16 68 100 68q55 0 138 6l73 199q68 25 109 24q66 0 51 -63q-10 -47 -43 -143q6 0 84 10q22 83 37 166q82 49 127 49q53 0 53 -76q0 -23 -20 -119q66 6 161 6q66 0 93.5 -24.5t17.5 -71.5q-18 -80 -106 -92 q-49 -2 -218 -2l-30 -105q102 12 131 13q35 0 55.5 -31t11.5 -66q-16 -74 -114 -96q-31 -6 -156 -6q-39 -109 -53 -131q-45 -70 -109 -70q-37 0 -59.5 29t-11.5 72q8 37 26 84q-8 -2 -34.5 -3t-39.5 -1q-37 -121 -45 -138q-43 -82 -108 -82q-37 0 -60 29q-25 33 -16 66 q9 37 37 123h-168q-30 63 -20 110zM723 897l84 6l29 86q-8 0 -37 -3l-49 -5z" />
<glyph unicode="$" horiz-adv-x="991" d="M170 354q8 37 45 68q33 27 76 27t69 -41q25 -37 95 -121l77 362q-229 143 -190 334q23 109 119 184q82 68 203 103q3 25 6 43q10 39 37 61q31 25 67 25q90 0 68 -113q213 -27 164 -260q-61 -53 -111 -53q-39 0 -51.5 55t-40.5 66q0 -2 -1 -4.5t-1 -6.5t-2 -10t-4 -17.5 t-5.5 -25.5t-8.5 -38.5l-11 -52.5l-15.5 -70l-19.5 -89q274 -160 221 -409q-31 -144 -135 -246q-113 -113 -254 -113q-82 -47 -123 -47q-68 0 -45 96q-182 96 -225 246q-6 29 -4 47zM537 981q-10 -53 47 -100l22 110l8 39q5 24 9 39q-74 -35 -86 -88zM616 217q57 0 97 53 q33 45 45 105q23 102 -70 178z" />
<glyph unicode="%" horiz-adv-x="1206" d="M311.5 1067q26.5 129 141.5 231q113 100 243 101q137 0 211 -88q72 -88 45 -226q-29 -135 -139 -221q-113 -88 -242 -88q-133 0 -206 78q-80 84 -53.5 213zM326 444q8 43 372 320q360 274 414 274q39 0 62 -28q22 -28 12 -68q-6 -33 -39 -61q-14 -14 -125 -88 q-111 -72 -297 -218q-215 -166 -293 -221q-35 8 -70 31q-42 28 -36 59zM506 1071q-10 -51 17.5 -75.5t92.5 -24.5q47 0 89 30q40 31 49 80q12 55 -25 92t-90 37q-37 0 -80 -49q-45 -51 -53 -90zM541 266q27 135 137 236q109 98 246 98q131 0 206.5 -94t49.5 -230 q-27 -131 -146 -221t-252 -90q-137 0 -204 82q-66 80 -37 219zM727 268q-23 -109 100 -108q57 0 101 30q41 29 53 86q12 63 -16 99q-33 39 -91 39q-51 0 -96 -49q-39 -42 -51 -97z" />
<glyph unicode="&#x26;" horiz-adv-x="1071" d="M242 281q35 158 211 381q-96 217 -54 413q29 133 123 225q101 98 234 99q115 0 170 -84q55 -82 30 -199q-33 -162 -274 -448q49 -90 141 -201q51 156 140 156q96 0 73 -109q-16 -80 -71 -205q41 -41 84 -78l-7 -28q-10 -45 -30 -74q-31 -45 -64 -45q-25 0 -88 51 q-158 -170 -393 -170q-137 0 -196.5 88.5t-28.5 227.5zM432 274q-25 -117 82 -116q125 0 219 100q-125 111 -186 240q-92 -132 -115 -224zM592 1067q-20 -94 14 -217q133 164 156 260q6 20 -10 61q-14 39 -35 39q-45 0 -82 -49q-31 -39 -43 -94z" />
<glyph unicode="'" horiz-adv-x="477" d="M397 1343q82 55 125 56q40 0 49 -43q2 -4 15 -117q12 -104 12 -106q-9 -37 -43 -62q-31 -23 -74 -22q-41 0 -59 43q-39 108 -25 251z" />
<glyph unicode="(" horiz-adv-x="694" d="M225 270q-35 176 6 363q43 199 160 407q133 236 297 336q39 23 66 23q39 0 63 -27q25 -29 17 -65q-6 -29 -64 -86l-84 -80q-205 -215 -270 -514q-68 -328 112 -525q-20 -51 -43 -82q-37 -55 -67 -55q-20 0 -35 15q-121 108 -158 290z" />
<glyph unicode=")" horiz-adv-x="690" d="M147 59q6 31 62 86q43 37 82 76q96 98 174 252q74 154 98 275q68 324 -112 516q16 45 43 82q35 53 67 53q20 0 35 -13q120 -108 160 -288q37 -164 -4 -359q-45 -207 -162 -411q-139 -242 -299 -340q-35 -23 -66 -23q-39 0 -63 29q-23 26 -15 65z" />
<glyph unicode="*" horiz-adv-x="907" d="M283 786q8 37 211 168l-152 168q22 49 55 92q45 61 84 62q29 0 109 -90l12 55q31 158 131 158q92 0 68 -119q-4 -14 -14.5 -64.5t-16.5 -70.5l148 117q29 20 55 20q39 0 59 -29q23 -33 15 -69q-12 -61 -242 -226q31 -27 117 -108q29 -35 20 -80q-10 -45 -41 -70 q-35 -29 -72 -28q-35 0 -149 98l-29 -131q-80 -45 -121 -45q-72 0 -34 168q-53 -31 -103 -66q-37 8 -71 33q-45 26 -39 57z" />
<glyph unicode="+" horiz-adv-x="782" d="M195 672q16 68 110 94q71 22 154 18l41 193q8 37 41 65q29 27 69 27q106 0 68 -192l-7 -29t-7 -31l-13 -47h31h61q29 2 64 2q37 0 55 -27q18 -29 10 -67q-14 -76 -110 -94q-39 -8 -152 -9l-39 -186q-8 -37 -41 -65q-29 -27 -69 -27q-109 0 -66 201q0 4 11 47q10 33 12 45 q-16 2 -29 2q-20 0 -59 -6t-60 -6q-41 0 -61 26q-22 31 -14 66z" />
<glyph unicode="," horiz-adv-x="483" d="M76 -51q4 14 45 65l28.5 38l20.5 28t8 10q43 68 58 82q37 45 81 45q41 0 66 -29q25 -27 14 -69q-12 -57 -86 -144q-78 -92 -129 -120q-118 37 -106 94z" />
<glyph unicode="-" d="M313 666q23 96 211 96q25 0 47 -2h50q31 0 96 6q43 4 96 4q43 0 64 -25q23 -27 14 -69q-12 -57 -105 -84q-68 -23 -139 -23q-12 0 -131 4.5t-131 4.5q-37 0 -59.5 24.5t-12.5 63.5z" />
<glyph unicode="." horiz-adv-x="550" d="M152 74q12 53 67 102t109 49q51 0 75 -43q23 -41 11 -96q-10 -49 -54 -84q-45 -35 -94 -35q-53 0 -86 27q-40 29 -28 80z" />
<glyph unicode="/" horiz-adv-x="671" d="M53 55q6 27 158 314l348 657l76 162q43 96 90 153q49 57 106 58q37 0 62 -27q25 -29 16 -65q-14 -57 -75 -174l-101 -177l-434 -829q-86 -162 -168 -162q-37 0 -63 27q-23 24 -15 63z" />
<glyph unicode="0" horiz-adv-x="1257" d="M291 195q-53 174 2 440q55 260 182 475q172 289 391 289q264 0 367 -236q86 -201 24 -481q-59 -270 -219 -469q-195 -248 -440 -248q-237 1 -307 230zM487 651q-27 -121 5 -289q37 -199 141 -198q154 0 285 196q102 150 139 328q43 199 -2 340q-61 180 -240 180 q-104 0 -215 -233q-80 -170 -113 -324z" />
<glyph unicode="1" horiz-adv-x="618" d="M248 86q2 4 7 27.5l9 42.5q16 61 19 69l194 922q-80 -29 -108 -29q-37 0 -59.5 29t-12.5 65q10 43 53 74q55 41 115 72q80 41 121 41q90 0 88 -107q0 -27 -35 -188q-12 -78 -78 -371q-39 -270 -61 -368q-47 -219 -88 -353q-78 -47 -121 -47q-68 0 -43 121z" />
<glyph unicode="2" horiz-adv-x="1124" d="M207 68q27 125 219 317l346 330q190 187 215 307q18 90 -39 135q-53 41 -141 41q-193 0 -229 -170q-4 -12 -5 -31q0 -16 -4 -32q-10 -43 -45 -72t-75 -29q-53 0 -66 70q-12 55 2 117q33 162 170 258q131 90 297 90q172 0 268 -99q100 -106 64 -276q-41 -184 -273 -416 l-387 -354q-29 -27 -73 -82h460q39 0 62 -29q23 -31 14 -69q-23 -109 -653 -109q-74 0 -105.5 26t-21.5 77z" />
<glyph unicode="3" horiz-adv-x="1005" d="M113 213q10 43 45 70q39 29 78 28q33 0 116 -69q88 -72 168 -72q166 0 264 154q29 47 39 92q31 143 -145 225l-90 41q-47 31 -35 88q10 47 61 84l170 111q111 78 127 143q6 35 -53 68q-53 29 -92 28q-139 0 -277 -162h-30q-37 0 -72 19q-39 20 -33 53q2 14 17 35 q76 109 196 180q119 70 242 70q138 0 227 -80q100 -86 74 -217q-31 -151 -246 -307q213 -143 162 -385q-37 -178 -200.5 -311.5t-344.5 -133.5q-100 0 -207 53q-100 51 -149 132q-18 32 -12 63z" />
<glyph unicode="4" horiz-adv-x="1179" d="M225 455q-10 70 8 149q8 35 37 137q49 170 92 379q2 8 15 78q2 16 6 44t6 36q25 121 103 121q71 0 79 -74q6 -41 -12 -131q-8 -68 -24 -145q-33 -154 -64 -275l-20.5 -77l-15.5 -55t-5 -21q-4 -14 -8 -56q70 6 418 27q8 31 20 92q27 135 43 320q18 203 41 319 q16 76 100 76q59 0 72 -58q41 -162 -82 -741q70 4 76 4q41 0 61.5 -26.5t12.5 -65.5q-20 -104 -193 -104l-57 -271q-34 -172 -141 -172q-98 0 -68 148q6 35 57 278q-139 -8 -354 -24q-88 -6 -127 -7q-64 1 -76 95z" />
<glyph unicode="5" horiz-adv-x="1175" d="M190 250q8 39 43 67q37 31 74 31t80 -47q63 -76 76 -88q57 -45 135 -45q111 0 213 86t127 203q25 121 -57 196q-78 72 -201 72q-66 0 -129 -57q-61 -55 -100 -55.5t-64 28.5q-27 29 -16 72q25 106 76 284.5t75 284.5q16 70 47 92q33 25 101 25h223h221q82 0 117 -24.5 t24 -76.5q-23 -98 -163 -98h-398q-12 -47 -63 -293q37 14 94 15q203 0 326 -129q129 -135 86 -336t-213 -346.5t-369 -145.5q-119 0 -221 66q-98 61 -139 170q-11 26 -5 49z" />
<glyph unicode="6" horiz-adv-x="1144" d="M238 471q46 221 215 498q176 289 358 432q39 -6 74 -29q43 -27 37 -59q-4 -16 -25 -41q-164 -182 -270 -354q94 27 170 26q199 0 305 -129q109 -129 65 -328q-43 -201 -213 -358q-180 -164 -376 -164q-209 0 -302 152q-83 139 -38 354zM438 483q-68 -315 187 -315 q115 0 215 102q98 96 123 211q25 113 -35 187q-58 74 -172 73q-117 0 -203 -71q-90 -76 -115 -187z" />
<glyph unicode="7" horiz-adv-x="1005" d="M254 63q33 158 356 625l375 524h-283q-190 10 -282 11q-35 72 -27 108q15 68 781 68q88 0 69 -88q-10 -43 -205 -316l-262 -368q-137 -201 -235 -383q-27 -66 -109 -215q-43 -63 -98 -64q-39 0 -64 29q-26 28 -16 69z" />
<glyph unicode="8" horiz-adv-x="1214" d="M215 375q49 238 279 364q-76 94 -45 246q37 175 172 295q133 119 309 119q152 0 233.5 -112.5t50.5 -264.5q-37 -172 -178 -279q164 -119 115 -358q-41 -195 -219 -309q-170 -111 -367 -111q-186 0 -289 113q-100 111 -61 297zM410 379q-23 -104 34 -162q51 -51 158 -51 q119 0 213 49q117 63 137 170q25 127 -65 190q-80 55 -209 56q-86 0 -168 -82t-100 -170zM643 991q-31 -143 133 -143q76 0 145.5 49t86.5 121q14 70 -23 125t-108 55q-191 0 -234 -207z" />
<glyph unicode="9" horiz-adv-x="1110" d="M233 821q47 221 267 400q221 178 442 178q141 0 209 -84q70 -84 39 -223q-8 -33 -21 -70q-53 -154 -129 -354l-143 -351q-83 -215 -147 -331q-55 -20 -93 -21q-72 0 -59 62q14 61 84 235l102 250q-132 -68 -245 -68q-156 0 -248.5 110.5t-57.5 266.5zM432 813 q-14 -70 33 -113q51 -45 121 -45q94 0 194 66q98 65 142 160q45 100 65 196q25 117 -88 117q-141 0 -289 -121q-151 -123 -178 -260z" />
<glyph unicode=":" horiz-adv-x="563" d="M153.5 71.5q12.5 53.5 67.5 102.5t109 49q52 0 73 -43q23 -47 13 -94q12 -51 -43 -86q-57 -35 -105 -35q-51 0 -88 27q-39 26 -26.5 79.5zM295 637q14 57 55 102q47 51 99 52q49 0 88 -35q35 -33 26 -84q-16 -63 -78 -97q-55 -31 -120 -30q-37 0 -58 26q-22 29 -12 66z " />
<glyph unicode=";" horiz-adv-x="518" d="M88 -68q4 14 45 68q52 68 55 74q47 74 58 84q41 43 84 43q39 0 63 -31q23 -31 15 -70q6 -55 -76 -143q-76 -80 -137 -119q-59 18 -86 41.5t-21 52.5zM299 639q12 55 55 92q47 41 99 41q47 0 73.5 -32.5t18.5 -78t-64 -88.5q-53 -41 -100 -41q-43 0 -67.5 31t-14.5 76z " />
<glyph unicode="&#x3c;" horiz-adv-x="786" d="M203 750q6 29 37 65q37 43 239 211q201 168 238 168q35 0 55.5 -26.5t13.5 -63.5q-10 -39 -96 -117l-127 -104q-12 -10 -106 -101q6 -4 96 -82q57 -43 168 -153q23 -29 16 -66q-10 -43 -45 -71.5t-78 -28.5q-35 0 -112 65l-103 95q-51 33 -170 129q-36 33 -26 80z" />
<glyph unicode="=" horiz-adv-x="954" d="M313 547q18 82 113 102q104 25 373 25q66 0 93.5 -26.5t16.5 -80.5q-16 -68 -88 -88q-100 -31 -409 -30q-121 0 -99 98zM336 795q14 63 90 92q98 37 428 37q92 0 70 -101q-12 -65 -86 -92q-92 -37 -430 -37q-43 0 -61.5 31t-10.5 70z" />
<glyph unicode="&#x3e;" horiz-adv-x="782" d="M334 473q10 41 94 119l125 104q61 52 111 99l-185 151q-111 95 -98 148q10 43 45 71.5t80 28.5q39 0 110 -64l101 -94q51 -35 172 -129q35 -33 26 -78q-6 -31 -36 -67q-39 -45 -240 -211q-207 -170 -240 -170q-37 0 -55 29q-20 28 -10 63z" />
<glyph unicode="?" horiz-adv-x="937" d="M305 479q23 100 174 252q12 14 279 256q145 135 162 193q-35 35 -127 34q-66 0 -148 -20q-106 -27 -141 -55l-2 -9q-82 -53 -127 -53q-59 0 -45 74q25 115 225 188q162 59 295 60q123 0 194 -51q90 -66 66 -177q-23 -98 -172 -251q-15 -15 -276 -258q-145 -131 -160 -189 q0 -4 4 -4q10 0 20.5 2t26.5 2q111 -6 123 -10q63 -20 49 -88q-20 -104 -164 -105q-123 0 -192 43q-89 55 -64 166zM350 78q8 43 47 90q43 51 82 51q53 0 84 -31q33 -33 25 -82q-12 -55 -64 -96q-55 -45 -104 -45q-43 0 -62 37q-16 33 -8 76z" />
<glyph unicode="@" horiz-adv-x="1411" d="M270 621q20 102 74 192q127 213 307 342q201 141 416 141q207 0 311 -147q106 -152 62 -356q-39 -176 -137 -316q-127 -176 -279 -176q-127 0 -174 100q-76 -33 -145 -32q-109 0 -164 63q-53 63 -33 168q28 138 166 246q135 104 276 104q57 0 97 -12q6 -45 4 -66h10 q39 2 65 -26q25 -27 15 -70q-18 -84 -70 -162q-27 -41 -33 -63q-10 -49 29 -49q63 0 119 125q35 76 57 178q25 111 -39 203q-61 90 -176 90q-184 0 -352 -151.5t-207 -338.5q-31 -143 53 -233q82 -88 228 -88q41 0 104.5 8t103.5 8q43 0 60 -29q18 -31 8 -71 q-12 -61 -86 -90q-72 -27 -227 -27q-227 0 -340 119q-158 162 -103 416zM694 600q-4 -20 9.5 -29.5t46.5 -9.5q55 0 114 70q31 74 72 143q-6 2 -14 2q-66 0 -140 -55q-72 -53 -88 -121z" />
<glyph unicode="A" horiz-adv-x="1073" d="M33 27q8 35 108 219l371 653l178 313q16 35 76 131q35 37 57 48q18 8 70 8q41 0 59 -39q27 -63 37 -176q2 -33 7 -94.5t8 -94.5q34 -384 49 -682q4 -83 3 -143q0 -77 -5 -109q-9 -40 -43 -67q-35 -29 -74 -29q-61 0 -74 72q-2 9 -1.5 38.5t1.5 80.5q0 137 -6 247h-6 q-86 0 -221 -14q-113 -12 -219 -16l-222 -387q-53 -20 -92 -21q-63 0 -63 45q0 8 2 17zM520 573q106 12 324 25q-14 225 -43 463z" />
<glyph unicode="B" horiz-adv-x="1212" d="M131 49q0 37 6 57q6 35 29 64q23 35 57 35q37 0 82 -17l49 205l86 406q29 260 58 403l-97 -6q-71 34 -71 82q0 7 2 14q20 106 229 107q303 0 500 -86q224 -99 224 -293q0 -40 -9 -84q-31 -147 -201 -238q179 -100 179 -259q0 -32 -7 -66q-47 -215 -278 -322 q-184 -86 -420 -86q-232 0 -418 84zM479 158q57 -4 82 -4q442 0 488 215q3 13 3 25q0 76 -110 132q-90 47 -205 66q-45 2 -153 29l-52 -261q-22 -106 -53 -202zM602 803q31 6 45 6q27 0 47.5 -2t44.5 -2q109 0 197 26q129 37 147 117q4 19 4 37q0 102 -135 160 q-104 45 -268 57q-31 -163 -82 -399z" />
<glyph unicode="C" horiz-adv-x="1013" d="M170 580q61 285 252 530q227 289 491 289q212 0 252 -240q0 -14 -2 -26q-10 -43 -41 -70q-37 -31 -75 -31q-55 0 -86 86q-31 84 -93 84q-174 0 -333 -241q-129 -197 -173 -394q-15 -71 -15 -132q0 -86 30 -152q55 -127 221 -127q180 0 272 168q43 16 91 16q66 0 65 -51 q0 -9 -2 -21q-8 -33 -45 -86q-143 -217 -424 -217q-254 0 -352 185q-54 101 -55 240q0 88 22 190z" />
<glyph unicode="D" horiz-adv-x="1099" d="M80 109q10 41 43 69q35 29 76 29q8 0 28 -4q43 219 201 958h-4h-6q-58 0 -58 46q0 10 2 22q2 6 7 14q59 100 149 133q68 23 191 23q285 0 424 -225q86 -141 85 -319q0 -87 -20 -183q-61 -291 -297 -496q-246 -211 -532 -211q-80 0 -181 35q-110 39 -110 95q0 7 2 14z M393 170h21h8q201 0 371 152q162 143 208 358q15 71 15 137q0 62 -12 119q-31 131 -119 201q-94 76 -273 75z" />
<glyph unicode="E" horiz-adv-x="966" d="M94 127l133 588q100 428 133 585q20 98 680 99q162 0 162 -82q0 -10 -2 -21q-10 -39 -37 -61q-33 -27 -67 -27q-29 0 -250 4q-111 2 -248 2q-80 0 -92 -81q-10 -63 -66 -328h181h127q31 0 72.5 1t51.5 1q37 0 60 -25q15 -17 15 -41q0 -10 -3 -22q-22 -104 -196 -105h-117 q-51 2 -234 2l-98 -466q283 10 520 10q118 0 118 -72q0 -11 -3 -25q-20 -94 -143 -94q-23 0 -116 -1t-163 -1t-163 -1t-118 -1q-92 0 -122 35q-21 23 -21 70q0 25 6 57z" />
<glyph unicode="F" d="M84 29l127 612l129 612q18 84 66 117q45 29 661 29q132 0 132 -75q0 -11 -3 -24q-10 -41 -41 -65.5t-70 -24.5h-120q-53 2 -119 2q-70 0 -125 -2t-125 -2q-61 0 -90 2l-84 -401h395h18q132 0 132 -78q0 -11 -2 -22q-6 -39 -37 -63.5t-68 -24.5q-43 0 -76 2q-66 4 -75 4 h-164q-135 -6 -164 -6l-129 -609q-78 -47 -121 -47q-49 0 -49 43q0 9 2 21z" />
<glyph unicode="G" horiz-adv-x="1075" d="M190 690q55 258 224 467q197 242 438 242q225 0 340 -232q-70 -113 -127 -112q-6 0 -92 75q-83 74 -154 74q-160 0 -287 -184q-104 -151 -141 -326q-20 -95 -20 -176q0 -93 26 -172q61 -176 250 -176q147 0 236 135l28.5 141l32.5 158q-34 0 -104 -6t-105 -6 q-72 0 -143 24q-12 35 -12 66q0 17 4 33q12 53 67 65q12 2 99 2q16 0 151 9q102 6 152 6q96 0 102 -92v-15q0 -54 -18 -151q-6 -29 -29 -133q-20 -82 -31 -134q-47 -217 -84 -286q-45 -82 -121 -82q-45 0 -61 28q-11 18 -11 41q0 15 5 33q-100 -41 -205 -41q-270 0 -379 236 q-55 122 -55 273q-1 100 24 216z" />
<glyph unicode="H" horiz-adv-x="1112" d="M82 55l274 1291q86 47 136 47t50 -43q0 -10 -3 -23v1l-11 -52l-41 -187l-61 -288q14 0 44 -1t46 -1q80 0 258 12q166 12 258 12q4 12 25 113q4 20 9 59t9 56q33 158 80 303q70 45 119 45t49 -62q0 -21 -6 -51l-129 -596l-129 -596q-27 -129 -121 -129q-39 0 -61 27 q-3 4 -4 19q0 97 110 612q-317 -16 -477 -17q-86 0 -119 2l-53 -256l-58 -256q-29 -131 -122 -131q-37 0 -60 27q-15 17 -15 42q0 10 3 21z" />
<glyph unicode="I" horiz-adv-x="561" d="M92 80q16 66 121 65q18 117 121 592q8 51 47 234l43 235q-25 2 -86 17q-11 44 -11 70q0 14 3 26q14 70 94 70q2 0 9 -1.5t11 -1.5h21q41 0 127 6.5t127 6.5q75 0 75 -57q0 -12 -3 -25q-23 -100 -185 -100q-8 -61 -88 -445q-59 -307 -127 -618q132 -3 132 -78 q0 -11 -3 -23q-18 -88 -313 -88q-46 0 -92 6q-25 47 -25 86q0 12 2 23z" />
<glyph unicode="J" horiz-adv-x="942" d="M94 401q12 53 41 121q63 29 107 29q58 0 58 -50q0 -11 -3 -24q0 -2 -2 -8l-4 -12t-5 -13.5t-3 -9.5q-8 -42 -9 -78q0 -57 21 -104q41 -90 137 -90q285 0 410 586q20 102 37 217q0 4 18 170q12 98 29 172q10 43 39 65q33 27 73 27q82 0 83 -91q0 -40 -21 -137 q0 -16 -25 -223q-23 -162 -35 -221q-66 -305 -198 -498q-178 -264 -445 -264q-174 0 -258 133q-57 86 -56 198q-1 50 11 105z" />
<glyph unicode="K" horiz-adv-x="995" d="M100 94l13 56q2 8 6 21t6 21.5t2 14.5l106 532l107 533q27 127 123 127q37 0 59 -25q3 -4 4 -20q0 -92 -102 -566l543 529q84 82 129 82q41 0 61 -29q15 -22 15 -47q0 -11 -3 -23q-10 -43 -65 -98l-94 -84q-23 -20 -404 -391q55 -76 146 -250l135 -258l45 -72 q20 -41 20 -67q0 -9 -2 -17q-10 -41 -45 -67q-41 -31 -74 -31q-40 0 -73 49q-10 14 -43 82l-127 248q-27 47 -131 244l-86 -74l-54 -256q-25 -125 -57 -248q-74 -45 -119 -45q-49 0 -48 66q-1 26 7 63z" />
<glyph unicode="L" horiz-adv-x="915" d="M143 272q35 162 99 502q27 150 98 504q25 121 123 121q74 0 74 -91q0 -31 -9 -71q-2 -6 -7 -24.5t-7 -28.5q-10 -45 -12 -51q-23 -104 -82 -412l-82 -410q-8 -37 -17.5 -76.5t-17.5 -80.5h135q23 0 186.5 4t186.5 4q118 0 118 -74q0 -11 -3 -25q-18 -90 -133 -90 q-20 0 -213 -4t-213 -4q-176 0 -217 21q-32 16 -33 94q0 70 26 192z" />
<glyph unicode="M" horiz-adv-x="1284" d="M94 55l10 41q4 12 11 43q35 164 104 527q74 387 105 528q43 197 145 197q35 0 59 -27q27 -29 15 -57q25 -117 110 -590l76 -406l410 727l96 174q74 133 96 154q39 33 80 33q75 0 75 -86q0 -27 -7 -62l-262 -1239q-76 -47 -121 -47q-52 0 -52 77q0 36 11 89q2 16 12 51 t12 51l117 551q-82 -135 -301 -530l-94 -172q-68 -104 -150 -105q-72 0 -96 162l-119 674q-66 -340 -76 -379q-41 -197 -104 -424q-74 -45 -117 -45q-49 0 -49 54q0 16 4 36z" />
<glyph unicode="N" horiz-adv-x="1077" d="M162 -35q-30 1 -30 95q0 185 116 735q33 160 43 217q18 113 41 217q29 131 71 153q14 10 80 11q25 0 47 -23q72 -78 156 -297l113 -334q57 -174 108 -348l88 420l52 258l51 256q6 25 51 49q47 25 72 25q45 0 51 -51q1 -10 1 -24q0 -63 -36 -239l-217 -1030 q-18 -90 -141 -90q-70 0 -107 148q-2 12 -8 38.5t-14 65.5q-111 414 -271 811l-172 -811q0 -4 -3 -21.5t-5 -31.5t-6 -32.5t-4 -22.5q-31 -144 -127 -144z" />
<glyph unicode="O" horiz-adv-x="1118" d="M174 592q61 285 227 518q203 289 463 289q248 0 334 -256q38 -119 38 -254q0 -111 -26 -230q-59 -272 -217 -462q-190 -231 -444 -232q-248 0 -346 195q-50 105 -51 240q0 89 22 192zM365 602q-21 -97 -21 -173q0 -272 270 -271q147 0 269 184q94 143 129 313 q22 103 21 202q0 49 -5 97q-20 174 -127 230q-41 23 -63 22q-51 0 -127 -35q-139 -66 -236 -249q-73 -142 -110 -320z" />
<glyph unicode="P" horiz-adv-x="1122" d="M166 53l45 211l22.5 91t17.5 78t9 42q-52 22 -52 74q0 12 3 24q14 76 90 95l117 534l-51 -4q-37 52 -38 92q0 10 3 21q10 39 143 65q113 23 170 23q297 0 479 -121q178 -117 178 -315q0 -52 -12 -109q-49 -224 -282 -338q-190 -90 -433 -90q-86 0 -145 8 q-73 -344 -74 -344v2q-29 -127 -118 -127q-37 0 -60 25q-15 17 -15 42q0 10 3 21zM473 635q55 -6 127 -6q442 0 487 219q8 38 9 72q0 140 -142 217q-127 70 -352 69z" />
<glyph unicode="Q" horiz-adv-x="1107" d="M166 592q61 289 225 518q207 289 463 289q248 0 334 -256q39 -116 39 -250q0 -111 -27 -234q-80 -383 -338 -579q32 -134 32 -180q0 -7 -1 -13q-10 -39 -43 -65.5t-76 -26.5q-41 0 -59 35q-6 15 -19 74q-8 41 -18 82q-76 -20 -139 -21q-248 0 -346 195q-49 102 -50 235 q1 91 23 197zM356 600q-19 -89 -19 -163q0 -78 21 -138q49 -139 248 -139h25q-34 117 -68 215q63 102 123 102q39 0 123 -213q143 150 199 408q21 103 21 191q0 75 -15 143q-43 199 -201 198q-178 0 -311 -225q-99 -160 -146 -379z" />
<glyph unicode="R" horiz-adv-x="1110" d="M141 53l41 193q37 157 43 190l162 748h4q-63 53 -63 96q0 7 2 14q10 43 153 76q125 29 185 29q266 0 430 -76q181 -85 181 -257q0 -38 -9 -81q-49 -236 -443 -385q27 -70 84 -207l74 -166q46 -112 46 -153q0 -7 -1 -13q-8 -39 -45 -65q-39 -29 -74 -29q-63 0 -123 139 l-71 199q-31 76 -88 230q-104 -27 -205 -27l-84 -395q-31 -147 -129 -148q-35 0 -57 25q-15 17 -15 42q-1 10 2 21zM465 700q168 16 346 80q242 90 266 211q4 17 4 33q0 103 -157 154q-121 35 -291 34h-55q-56 -236 -113 -512z" />
<glyph unicode="S" horiz-adv-x="974" d="M115 311q0 23 2 31q10 41 45 67.5t78 26.5q47 0 65 -43l25 -82q20 -61 92 -102t145 -41q94 0 160 53q68 55 86 148q3 16 3 31q0 54 -44 98q-37 33 -117 80q-178 108 -252 184q-108 111 -108 229q0 27 6 56q31 141 168 247q135 104 281 105q137 0 227 -82q94 -84 102 -211 q-74 -74 -125 -74q-29 0 -53 47q-33 63 -53 84q-47 47 -127 47q-66 0 -137 -49q-68 -47 -84 -112q-2 -11 -3 -22q0 -77 117 -165l207 -127q115 -70 162 -145q38 -62 38 -143q0 -40 -9 -85q-37 -172 -176.5 -284.5t-311.5 -112.5q-166 0 -278.5 94t-130.5 252z" />
<glyph unicode="T" horiz-adv-x="1083" d="M305 1323q18 78 899 78q140 -3 140 -80q0 -10 -3 -23q-8 -37 -40.5 -63.5t-69.5 -26.5v0v0h1v0v0v0h-1v0v0h-1v0h-1h-1v0h-1h-1h-1h-1h-1h-1v0h-2h-1h-1h-1h-1h-1h-1h-1h-2h-1h-1h-2h-2v0h-2h-2h-2h-2h-1h-2h-2h-2h-2h-2h-2h-1h-3h-2h-2h-3h-1h-2h-3h-1h-2h-3h-1h-2h-3 h-1h-3h-1h-3h-1h-3h-1h-3h-1h-3h-2h-2h-2h-3h-1h-3h-2h-1h-3h-1h-2h-3h-1h-3h-2h-2h-3h-1h-2h-3h-1h-2h-2h-3h-1h-2h-3h-2h-1h-2h-3h-2h-2h-1h-4h-1h-2h-2h-3h-2h-1h-2h-2h-3h-2h-2h-1h-2h-3h-2h-2h-2h-1h-2h-4h-2h-1h-2h-2h-2h-1h-4h-2h-2h-1h-2h-2h-2h-2h-3h-2h-2h-2h-2 h-2h-2h-1h-2h-4h-2h-2h-2h-2h-1h-2h-2h-2h-2h-2h-2h-2h-4h-2h-1h-2h-2h-2h-2h-2h-2h-2h-2h-2h-2h-2h-2h-2h-2h-2h-2h-2h-4h-2h-2h-2h-2h-2h-2h-2h-2h-2h-2h-20l-168 -792q-34 -187 -80 -406q-80 -45 -124 -45q-52 0 -53 61q0 19 5 44q3 9 7 24q6 18 6 25q8 33 51 239 q51 283 172 850q-139 -4 -152 -4q-88 0 -198 13q-27 48 -27 86q0 10 2 20z" />
<glyph unicode="U" horiz-adv-x="1054" d="M209 698q33 147 82 324q82 283 92 324q72 45 121 45q48 0 48 -43q0 -10 -3 -23q-18 -90 -78 -319q-57 -221 -78 -322q-36 -171 -36 -287q0 -236 151 -235q326 0 493 788q16 76 35 178l35 179q10 43 39 65q33 27 74 27q74 0 82 -82v-11q0 -43 -19 -135q-6 -45 -26 -143 q-227 -1061 -748 -1061q-306 0 -306 389q0 144 42 342z" />
<glyph unicode="V" horiz-adv-x="991" d="M309 1313q80 78 133 78q37 0 45 -43q20 -72 23 -183q2 -47 2 -92v-92q18 -369 59 -645l158 319l223 451q43 92 80 184q43 109 121 109q43 0 68 -31q19 -23 18 -52q0 -10 -2 -20l-8 -16l-152 -334l-332 -676q-59 -123 -98 -184q-78 -121 -155 -121q-49 0 -72 53 q-12 25 -25 97l-39 278q-35 351 -47 920z" />
<glyph unicode="W" horiz-adv-x="1529" d="M322 1307q80 86 129 86q39 0 53 -64q4 -14 14 -96q41 -393 45 -807q199 432 293 709q12 45 35 102q20 53 47 98q39 63 94 64q106 0 109 -211q2 -326 49 -785l242 582q37 80 104 240q37 94 47 112q37 61 98 62q37 0 62 -27q19 -21 19 -46q0 -9 -3 -19q-29 -127 -510 -1203 q-61 -139 -139 -139q-86 0 -98 162q0 8 -2 42t-4 58q-25 258 -54 656q-195 -487 -362 -803q-6 -10 -31 -47q-63 -70 -117 -70q-52 0 -67 62q-6 23 -6 106q0 48 2 113q2 62 2 133q0 357 -51 930z" />
<glyph unicode="X" horiz-adv-x="1069" d="M569 635q-61 147 -135 348l-57 162q-31 102 -39 172q74 82 127 82q41 0 76 -115q61 -209 172 -467l262 340q47 74 141 195q43 43 80 43q39 0 61 -29q17 -21 17 -47q0 -9 -2 -19q-12 -57 -481 -653q232 -514 232 -586q0 -4 -1 -6q-8 -35 -43 -63q-33 -27 -74 -27 q-57 0 -90 80l-45 129q-14 37 -129 291l-412 -500h-26q-35 0 -72 19q-36 19 -36 45q0 20 86.5 129.5l325.5 400.5z" />
<glyph unicode="Y" horiz-adv-x="1062" d="M299 1290q70 106 127 107q33 0 74 -88q14 -41 194 -447q115 109 307 316l89 110q61 74 96 96q23 14 51 15q37 0 61 -29q19 -21 19 -46q0 -9 -2 -19q-10 -55 -256 -326l-318 -334q-51 -289 -88 -452q-27 -115 -49 -183q-68 -45 -115 -45q-51 0 -51 79q0 39 13 97 q2 16 22 103q20 94 23 100l63 295q-141 268 -260 651z" />
<glyph unicode="Z" horiz-adv-x="1058" d="M63 55q10 41 140 183l426 473q236 270 395 489h-377q-119 0 -244 -8q-29 59 -29 101q0 13 3 24q18 82 186 82q41 0 74 -2t72 -2q139 0 251.5 2t251.5 2q37 0 60 -25q15 -17 15 -43q0 -11 -3 -22q-16 -74 -184 -295q-307 -408 -758 -867q508 8 606 9q35 0 58 -27 q17 -19 16 -43q0 -9 -2 -18q-16 -68 -90 -91q-33 -8 -127 -8q-10 0 -56.5 -1t-79 -1t-77.5 -1t-58 -1q-16 0 -82.5 1t-115.5 1t-115.5 1t-83.5 1q-75 0 -75 59q0 12 3 27z" />
<glyph unicode="[" horiz-adv-x="851" d="M229 55q-4 23 252 1231q18 78 97 100q27 8 137 9q41 0 71.5 2t69.5 2q78 0 110.5 -26.5t22.5 -78.5q-12 -63 -78 -80q-25 -6 -256 -6l-151 -721l-72 -327q98 6 182 6q72 0 101.5 -24.5t19.5 -73.5q-23 -104 -205 -105q-176 0 -231 19q-64 18 -70 73z" />
<glyph unicode="\" horiz-adv-x="669" d="M317 1311q8 39 43 63q34 25 74 25q86 0 101 -164l79 -840q6 -45 12.5 -86t10.5 -82q16 -119 4 -168q-8 -37 -43 -65.5t-74 -28.5q-55 0 -80 60q-23 55 -26 161q-4 57 -8 168l-27 312q-31 231 -66 559q-4 55 0 86z" />
<glyph unicode="]" horiz-adv-x="856" d="M154 72q16 66 77 80q33 8 258 8q2 16 5.5 29.5t5.5 22.5t3 16.5t2 9.5l1 2l164 774q16 82 45 192q-95 -6 -185 -6q-74 0 -105.5 25.5t-21.5 74.5q22 98 326 99q114 0 154 -31q47 -37 24 -147l-123 -570l-125 -571q-14 -76 -94 -98q-72 -20 -250 -21q-94 0 -132.5 28 t-28.5 83z" />
<glyph unicode="^" horiz-adv-x="899" d="M352 1096q12 55 131 161q113 102 179 125q39 16 73 17q76 0 180 -113q104 -115 91 -182q-10 -43 -45 -72q-37 -31 -76 -31q-29 0 -113 103q-20 27 -43.5 54.5l-31.5 36.5l-7 9l-18 -15l-84 -69.5l-119 -97.5q-68 0 -96.5 18.5t-20.5 55.5z" />
<glyph unicode="_" horiz-adv-x="1415" d="M184 -127l35 162h989l-34 -162h-990z" />
<glyph unicode="`" horiz-adv-x="534" d="M451 1735q8 39 45 65q35 27 75 27q55 0 131 -110.5t64 -160.5q-10 -43 -45 -69q-39 -29 -78 -29q-43 0 -74 43q-25 33 -69 117q-53 99 -49 117z" />
<glyph unicode="a" horiz-adv-x="903" d="M129 393q37 182 207 321.5t352 139.5q72 0 148 -31q37 41 84 41q72 0 71 -92q0 -36 -10 -86q-12 -61 -53 -223q-43 -172 -54 -221q-16 -74 -24 -187q-78 -76 -129 -75q-33 0 -43 65q-141 -80 -275 -80q-170 0 -245 131q-42 78 -42 178q0 56 13 119zM330 383 q-7 -32 -7 -62q0 -43 15 -79q29 -72 104 -72q117 0 254 109q28 108 74 325l-57 31q-33 16 -72 16q-100 0 -195 -82q-96 -84 -116 -186z" />
<glyph unicode="b" horiz-adv-x="870" d="M92 113l125 565l125 565q35 156 133 156q75 0 75 -89q0 -28 -7 -65l-92 -434q76 39 172 39q182 0 270 -139q60 -91 59 -208q0 -53 -12 -110q-37 -175 -184 -301q-150 -127 -320 -127q-109 0 -188 62q-61 -41 -111 -41q-52 0 -52 67q0 25 7 60zM324 305q27 -72 53 -98 q41 -41 106 -41l21 4q201 43 239 229q8 35 8 68q0 60 -26 108q-45 82 -143.5 82t-198.5 -77z" />
<glyph unicode="c" horiz-adv-x="833" d="M121 358q31 144 141 271q111 125 256 186q94 39 164 39q92 0 147 -66q55 -63 52 -157q-74 -82 -125 -82q-31 0 -56 53q-25 55 -55 55q-86 0 -192.5 -94t-124.5 -180q-10 -47 -11 -84q0 -129 123 -129q65 0 178.5 73.5t141.5 73.5q41 0 65 -30q17 -21 17 -49q0 -11 -2 -23 q-6 -25 -27 -47q-68 -82 -192 -143q-123 -59 -224 -60q-156 0 -235 121q-51 79 -52 179q1 44 11 93z" />
<glyph unicode="d" horiz-adv-x="827" d="M98 393q37 172 183 316q152 145 323 145q72 0 127 -27l39 187q20 115 27 147q15 98 24 148q18 90 109 90q78 0 78 -88q0 -38 -19 -127l-119 -576q-71 -344 -98 -577q-78 -53 -125 -54q-37 0 -45 43q-104 -55 -207 -55q-170 0 -252 131q-57 86 -56 194q-1 49 11 103z M299 399q-8 -34 -8 -65q0 -52 22 -96q37 -78 125 -78q94 0 180 69q18 125 68 365q-55 63 -125 63q-84 0 -168 -90q-76 -84 -94 -168z" />
<glyph unicode="e" horiz-adv-x="882" d="M129 395q37 174 186 314q154 145 326 145q125 0 205 -119q58 -88 58 -182q0 -33 -7 -68q-16 -68 -100 -92q-92 -27 -344 -26q-35 0 -125 4q0 -5 -1 -11q0 -81 46 -135q49 -57 135 -57q59 0 160 51q102 53 131 53q39 0 63 -26q19 -21 19 -48q0 -9 -2 -20q-6 -28 -37 -61 q-70 -70 -180.5 -111t-194.5 -41q-176 0 -274 129q-73 96 -74 213q0 43 10 88zM420 551q57 0 272 18q-29 88 -98 88q-76 0 -174 -106z" />
<glyph unicode="f" horiz-adv-x="798" d="M168 639q16 68 125 68q55 262 143 409q162 283 371 283q121 0 176 -86q38 -60 38 -137q0 -34 -7 -72q-25 -117 -123 -117q-59 0 -72 55q0 18 -1 51t-1 52q-3 55 -43 55q-100 0 -192 -203q-57 -129 -88 -278q104 6 196 6q100 0 100 -68q0 -12 -4 -26q-20 -100 -204 -101 q-35 0 -64 2q-57 4 -63 5q-16 -178 -62 -519q-88 -53 -135 -53q-50 0 -50 75q0 32 9 79q0 20 10 82q6 121 33 329l-70 -2q-25 50 -24 89q0 12 2 22z" />
<glyph unicode="g" horiz-adv-x="862" d="M66 -170q10 43 43 68q35 27 77 26q40 0 93 -74q51 -72 110 -71q117 0 197 217q-86 -31 -148 -31q-170 0 -258 144q-58 95 -58 207q0 49 11 102q37 178 174 303q150 133 320 133q90 0 166 -47q57 27 92 27q53 0 53 -74q0 -39 -18 -119q-16 -84 -29 -188q-14 -121 -31 -189 q-147 -690 -510 -690q-95 0 -178 61.5t-104 147.5q-4 17 -5 29q1 9 3 18zM332 424q-7 -31 -7 -61q0 -59 27 -111q45 -86 140 -86q39 0 163 63q27 139 58 371q-49 59 -121 59q-92 0 -166 -71q-76 -74 -94 -164z" />
<glyph unicode="h" horiz-adv-x="874" d="M109 14q-5 20 -5 41t5 41q4 23 13 62t21 96q25 109 35 162l146 686q4 53 9 106.5l7 75t2 23.5q10 41 41 65q33 27 70 27q80 0 82 -96q0 -39 -27 -160q-2 -6 -3 -13.5t-6 -28t-12.5 -54t-22.5 -107.5l-36 -170q145 102 287 102q195 0 235 -167q12 -45 12 -107 q0 -94 -28 -229q-47 -221 -100 -320q-47 -84 -117 -84q-41 0 -62 27q-15 19 -15 45q0 11 3 22q10 51 53 189q33 106 54 188q14 67 14 115q0 129 -100 129q-141 0 -267 -217q-18 -31 -28 -60q-4 -23 -12.5 -55.5t-16.5 -77.5q-33 -141 -70 -260q-74 -45 -116 -45 q-35 0 -45 49z" />
<glyph unicode="i" horiz-adv-x="344" d="M76 55l35 168q34 120 92 393q45 219 155 220q71 0 71 -62q0 -13 -3 -29q-4 -80 -43 -186l-47 -184q-41 -182 -45 -191q-25 -98 -60 -190q-68 -29 -102 -29q-57 0 -57 57q0 14 4 33zM289 1038q8 39 43 74q33 33 78 33q46 0 73 -31q21 -23 21 -54q0 -10 -2 -22 q-10 -43 -47 -77q-35 -33 -78 -33q-45 0 -72 33q-19 23 -19 53q0 12 3 24z" />
<glyph unicode="j" horiz-adv-x="671" d="M-6 -68q76 47 123 48q41 0 47 -41q0 -20 1 -39t1 -37q0 -123 55 -123q145 0 234 420q20 98 49 268q33 195 51 272q28 135 129 136q75 0 75 -76q0 -20 -5 -45q-25 -117 -47 -252q-25 -145 -48 -254q-63 -242 -143 -408q-141 -248 -328 -247q-135 0 -184 127 q-24 60 -24 132q0 55 14 119zM610 1047q8 37 45 67q35 29 76 29q47 0 76 -31q19 -21 19 -52q0 -12 -3 -26q-10 -43 -47 -71.5t-80 -28.5q-45 0 -69 33q-19 26 -19 57q0 11 2 23z" />
<glyph unicode="k" horiz-adv-x="835" d="M80 57q14 68 59 252q53 221 144 647l34 177q29 156 33 176q10 41 41 65.5t72 24.5q71 0 71 -82q0 -27 -8 -64l-43 -221l-45 -221q-12 -53 -18 -86t-16.5 -83l-24.5 -116l180 113q111 72 307 211q41 -4 78 -25q47 -25 41 -55q-18 -82 -362 -293q212 -345 211 -416 q0 -39 -43 -71q-33 -25 -72 -25q-45 0 -86 68q-12 27 -25.5 52.5t-25.5 51.5q-68 139 -125 240l-135 -84q-39 -170 -86 -297q-72 -31 -101 -31q-59 0 -59 59q0 15 4 33z" />
<glyph unicode="l" horiz-adv-x="329" d="M94 94q0 6 2 15.5t6 22.5t7 24q10 39 14 61l106 535q68 356 105 534q23 113 115 113q74 0 74 -91q0 -32 -9 -75q-2 -16 -12 -53q-2 -6 -4 -14.5t-3 -13.5t-3.5 -10t-2.5 -7q-20 -100 -75 -414q-57 -317 -78 -414q-34 -157 -80 -295q-76 -47 -119 -47q-51 0 -51 67 q0 26 8 62z" />
<glyph unicode="m" horiz-adv-x="1173" d="M86 80l7 33l25.5 121l39.5 186q31 126 86 381q82 45 127 45q35 0 45 -31q80 43 155 43q133 0 193 -98q109 94 229 94q225 0 225 -253q0 -80 -22 -185q-14 -72 -45 -178q-23 -78 -43 -179q-8 -37 -43 -65.5t-72 -28.5q-74 0 -74 88q0 29 9 68q14 63 43 176l45 176 q11 54 11 92q0 98 -75 99q-84 0 -155 -109q-8 -72 -21 -133q-8 -39 -47 -178.5t-47 -177.5q-10 -43 -41 -68q-33 -27 -72 -27q-74 0 -74 88q0 29 9 68q14 68 45 174q33 111 45 176q11 52 11 90q0 103 -77 103q-76 0 -147 -101l-98 -458q-31 -145 -129 -146q-73 0 -73 72 q0 19 5 43z" />
<glyph unicode="n" horiz-adv-x="821" d="M84 80l72 340q12 51 84 381q82 45 127 45q41 0 47 -41q98 53 200 53q176 0 232 -135q26 -62 26 -147q0 -70 -18 -152q-4 -23 -49 -180q-39 -139 -47 -178q-10 -43 -41 -68q-37 -31 -74 -31q-74 0 -74 89q0 30 9 69q8 47 40 151q14 49 39 150q14 66 15 115q0 129 -103 129 q-111 0 -192 -107l-96 -446q-31 -152 -129 -152q-73 0 -73 72q0 19 5 43z" />
<glyph unicode="o" horiz-adv-x="827" d="M129 377q41 188 162 325q139 160 317 160q168 0 236 -139q38 -77 38 -175q0 -59 -14 -124q-41 -186 -155 -313q-133 -145 -310 -146q-166 0 -241 125q-45 78 -45 178q0 52 12 109zM322 391q-11 -50 -11 -90q0 -142 140 -141q88 0 151 94q51 74 74 170q8 38 8 73 q0 43 -12 83q-29 90 -107 90q-184 0 -243 -279z" />
<glyph unicode="p" horiz-adv-x="821" d="M45 -211l18 74l9.5 41.5t7.5 29.5q31 141 74 414t73 414q8 39 39 65q29 27 72 27q55 0 76 -43q74 37 159 37q172 0 265 -148q60 -99 60 -213q0 -49 -11 -102q-37 -168 -164 -289q-137 -131 -297 -131q-72 0 -143 33q-16 -84 -23 -102q-25 -123 -61 -220q-53 -53 -103 -53 q-61 0 -61 84q0 34 10 82zM324 225q70 -63 143 -63q76 0 143 74q61 63 80 149q7 32 7 63q0 61 -27 117q-43 92 -140 92q-78 0 -139 -79q-32 -189 -67 -353z" />
<glyph unicode="q" horiz-adv-x="800" d="M96 371q37 178 183 325q160 162 327 162q74 0 131 -37q34 43 86 43q75 0 75 -76q0 -20 -5 -45l-82 -376l-145 -689q-92 -45 -140 -45t-48 43q0 10 3 23q2 12 6.5 28.5t18.5 85t39 181.5q-70 -29 -135 -29q-166 0 -258 121q-65 84 -65 195q-1 43 9 90zM291 365 q-5 -24 -5 -47q0 -58 36 -103q49 -61 137 -61q68 0 139 59l80 369q-37 82 -107 82q-86 0 -178 -109q-79 -94 -102 -190z" />
<glyph unicode="r" horiz-adv-x="776" d="M84 57l18 95l107 510q41 188 139 188q74 0 74 -71v-11q119 80 225 80q147 0 203 -123q28 -61 28 -140q0 -56 -14 -122q-10 -41 -38.5 -67.5t-73.5 -26.5q-72 0 -78 75q4 90 4 138q-4 76 -64 75q-77 0 -165 -73q-88 -74 -107 -150l-88 -424q-80 -45 -127 -45q-48 0 -48 53 q0 16 5 39z" />
<glyph unicode="s" horiz-adv-x="768" d="M76 154q10 27 45 75q41 53 69 54l91 -68q88 -66 163 -65q100 0 136 51q6 68 -101 135l-190 121q-83 68 -84 142q0 16 4 32q22 101 135 166q102 57 211 57q68 0 145 -37q81 -38 82 -89q0 -7 -2 -13q-10 -41 -43 -70q-37 -31 -75 -31q-29 0 -70 21q-45 23 -72 22 q-72 0 -108 -26q35 -49 151 -113q133 -68 164 -106q51 -55 51 -140q0 -33 -8 -69q-20 -111 -139 -178q-102 -59 -219 -60q-227 1 -336 189z" />
<glyph unicode="t" horiz-adv-x="688" d="M182 791q18 78 174 77q20 0 37 -2t35 -2l78 365q10 41 39 63q33 27 69.5 27t59.5 -27q16 -19 16 -44q0 -9 -2 -19l-76 -359q43 2 156 2q41 0 63 -26q15 -17 16 -41q0 -10 -3 -23q-18 -80 -115 -98q-51 -10 -158 -10l-141 -662q-100 -47 -137 -47q-48 0 -48 43q0 10 3 23 q12 57 31 137q2 8 108 508q-121 0 -192 12q-15 45 -15 77q-1 14 2 26z" />
<glyph unicode="u" horiz-adv-x="870" d="M190 635q49 225 162 225q41 0 66 -26q17 -19 17 -47q0 -11 -3 -23q-10 -47 -31 -121q-23 -86 -30 -119q-26 -122 -26 -203q0 -161 101 -161q80 0 158 88q66 74 92 162q16 51 47 198q27 123 60 201q66 35 108 35q50 0 50 -64q0 -23 -7 -55l-18 -80q-4 -16 -8 -35.5 t-10.5 -46t-21.5 -101.5t-38 -179q-4 -14 -11 -53.5t-11 -59.5q-4 -23 -11.5 -62.5t-11.5 -52.5q-8 -39 -39 -63q-33 -27 -69 -27q-78 0 -76 82q-109 -82 -226 -82q-254 0 -253 341q-1 137 40 329z" />
<glyph unicode="v" horiz-adv-x="804" d="M195 772q82 78 129 78q33 0 49 -41q3 -9 37 -191l65 -313q163 280 246 443q61 123 135 122q35 0 62 -26q19 -19 18 -44q0 -9 -2 -18q-2 -16 -6 -26q-168 -395 -422 -729q-47 -61 -103 -62q-82 0 -106 176q-47 228 -102 631z" />
<glyph unicode="w" horiz-adv-x="1095" d="M215 393q-4 121 -4 214q0 112 6 188q72 53 123 53q61 0 70 -193q-1 -27 -1 -61q0 -80 5 -240l178 371q70 143 145 143q47 0 72 -43q25 -45 35 -415q8 14 114 225l66 145q51 88 115 88q41 0 61 -24q17 -19 17 -45q0 -9 -3 -19q-8 -43 -182 -387t-201 -370q-43 -47 -92 -48 q-59 0 -71 70q-4 25 -4 119q0 135 -11 291l-159 -336q-76 -154 -162 -154q-53 0 -76 55q-33 80 -41 373z" />
<glyph unicode="x" horiz-adv-x="837" d="M74 66q6 29 39 67l266 275q-92 184 -168 313q18 41 45 76q39 51 72 51q47 0 198 -285l195 207q82 88 135 88q37 0 64 -27q19 -19 18 -45q0 -9 -2 -20q-9 -46 -326 -375q63 -131 125 -221q40 -62 41 -96q0 -6 -2 -13q-10 -41 -41 -65q-37 -31 -71 -31q-72 0 -201 268 l-234 -241q-49 -18 -86 -18.5t-55 26.5q-15 22 -15 46q1 10 3 20z" />
<glyph unicode="y" horiz-adv-x="872" d="M80 -309q6 25 268 370l-106 514q-12 49 -29 193q74 84 125 84q43 0 65 -84q4 -8 25 -121l82 -360q133 188 223 340q45 78 121 184q39 43 84 43q39 0 63 -27q20 -23 21 -48q0 -8 -2 -17l-8 -21q-43 -76 -152 -237l-225 -334q-225 -319 -422 -549h-27q-39 0 -69 17 q-43 22 -37 53z" />
<glyph unicode="z" horiz-adv-x="847" d="M72 53q10 57 100 146l139 125l328 338q-295 0 -367 10q-25 47 -24 85q0 12 2 23q12 49 84 68q23 4 112 8q6 0 98.5 1t176.5 1q6 0 30.5 -1t45.5 -1h75q37 0 60 -29q15 -19 15 -44q0 -10 -3 -21q-6 -35 -110 -141l-123 -123l-340 -342q195 6 307 6q116 0 116 -73 q0 -12 -3 -26q-20 -98 -168 -98q-6 0 -28 1t-38 1t-37.5 1t-27.5 1q-12 0 -63.5 -1t-90.5 -1t-90 -1t-64 -1q-115 0 -115 69q1 9 3 19z" />
<glyph unicode="{" horiz-adv-x="1032" d="M229 653q16 68 90 95q82 31 236 30q-4 12 -63 86q-90 113 -66 223q33 154 250 242q170 70 350 70q37 0 57 -23q18 -20 13 -59q-14 -68 -107 -94l-186 -37q-115 -25 -166 -78q-16 -18 -19 -29q-6 -31 93 -135q72 -78 51 -178q-6 -25 -12 -45q41 -47 24 -113 q-20 -94 -158 -209q-138 -117 -147 -166q-8 -33 26.5 -48t110.5 -15q45 0 117 14q82 16 115 17q39 0 59 -29q23 -31 12 -72q-12 -57 -78 -88q-104 -47 -276 -47q-137 0 -219 66q-96 74 -68 209q18 88 107 182l162 151q-25 -4 -66 -12q-59 -10 -172 -10q-41 0 -59 31 q-19 32 -11 71z" />
<glyph unicode="|" horiz-adv-x="604" d="M207 66l205 964q0 14 20 113q8 68 19 112q31 143 129 144q76 0 82 -76q2 -25 -21 -133l-82 -399l-82 -398l-69 -327q-10 -45 -43 -72q-35 -29 -78 -29t-66 29q-22 31 -14 72z" />
<glyph unicode="}" horiz-adv-x="1030" d="M223 51q16 66 94 90l213 45q156 39 168 101q6 27 -36 75q-55 61 -78 97q-41 70 -27 139q6 25 12 43q-41 43 -24 111q23 98 155 211q137 117 150 167q8 33 -27 48.5t-110 15.5q-45 0 -117 -14q-82 -16 -113 -17q-41 0 -63.5 31t-11.5 72q12 55 79 86q111 47 277 47 q139 0 221 -64q94 -72 66 -209q-18 -90 -107 -184l-164 -154l64 11q70 12 176 12q39 0 57 -31q18 -33 10 -71q-12 -66 -88 -95q-88 -33 -237 -32q18 -29 65 -82q92 -106 68 -219q-33 -152 -252 -242q-182 -74 -350 -74q-34 0 -55 25q-23 26 -15 61z" />
<glyph unicode="~" horiz-adv-x="1046" d="M408 1167q4 18 20 45q49 77 129 129q78 51 162 52q80 0 139 -50l56 -50q24 0 81.5 53t102.5 53q41 0 61 -27q23 -29 15 -65q-18 -82 -125 -152q-100 -63 -187 -63q-71 0 -117 55q-45 53 -67 53q-31 0 -88.5 -63.5t-106.5 -63.5q-41 0 -61 27q-22 28 -14 67z" />
<glyph unicode="&#xa2;" horiz-adv-x="856" d="M256 786q27 131 125 252q104 123 231 162l9 39q35 160 133 160q68 0 67 -66q0 -37 -18 -121q102 -18 153 -84q52 -68 37 -172q-76 -51 -121 -51q-29 0 -51 49q-25 55 -61 68q-76 -358 -88 -404q70 18 98 19q35 0 57.5 -28.5t12.5 -69.5q-20 -98 -222 -123 q-29 -92 -49 -150q-66 -25 -106 -24q-72 0 -51 94q2 8 14 47q4 14 8 30l4 15q-111 37 -159 135q-48 94 -23 223zM465 770q-18 -88 29 -127l18 82l55 260q-59 -41 -69 -88q-2 -6 -7.5 -26.5l-9.5 -36.5q-14 -52 -16 -64z" />
<glyph unicode="&#xa5;" horiz-adv-x="1236" d="M279 213q20 100 213 100h53q10 0 19 -1t14.5 -1h7.5l20 97q-57 -2 -90 -2q-104 0 -151.5 25.5t-36.5 76.5q6 37 36.5 61.5t65.5 24.5q39 0 68 -2h67q78 0 84 43q-197 385 -252 641q-6 20 -2 41q6 33 41 59q31 23 68 23q51 0 90 -84l49 -129q46 -117 148 -350 q180 193 192 208q98 109 182 218q104 137 164 137q39 0 63.5 -29t16.5 -67q-18 -88 -252 -334l-319 -328l-7 -37q78 4 93 4q78 0 111.5 -25.5t23.5 -76.5q-16 -72 -115 -90q-51 -10 -153 -10q-2 -16 -17 -95h4h5h4h4h4h5h4h4h5h4h4h4h19q175 0 153 -104q-10 -43 -41 -66 q-35 -25 -71 -24h-152q-35 -152 -127 -152q-90 0 -59 154h-5h-4h-5h-4h-5h-5h-4h-5h-4h-5h-5h-5h-4h-5h-5h-5h-5h-16q-61 0 -113 18q-67 29 -59 76z" />
<glyph unicode="&#xa9;" horiz-adv-x="1361" d="M242 408q43 203 200 346q166 147 369 147q217 0 373 -131q172 -141 129 -350q-43 -211 -264 -340q-195 -115 -416 -115q-209 0 -320 117q-114 119 -71 326zM430 422q-25 -123 45 -193q66 -66 191 -65q-90 8 -143.5 71.5t-35.5 155.5q20 106 125 176q96 68 205 68 q61 0 109 -33q57 -39 45 -92q-6 -35 -39 -61q-29 -23 -68 -23q-16 0 -41 8q-31 10 -43 10q-23 0 -53 -12q-39 -16 -43 -39q-3 -12 18 -24q18 -10 33 -10.5t53.5 22t63.5 22.5q41 0 66 -26q25 -29 16 -68q-23 -102 -178 -139q120 18 215 68q119 66 141 168q29 135 -102 225 q-119 78 -258 78q-117 0 -207 -84t-115 -203z" />
<glyph unicode="&#xad;" d="M313 666q23 96 211 96q25 0 47 -2h50q31 0 96 6q43 4 96 4q43 0 64 -25q23 -27 14 -69q-12 -57 -105 -84q-68 -23 -139 -23q-12 0 -131 4.5t-131 4.5q-37 0 -59.5 24.5t-12.5 63.5z" />
<glyph unicode="&#xae;" horiz-adv-x="1503" d="M264 510q51 242 213 391q172 156 412 156q255 0 436 -160q197 -178 143 -424q-49 -229 -299 -377q-225 -131 -458 -131q-238 0 -367 153.5t-80 391.5zM461 526q-35 -168 47 -266q82 -100 248 -100q92 0 190 33q-18 6 -137 88l-2 -13q-10 -41 -41 -63q-33 -25 -72 -25 q-57 0 -76 58q-25 77 13 258q10 51 28 106q-39 0 -57 29q-20 31 -12 65q12 61 119 99q82 29 153 28q109 0 178 -51q84 -59 64 -160q-20 -102 -141 -172q141 -80 124 -151q-10 -33 -16 -43q172 95 203 233q33 154 -133 277q-151 111 -314 110q-296 0 -366 -340zM831 578 q72 10 76 28q2 12 -7 18.5t-32 6.5q-2 0 -9 -1t-13 -1q-5 -22 -15 -51z" />
<glyph unicode="&#xb4;" horiz-adv-x="518" d="M420 1548q6 29 96 125q74 78 121 115q49 39 84 39q37 0 61 -29q25 -27 15 -63q-12 -51 -131 -164t-170 -113q-35 0 -62 27q-24 24 -14 63z" />
<glyph unicode="&#x2000;" horiz-adv-x="911" />
<glyph unicode="&#x2001;" horiz-adv-x="1824" />
<glyph unicode="&#x2002;" horiz-adv-x="911" />
<glyph unicode="&#x2003;" horiz-adv-x="1824" />
<glyph unicode="&#x2004;" horiz-adv-x="606" />
<glyph unicode="&#x2005;" horiz-adv-x="454" />
<glyph unicode="&#x2006;" horiz-adv-x="303" />
<glyph unicode="&#x2007;" horiz-adv-x="303" />
<glyph unicode="&#x2008;" horiz-adv-x="227" />
<glyph unicode="&#x2009;" horiz-adv-x="364" />
<glyph unicode="&#x200a;" horiz-adv-x="100" />
<glyph unicode="&#x2010;" d="M313 666q23 96 211 96q25 0 47 -2h50q31 0 96 6q43 4 96 4q43 0 64 -25q23 -27 14 -69q-12 -57 -105 -84q-68 -23 -139 -23q-12 0 -131 4.5t-131 4.5q-37 0 -59.5 24.5t-12.5 63.5z" />
<glyph unicode="&#x2011;" d="M313 666q23 96 211 96q25 0 47 -2h50q31 0 96 6q43 4 96 4q43 0 64 -25q23 -27 14 -69q-12 -57 -105 -84q-68 -23 -139 -23q-12 0 -131 4.5t-131 4.5q-37 0 -59.5 24.5t-12.5 63.5z" />
<glyph unicode="&#x2012;" d="M313 666q23 96 211 96q25 0 47 -2h50q31 0 96 6q43 4 96 4q43 0 64 -25q23 -27 14 -69q-12 -57 -105 -84q-68 -23 -139 -23q-12 0 -131 4.5t-131 4.5q-37 0 -59.5 24.5t-12.5 63.5z" />
<glyph unicode="&#x2013;" horiz-adv-x="835" d="M313 666q16 70 99 88q34 6 135 6q31 0 96 6q43 4 96 4q43 0 64 -25q23 -25 12 -69q-10 -41 -94 -68q-49 -16 -119 -24q-71 -6 -196 -6q-111 0 -93 88z" />
<glyph unicode="&#x2014;" horiz-adv-x="1253" d="M326 666q12 58 80 79q49 16 288 17h121q53 -2 121 -2q31 0 96 6q43 4 96 4q43 0 66 -24.5t12 -69.5q-14 -66 -112 -84q-45 -10 -146 -10q-154 0 -276.5 -2t-276.5 -2q-35 0 -57 24.5t-12 63.5z" />
<glyph unicode="&#x2018;" horiz-adv-x="477" d="M397 1343q82 55 125 56q40 0 49 -43q2 -4 15 -117q12 -104 12 -106q-9 -37 -43 -62q-31 -23 -74 -22q-41 0 -59 43q-39 108 -25 251z" />
<glyph unicode="&#x2019;" horiz-adv-x="481" d="M358 1133q3 15 68 129q63 111 76 120q18 16 45 17q39 0 100 -56q-47 -145 -131 -251q-33 -43 -78 -43q-41 0 -63 22q-25 25 -17 62z" />
<glyph unicode="&#x201c;" horiz-adv-x="688" d="M422 1323q82 76 131 76q41 0 47 -51q83 43 123 43q59 0 41 -78q-6 -31 0 -94q6 -70 2 -95q-8 -33 -41 -59q-31 -25 -68 -25q-39 0 -59 33q-35 -41 -84 -41q-55 0 -72 55q-24 76 -20 236z" />
<glyph unicode="&#x201d;" horiz-adv-x="686" d="M395 1124q6 33 41 93q35 61 41 90v12l4 12q12 59 72 60q37 0 102 -43q31 51 70 51q47 0 98 -76q-66 -158 -121 -236q-37 -55 -96 -55q-47 0 -65 41q-33 -33 -72 -33t-59 25q-23 26 -15 59z" />
<glyph unicode="&#x2022;" horiz-adv-x="792" d="M279 580q31 143 102 233q90 113 223 113q109 0 152 -107q37 -92 12 -209q-27 -125 -100 -219q-88 -113 -207 -112q-127 0 -172 90q-37 80 -10 211z" />
<glyph unicode="&#x2026;" horiz-adv-x="1153" d="M197 72q12 53 67 102t111 49q52 0 74 -43q23 -47 12 -94q-10 -49 -55 -86q-45 -35 -94.5 -35t-86.5 27q-40 29 -28 80zM459 78q12 53 67.5 102t110.5 49q51 0 72 -43q25 -47 12 -96q-10 -49 -53 -84q-45 -35 -94.5 -35t-86.5 27q-38 27 -28 80zM725 80q12 53 66 100 q55 49 110 49q53 0 74 -41q23 -45 10 -96q-12 -53 -53 -84q-45 -35 -92 -35q-55 0 -86 25q-41 29 -29 82z" />
<glyph unicode="&#x202f;" horiz-adv-x="364" />
<glyph unicode="&#x205f;" horiz-adv-x="454" />
<glyph unicode="&#x20ac;" horiz-adv-x="1380" d="M178 526q14 76 113 105q43 12 158 12l12 45h-111q-41 0 -59.5 31t-9.5 69q16 66 75 89q35 14 117 20q6 0 34 2t46 4q108 209 252 338q176 158 369 158q109 0 176 -70q66 -66 77 -172q0 -14 -2 -24q-8 -41 -43 -70q-37 -31 -75 -31q-53 0 -84 86q-31 84 -93 84 q-190 0 -362 -287q176 8 227 9q90 0 68 -101q-16 -72 -107 -98q-35 -10 -151 -20q-47 -4 -141 -9l-15 -37q123 6 221 7q66 0 93.5 -28t17.5 -81q-14 -61 -86 -86q-72 -23 -285 -22q-6 -293 248 -293q182 0 275 168q47 16 90 16q78 0 61 -72q-6 -31 -45 -86 q-147 -217 -422 -217q-207 0 -315 131q-104 127 -92 334q-51 -2 -107 -2q-76 0 -98 14q-41 23 -27 84z" />
<glyph unicode="&#x2122;" horiz-adv-x="1816" d="M403 1303q8 41 43 69q33 27 76 27q29 0 234 -4t233 -4q137 0 176 -43q37 51 92 51q72 0 115 -160l64 -233q49 92 102 182q74 119 127 166q47 43 90 43q111 0 105 -160q0 -53 -41 -242q-10 -41 -21 -102l-12 -94q-8 -35 -43 -64q-33 -27 -72 -26q-109 0 -59 221 q-63 -125 -119 -185q-39 -43 -88 -43q-45 0 -80 23q-31 20 -72 174q-53 -209 -157 -209q-39 0 -64 31q-23 31 -14 70q10 49 22 83q16 49 25 87q12 55 22 116l15.5 80t7.5 37q-25 -10 -78 -10h-176q-6 -39 -20 -109q-2 -8 -10.5 -48l-14.5 -69l-27 -114q-25 -125 -118 -125 q-111 0 -74 172l24 100q20 94 23 101q9 37 18 98h-104q-88 0 -125 29t-25 84z" />
<glyph unicode="&#xe000;" horiz-adv-x="860" d="M0 860h860v-860h-860v860z" />
<glyph unicode="&#xfb01;" horiz-adv-x="1142" d="M875 55l35 168q34 120 92 393q45 219 155 220q71 0 71 -62q0 -13 -3 -29q-4 -80 -43 -186l-47 -184q-41 -182 -45 -191q-25 -98 -60 -190q-68 -29 -102 -29q-57 0 -57 57q0 14 4 33zM1088 1038q8 39 43 74q33 33 78 33q46 0 73 -31q21 -23 21 -54q0 -10 -2 -22 q-10 -43 -47 -77q-35 -33 -78 -33q-45 0 -72 33q-19 23 -19 53q0 12 3 24zM168 639q16 68 125 68q55 262 143 409q162 283 371 283q121 0 176 -86q38 -60 38 -137q0 -34 -7 -72q-25 -117 -123 -117q-59 0 -72 55q0 18 -1 51t-1 52q-3 55 -43 55q-100 0 -192 -203 q-57 -129 -88 -278q104 6 196 6q100 0 100 -68q0 -12 -4 -26q-20 -100 -204 -101q-35 0 -64 2q-57 4 -63 5q-16 -178 -62 -519q-88 -53 -135 -53q-50 0 -50 75q0 32 9 79q0 20 10 82q6 121 33 329l-70 -2q-25 50 -24 89q0 12 2 22z" />
<glyph unicode="&#xfb02;" horiz-adv-x="1128" d="M893 94q0 6 2 15.5t6 22.5t7 24q10 39 14 61l106 535q68 356 105 534q23 113 115 113q74 0 74 -91q0 -32 -9 -75q-2 -16 -12 -53q-2 -6 -4 -14.5t-3 -13.5t-3.5 -10t-2.5 -7q-20 -100 -75 -414q-57 -317 -78 -414q-34 -157 -80 -295q-76 -47 -119 -47q-51 0 -51 67 q0 26 8 62zM168 639q16 68 125 68q55 262 143 409q162 283 371 283q121 0 176 -86q38 -60 38 -137q0 -34 -7 -72q-25 -117 -123 -117q-59 0 -72 55q0 18 -1 51t-1 52q-3 55 -43 55q-100 0 -192 -203q-57 -129 -88 -278q104 6 196 6q100 0 100 -68q0 -12 -4 -26 q-20 -100 -204 -101q-35 0 -64 2q-57 4 -63 5q-16 -178 -62 -519q-88 -53 -135 -53q-50 0 -50 75q0 32 9 79q0 20 10 82q6 121 33 329l-70 -2q-25 50 -24 89q0 12 2 22z" />
<glyph unicode="&#xfb03;" horiz-adv-x="1941" d="M1673 55l35 168q34 120 92 393q45 219 155 220q71 0 71 -62q0 -13 -3 -29q-4 -80 -43 -186l-47 -184q-41 -182 -45 -191q-25 -98 -60 -190q-68 -29 -102 -29q-57 0 -57 57q0 14 4 33zM1886 1038q8 39 43 74q33 33 78 33q46 0 73 -31q21 -23 21 -54q0 -10 -2 -22 q-10 -43 -47 -77q-35 -33 -78 -33q-45 0 -72 33q-19 23 -19 53q0 12 3 24zM967 639q16 68 125 68q55 262 143 409q162 283 371 283q121 0 176 -86q38 -60 38 -137q0 -34 -7 -72q-25 -117 -123 -117q-59 0 -72 55q0 18 -1 51t-1 52q-3 55 -43 55q-100 0 -192 -203 q-57 -129 -88 -278q104 6 196 6q100 0 100 -68q0 -12 -4 -26q-20 -100 -204 -101q-35 0 -64 2q-57 4 -63 5q-16 -178 -62 -519q-88 -53 -135 -53q-50 0 -50 75q0 32 9 79q0 20 10 82q6 121 33 329l-70 -2q-25 50 -24 89q0 12 2 22zM168 639q16 68 125 68q55 262 143 409 q162 283 371 283q121 0 176 -86q38 -60 38 -137q0 -34 -7 -72q-25 -117 -123 -117q-59 0 -72 55q0 18 -1 51t-1 52q-3 55 -43 55q-100 0 -192 -203q-57 -129 -88 -278q104 6 196 6q100 0 100 -68q0 -12 -4 -26q-20 -100 -204 -101q-35 0 -64 2q-57 4 -63 5 q-16 -178 -62 -519q-88 -53 -135 -53q-50 0 -50 75q0 32 9 79q0 20 10 82q6 121 33 329l-70 -2q-25 50 -24 89q0 12 2 22z" />
<glyph unicode="&#xfb04;" horiz-adv-x="1927" d="M1691 94q0 6 2 15.5t6 22.5t7 24q10 39 14 61l106 535q68 356 105 534q23 113 115 113q74 0 74 -91q0 -32 -9 -75q-2 -16 -12 -53q-2 -6 -4 -14.5t-3 -13.5t-3.5 -10t-2.5 -7q-20 -100 -75 -414q-57 -317 -78 -414q-34 -157 -80 -295q-76 -47 -119 -47q-51 0 -51 67 q0 26 8 62zM967 639q16 68 125 68q55 262 143 409q162 283 371 283q121 0 176 -86q38 -60 38 -137q0 -34 -7 -72q-25 -117 -123 -117q-59 0 -72 55q0 18 -1 51t-1 52q-3 55 -43 55q-100 0 -192 -203q-57 -129 -88 -278q104 6 196 6q100 0 100 -68q0 -12 -4 -26 q-20 -100 -204 -101q-35 0 -64 2q-57 4 -63 5q-16 -178 -62 -519q-88 -53 -135 -53q-50 0 -50 75q0 32 9 79q0 20 10 82q6 121 33 329l-70 -2q-25 50 -24 89q0 12 2 22zM168 639q16 68 125 68q55 262 143 409q162 283 371 283q121 0 176 -86q38 -60 38 -137q0 -34 -7 -72 q-25 -117 -123 -117q-59 0 -72 55q0 18 -1 51t-1 52q-3 55 -43 55q-100 0 -192 -203q-57 -129 -88 -278q104 6 196 6q100 0 100 -68q0 -12 -4 -26q-20 -100 -204 -101q-35 0 -64 2q-57 4 -63 5q-16 -178 -62 -519q-88 -53 -135 -53q-50 0 -50 75q0 32 9 79q0 20 10 82 q6 121 33 329l-70 -2q-25 50 -24 89q0 12 2 22z" />
</font>
</defs>
</svg>
