<?xml version="1.0" encoding="utf-8"?>
<!-- Generator: Adobe Illustrator 16.0.4, SVG Export Plug-In . SVG Version: 6.00 Build 0)  -->
<!DOCTYPE svg PUBLIC "-//W3C//DTD SVG 1.1//EN" "http://www.w3.org/Graphics/SVG/1.1/DTD/svg11.dtd">
<svg version="1.1" id="Capa_1" xmlns="http://www.w3.org/2000/svg" xmlns:xlink="http://www.w3.org/1999/xlink" x="0px" y="0px"
	 width="512px" height="573.5px" viewBox="0 0 512 573.5" enable-background="new 0 0 512 573.5" xml:space="preserve">
<g>
	<path d="M30,122.75c-8,0-13,0.667-15,2s-2.333,2.833-1,4.5s4.667,4.5,10,8.5c2.667,2,4.667,3.667,6,5l226,172l226-171l5-5
		c5.333-4,8.833-6.833,10.5-8.5s1.5-3.333-0.5-5s-7-2.5-15-2.5H241H30z"/>
	<path d="M0,162.75v254c0,7.333,3,14.833,9,22.5s12,11.5,18,11.5h458c6,0,12-3.833,18-11.5s9-15.167,9-22.5v-254l-256,196L0,162.75z
		"/>
</g>
</svg>
