<?xml version="1.0" encoding="utf-8"?>
<!-- Generator: Adobe Illustrator 16.0.4, SVG Export Plug-In . SVG Version: 6.00 Build 0)  -->
<!DOCTYPE svg PUBLIC "-//W3C//DTD SVG 1.1//EN" "http://www.w3.org/Graphics/SVG/1.1/DTD/svg11.dtd">
<svg version="1.1" id="Capa_1" xmlns="http://www.w3.org/2000/svg" xmlns:xlink="http://www.w3.org/1999/xlink" x="0px" y="0px"
	 width="21.979px" height="23.305px" viewBox="0 0 21.979 23.305" enable-background="new 0 0 21.979 23.305" xml:space="preserve">
<g>
	<path d="M17.947,0H3.211v3.849H0v7.812h3.211v11.645H21.98V3.771L17.947,0z M2.953,9.514V5.399h1.331
		c0.505,0,0.833,0.021,0.985,0.062c0.234,0.062,0.434,0.195,0.591,0.401C6.02,6.07,6.1,6.337,6.1,6.662
		c0,0.254-0.046,0.464-0.138,0.637c-0.09,0.175-0.206,0.308-0.349,0.407C5.474,7.803,5.331,7.868,5.186,7.9
		c-0.2,0.038-0.485,0.06-0.86,0.06H3.783v1.555H2.953z M20.617,21.94c-1.208,0-14.836,0-16.044,0c0-0.619,0-5.448,0-10.28h11.44
		V3.848H4.573c0-1.317,0-2.238,0-2.485c1.206,0,12.345,0,12.836,0c0.329,0.308,2.848,2.663,3.208,2.999
		C20.617,4.915,20.617,20.698,20.617,21.94z M6.786,9.514V5.399h1.516c0.343,0,0.604,0.025,0.784,0.078
		c0.24,0.072,0.446,0.197,0.617,0.379c0.173,0.181,0.303,0.402,0.395,0.667c0.088,0.264,0.134,0.587,0.134,0.973
		c0,0.338-0.043,0.63-0.126,0.875C10.003,8.67,9.855,8.912,9.666,9.098c-0.146,0.142-0.34,0.25-0.582,0.328
		C8.897,9.484,8.654,9.514,8.348,9.514H6.786z M13.483,7.067V7.76h-1.718v1.753h-0.829v0.001V9.513V5.399h2.822v0.696h-1.993v0.972
		H13.483z"/>
	<path d="M9.373,7.457c0-0.314-0.028-0.562-0.084-0.729C9.232,6.557,9.153,6.425,9.052,6.329c-0.1-0.096-0.227-0.16-0.382-0.193
		C8.552,6.109,8.327,6.096,7.99,6.096H7.616v2.722h0.618c0.231,0,0.397-0.012,0.501-0.039c0.136-0.034,0.247-0.093,0.335-0.172
		c0.09-0.08,0.161-0.212,0.219-0.396C9.345,8.027,9.373,7.775,9.373,7.457z"/>
	<path d="M4.889,7.198c0.109-0.043,0.196-0.108,0.26-0.201C5.211,6.905,5.241,6.8,5.241,6.677c0-0.148-0.042-0.272-0.131-0.37
		C5.023,6.21,4.911,6.15,4.777,6.124C4.68,6.105,4.48,6.096,4.183,6.096H3.783v1.167h0.451C4.561,7.263,4.779,7.242,4.889,7.198z"/>
</g>
</svg>
