<?xml version="1.0" encoding="UTF-8" standalone="no"?>
<svg
   xmlns:dc="http://purl.org/dc/elements/1.1/"
   xmlns:cc="http://creativecommons.org/ns#"
   xmlns:rdf="http://www.w3.org/1999/02/22-rdf-syntax-ns#"
   xmlns:svg="http://www.w3.org/2000/svg"
   xmlns="http://www.w3.org/2000/svg"
   xmlns:sodipodi="http://sodipodi.sourceforge.net/DTD/sodipodi-0.dtd"
   xmlns:inkscape="http://www.inkscape.org/namespaces/inkscape"
   id="svg2"
   viewBox="0 0 311.54881 295.57847"
   version="1.0"
   inkscape:version="0.48.4 r9939"
   width="100%"
   height="100%"
   sodipodi:docname="rachelps_Cheeky_Monkey.svg">
  <defs
     id="defs13" />
  <sodipodi:namedview
     pagecolor="#ffffff"
     bordercolor="#666666"
     borderopacity="1"
     objecttolerance="10"
     gridtolerance="10"
     guidetolerance="10"
     inkscape:pageopacity="0"
     inkscape:pageshadow="2"
     inkscape:window-width="1387"
     inkscape:window-height="876"
     id="namedview11"
     showgrid="false"
     inkscape:zoom="0.7592819"
     inkscape:cx="-56.934101"
     inkscape:cy="147.75848"
     inkscape:window-x="53"
     inkscape:window-y="24"
     inkscape:window-maximized="1"
     inkscape:current-layer="layer1"
     fit-margin-top="0"
     fit-margin-left="0"
     fit-margin-right="0"
     fit-margin-bottom="0" />
  <g
     id="layer1"
     transform="translate(-201.27313,-281.75001)">
    <g
       id="g3762">
      <path
         id="path4183"
         d="m 328.90902,283.74078 c -29.32375,0 -54.14337,20.04337 -62.3071,47.62177 -17.68809,1.09788 -26.47114,16.72157 -26.42422,36.53035 0.0469,18.40124 7.75085,34.17507 22.96167,37.24351 -9.83401,6.9251 -20.99111,15.85828 -32.40157,26.13333 -31.26616,28.1508 -29.68033,38.07865 -24.6601,43.95278 5.02022,5.87413 15.37972,7.39428 46.65526,-20.76591 3.72529,-3.35933 7.25352,-6.75619 10.5847,-10.11552 v 61.22799 c -4.6355,5.44249 -9.34607,11.24155 -14.0191,17.38781 -27.02477,35.52631 -22.00454,44.66594 -14.30999,48.97301 7.69455,4.31646 20.15597,2.9746 47.18074,-32.55171 8.73613,-11.48552 15.77383,-22.68954 21.02865,-32.77691 h 53.30823 c 5.33927,10.51901 12.63971,22.37988 21.87317,34.51288 27.02477,35.52631 39.49557,36.85878 47.18074,32.54232 7.69455,-4.30707 12.72416,-13.43731 -14.30999,-48.96362 -5.3205,-7.00017 -10.67854,-13.5593 -15.92397,-19.62111 v -9.56189 c 39.33605,-6.38085 60.44915,-9.39298 77.94957,-18.7672 10.94128,-5.85536 21.02865,-15.64246 28.2071,-27.76607 7.17845,-12.12361 11.42922,-26.96847 8.26695,-42.1699 -2.89953,-13.9628 -11.69196,-23.21502 -17.735,-30.20581 -3.03091,-3.4907 -5.42372,-6.48406 -6.63421,-8.70798 -1.21048,-2.21453 -1.38877,-3.23734 -1.1448,-4.77625 0.79761,-4.97331 5.84599,-13.53115 11.14772,-19.99645 5.30173,-6.4653 10.26566,-10.94128 10.26566,-10.94128 3.19042,-2.79631 4.32584,-7.27229 2.87138,-11.26032 -1.45446,-3.98803 -5.19852,-6.66236 -9.4399,-6.74681 -2.67433,-0.0469 -5.2642,0.93836 -7.21599,2.75878 0,0 -6.03366,5.40495 -12.37697,13.13704 -6.33393,7.73209 -13.59684,17.64117 -15.53924,29.82108 -1.06035,6.64359 0.75069,12.97752 3.39686,17.82884 2.65556,4.86071 5.97736,8.67983 9.12086,12.32067 6.28701,7.27229 11.62628,13.53115 13.16519,20.96296 1.85796,8.89565 -0.59116,18.66398 -5.8366,27.50333 -5.23605,8.84874 -13.27779,16.40254 -20.23104,20.11844 -12.38635,6.63421 -31.17232,9.99353 -68.23754,16.03657 v -38.61351 c 6.78435,1.44507 13.99095,2.78693 21.49783,3.95988 41.56935,6.49345 48.27862,-0.99466 49.67678,-8.59538 1.38877,-7.60072 -3.96926,-16.58082 -45.53861,-23.07427 -8.98949,-1.40754 -17.61302,-2.25207 -25.636,-2.67433 V 405.371 h -2.95583 c 15.9615,-2.49604 24.05955,-18.62645 24.10647,-37.4781 0.0375,-19.35836 -8.34202,-34.6724 -25.22312,-36.3896 -8.1262,-27.6347 -32.96459,-47.76252 -62.34464,-47.76252 z"
         inkscape:connector-curvature="0"
         style="fill:#aa4400;stroke:#000000;stroke-width:4;stroke-miterlimit:4;stroke-opacity:1;stroke-dasharray:none" />
      <path
         id="rect3258"
         d="m 296.12272,318.42256 c -17.70685,0 -32.11068,14.57273 -32.37342,32.6737 0,0.10322 0.009,0.21582 0,0.31904 v 54.63132 h 130.90122 v -54.95036 h -0.19705 c -0.27213,-18.0822 -14.995,-32.6737 -33.11473,-32.6737 -17.22829,0.009 -31.38814,13.19334 -32.9552,30.06506 -1.52953,-16.86233 -15.39849,-30.06506 -32.26082,-30.06506 z"
         inkscape:connector-curvature="0"
         style="fill:#ffe6d5" />
      <path
         id="path3262"
         d="m 287.67748,346.13233 c 0.41288,-3.38748 2.68371,-6.87817 6.89695,-8.59537 3.24672,-1.37939 7.54441,-1.0322 10.42518,0.685 4.09125,2.35528 5.8366,6.34331 5.51756,10.04045 -0.2909,3.46255 -2.46789,7.06585 -6.69989,8.90504 -3.22796,1.46384 -7.61949,1.19171 -10.57532,-0.50672 -3.86605,-2.13946 -5.63016,-5.77091 -5.64893,-9.20531"
         inkscape:connector-curvature="0" />
      <path
         id="path4150"
         d="m 348.45506,346.80795 c 0.42226,-3.38748 2.68371,-6.87818 6.90633,-8.60476 3.24673,-1.37 7.54441,-1.02281 10.42518,0.685 4.09125,2.36467 5.82722,6.3527 5.50817,10.04046 -0.28151,3.46255 -2.4585,7.07523 -6.6905,8.91442 -3.22796,1.46384 -7.61949,1.19171 -10.57532,-0.5161 -3.86604,-2.13946 -5.63954,-5.76153 -5.64893,-9.19593"
         inkscape:connector-curvature="0" />
    </g>
  </g>
  <metadata
     id="metadata9">
    <rdf:RDF>
      <cc:Work>
        <dc:format>image/svg+xml</dc:format>
        <dc:type
           rdf:resource="http://purl.org/dc/dcmitype/StillImage" />
        <cc:license
           rdf:resource="http://creativecommons.org/licenses/publicdomain/" />
        <dc:publisher>
          <cc:Agent
             rdf:about="http://openclipart.org/">
            <dc:title>Openclipart</dc:title>
          </cc:Agent>
        </dc:publisher>
        <dc:title>Cheeky Monkey</dc:title>
        <dc:date>2007-01-12T17:10:03</dc:date>
        <dc:description>Simple cartoon cheeky monkey (naive style)</dc:description>
        <dc:source>http://openclipart.org/detail/2876/cheeky-monkey-by-rachelps</dc:source>
        <dc:creator>
          <cc:Agent>
            <dc:title>rachelps</dc:title>
          </cc:Agent>
        </dc:creator>
        <dc:subject>
          <rdf:Bag>
            <rdf:li>animal</rdf:li>
            <rdf:li>ape</rdf:li>
            <rdf:li>cartoon</rdf:li>
            <rdf:li>clip art</rdf:li>
            <rdf:li>clipart</rdf:li>
            <rdf:li>icon</rdf:li>
            <rdf:li>image</rdf:li>
            <rdf:li>mammal</rdf:li>
            <rdf:li>media</rdf:li>
            <rdf:li>monkey</rdf:li>
            <rdf:li>nature</rdf:li>
            <rdf:li>public domain</rdf:li>
            <rdf:li>svg</rdf:li>
          </rdf:Bag>
        </dc:subject>
      </cc:Work>
      <cc:License
         rdf:about="http://creativecommons.org/licenses/publicdomain/">
        <cc:permits
           rdf:resource="http://creativecommons.org/ns#Reproduction" />
        <cc:permits
           rdf:resource="http://creativecommons.org/ns#Distribution" />
        <cc:permits
           rdf:resource="http://creativecommons.org/ns#DerivativeWorks" />
      </cc:License>
    </rdf:RDF>
  </metadata>
</svg>
